<?xml version="1.0" encoding="UTF-8" standalone="no"?>
<!-- Created with Inkscape (http://www.inkscape.org/) -->

<svg
   xmlns:dc="http://purl.org/dc/elements/1.1/"
   xmlns:cc="http://creativecommons.org/ns#"
   xmlns:rdf="http://www.w3.org/1999/02/22-rdf-syntax-ns#"
   xmlns:svg="http://www.w3.org/2000/svg"
   xmlns="http://www.w3.org/2000/svg"
   version="1.1"
   width="139"
   height="215"
   id="svg2">
  <defs
     id="defs4">
    <filter
       x="-0.25"
       y="-0.25"
       width="1.5"
       height="1.5"
       color-interpolation-filters="sRGB"
       id="filter4472">
      <feGaussianBlur
         id="feGaussianBlur4474"
         stdDeviation="5"
         result="result1" />
      <feTurbulence
         id="feTurbulence4476"
         numOctaves="1"
         seed="0"
         type="fractalNoise"
         baseFrequency="0.1"
         result="result2" />
      <feDisplacementMap
         in2="result2"
         scale="5"
         xChannelSelector="R"
         yChannelSelector="G"
         in="result1"
         result="result3"
         id="feDisplacementMap4478" />
      <feComposite
         in2="result3"
         operator="atop"
         id="feComposite4480" />
    </filter>
    <filter
       color-interpolation-filters="sRGB"
       id="filter4486">
      <feGaussianBlur
         stdDeviation="1.065"
         id="feGaussianBlur4488" />
    </filter>
    <filter
       x="-0.156"
       y="-0.046799999"
       width="1.312"
       height="1.0936"
       color-interpolation-filters="sRGB"
       id="filter3833">
      <feGaussianBlur
         stdDeviation="0.975"
         id="feGaussianBlur3835" />
    </filter>
  </defs>
  <metadata
     id="metadata7">
    <rdf:RDF>
      <cc:Work
         rdf:about="">
        <dc:format>image/svg+xml</dc:format>
        <dc:type
           rdf:resource="http://purl.org/dc/dcmitype/StillImage" />
        <dc:title></dc:title>
      </cc:Work>
    </rdf:RDF>
  </metadata>
  <g
     transform="matrix(0.87355927,0,0,1,-0.83813151,-833.16723)"
     id="layer1">
    <path
       d="M 90,5 25,30 25,70 40,55 21.660845,176.86441 125,210 155,120 145,85 115,85 145,35 z M 85,30 115,40 100,75 60,90 67.469927,40.338983 z M 20,32.53125 5,35 5.375,85.0625 20,72.46875 z M 128.93287,101.27119 135,120 l -31.40279,48.13559 -46.462945,-11.8644 3.399301,-43.1356 z"
       transform="translate(0,832.36215)"
       id="path3956"
       style="fill:#00f500;fill-opacity:1;stroke:#fa4d00;stroke-width:3.4000001;stroke-linecap:butt;stroke-linejoin:miter;stroke-miterlimit:4;stroke-opacity:0.94117647;stroke-dasharray:none;filter:url(#filter4486)" />
  </g>
</svg>
