<?xml version="1.0" encoding="UTF-8" standalone="no"?>
<!-- Created with Inkscape (http://www.inkscape.org/) -->

<svg
   xmlns:dc="http://purl.org/dc/elements/1.1/"
   xmlns:cc="http://creativecommons.org/ns#"
   xmlns:rdf="http://www.w3.org/1999/02/22-rdf-syntax-ns#"
   xmlns:svg="http://www.w3.org/2000/svg"
   xmlns="http://www.w3.org/2000/svg"
   version="1.1"
   width="139"
   height="215"
   id="svg2">
  <defs
     id="defs4">
    <filter
       x="-0.25"
       y="-0.25"
       width="1.5"
       height="1.5"
       color-interpolation-filters="sRGB"
       id="filter4472">
      <feGaussianBlur
         result="result1"
         stdDeviation="5"
         id="feGaussianBlur4474" />
      <feTurbulence
         result="result2"
         baseFrequency="0.1"
         type="fractalNoise"
         seed="0"
         numOctaves="1"
         id="feTurbulence4476" />
      <feDisplacementMap
         in2="result2"
         scale="5"
         xChannelSelector="R"
         yChannelSelector="G"
         in="result1"
         result="result3"
         id="feDisplacementMap4478" />
      <feComposite
         in2="result3"
         operator="atop"
         id="feComposite4480" />
    </filter>
    <filter
       color-interpolation-filters="sRGB"
       id="filter4486">
      <feGaussianBlur
         id="feGaussianBlur4488"
         stdDeviation="1.065" />
    </filter>
    <filter
       x="-0.156"
       y="-0.046799999"
       width="1.312"
       height="1.0936"
       color-interpolation-filters="sRGB"
       id="filter3833">
      <feGaussianBlur
         id="feGaussianBlur3835"
         stdDeviation="0.975" />
    </filter>
    <filter
       x="-0.12068572"
       y="-0.14565517"
       width="1.2413714"
       height="1.2913103"
       color-interpolation-filters="sRGB"
       id="filter3834">
      <feGaussianBlur
         id="feGaussianBlur3836"
         stdDeviation="0.85084873" />
    </filter>
    <filter
       color-interpolation-filters="sRGB"
       id="filter3849">
      <feGaussianBlur
         id="feGaussianBlur3851"
         stdDeviation="0.5480702" />
    </filter>
    <filter
       color-interpolation-filters="sRGB"
       id="filter3894">
      <feGaussianBlur
         id="feGaussianBlur3896"
         stdDeviation="0.72055663" />
    </filter>
  </defs>
  <metadata
     id="metadata7">
    <rdf:RDF>
      <cc:Work
         rdf:about="">
        <dc:format>image/svg+xml</dc:format>
        <dc:type
           rdf:resource="http://purl.org/dc/dcmitype/StillImage" />
        <dc:title></dc:title>
      </cc:Work>
    </rdf:RDF>
  </metadata>
  <g
     transform="matrix(0.87355927,0,0,1,-0.83813151,-833.16723)"
     id="layer1"
     style="fill:#00ffff;fill-opacity:1" />
  <g
     id="g3898">
    <path
       d="M 38.674943,97.524862 C 29.128363,78.066945 57.39136,82.753507 55.59523,94.140804 54.307484,99.746588 42.728585,101.60544 38.674943,97.524862 z m 74.567737,13.576858 c 17.3543,52.81626 -32.354973,64.80475 -62.720335,44.84783 -38.284863,-41.8073 23.363428,-66.92792 62.720335,-44.84783 z M 73.414406,29.19492 c 9.28856,-1.06975 22.359947,1.47805 26.206779,10 C 106.3743,63.24729 66.31265,81.1299 51.575425,71.30776 39.004793,55.70205 54.082225,31.85919 73.414406,29.19492 z M 44.205816,17.59244 c -8.726737,8.29169 -25.583698,17.38486 -21.271218,28.39751 1.619216,4.13495 12.515879,-4.20933 13.103389,2.40373 2.529462,28.47185 -30.3123167,106.68037 -25.205638,145.06939 23.732142,12.2996 71.191618,26.9344 98.491301,8.4803 23.89094,-16.1499 26.10046,-53.9239 25.23991,-82.74845 C 134.25884,108.98834 131.47461,97.32099 123.89422,90.4796 117.68966,84.87991 102.37456,92.08618 99.621185,84.19492 108.06382,67.3736 139.2366,55.05395 135.4967,36.6121 120.42868,-1.92311 68.986709,-4.96371 44.205816,17.59244 z"
       transform="matrix(1.0553267,0,0,0.99961539,-7.667361,0.0411773)"
       id="path3783"
       style="fill:#00ffff;fill-opacity:1;stroke:#fa0000;stroke-width:3;stroke-linecap:butt;stroke-linejoin:miter;stroke-miterlimit:4;stroke-opacity:0.94117647;stroke-dasharray:none;filter:url(#filter3834)" />
    <path
       d="m 70.58177,199.04659 c 19.33278,0.55417 34.99203,-6.26197 46.89337,-23.20497"
       id="path3839"
       style="fill:none;stroke:#fa0000;stroke-width:4;stroke-linecap:round;stroke-linejoin:miter;stroke-miterlimit:4;stroke-opacity:0.94117647;stroke-dasharray:none;filter:url(#filter3894)" />
  </g>
</svg>
