<?xml version="1.0" standalone="no"?>
<!DOCTYPE svg PUBLIC "-//W3C//DTD SVG 1.1//EN" "http://www.w3.org/Graphics/SVG/1.1/DTD/svg11.dtd" >
<svg xmlns="http://www.w3.org/2000/svg">
<metadata></metadata>
<defs>
<font id="mrs_sheppardsregular" horiz-adv-x="823" >
<font-face units-per-em="2048" ascent="1638" descent="-410" />
<missing-glyph horiz-adv-x="512" />
<glyph horiz-adv-x="2048" />
<glyph horiz-adv-x="2048" />
<glyph unicode="&#xd;" horiz-adv-x="681" />
<glyph unicode=" "  horiz-adv-x="512" />
<glyph unicode="&#x09;" horiz-adv-x="512" />
<glyph unicode="&#xa0;" horiz-adv-x="512" />
<glyph unicode="!" horiz-adv-x="712" d="M213 6v2q0 31 15.5 78t39 79t74.5 58.5t121 26.5q78 0 78 -84t-79 -163t-156 -79t-93 82zM440 405.5q0 55.5 109.5 300t258 478t236.5 250.5q92 0 93 -109q0 -80 -133.5 -336t-279.5 -477t-181 -221q-41 0 -72 29.5t-31 85z" />
<glyph unicode="&#x22;" horiz-adv-x="948" d="M309 535l187 464q14 35 49 35t86 -23.5t51 -58.5q0 -53 -69.5 -170.5t-139.5 -208.5l-70 -90q-20 -10 -45 -10q-47 1 -49 62zM641 535l186 464q14 35 49 35t86.5 -23.5t51.5 -58.5q0 -53 -70 -170.5t-139 -208.5l-70 -90q-20 -10 -45 -10q-47 1 -49 62z" />
<glyph unicode="#" horiz-adv-x="1316" d="M-86 578q0 51 74 51q131 4 303 12q6 10 15 29.5t17.5 36t16.5 32.5q-59 -2 -154 -2h-14q-86 0 -112.5 14.5t-26.5 41.5q0 51 73 51q0 16 306 35q193 373 202 387q49 70 93 69q23 0 41 -14t18 -43t-182 -389q180 8 278 10q174 340 193 367q49 70 92 69q23 0 41 -14t18 -43 t-176 -377q184 0 200.5 -11t47.5 -14.5t51.5 -13.5t20.5 -39.5t-64.5 -39t-296.5 -19.5l-31 -2q-33 -66 -49 -96q162 6 207 6q115 0 115 -64q0 -31 -63.5 -40t-293.5 -19l-28 -2l-41 -80q-104 -197 -142 -252t-83 -55q-23 0 -38.5 21.5t-15.5 43t13 37.5q61 121 139 277 l-281 -11q-137 -258 -176 -313t-82 -55q-23 0 -38 21.5t-15 43t12 37.5q57 115 133 262h-137l-20 -2q-131 0 -152 23q-8 12 -8 33zM459 647l280 12q33 62 49 95l-278 -11q-49 -92 -51 -96z" />
<glyph unicode="$" horiz-adv-x="1538" d="M-92 196.5q0 137.5 190 213.5q57 -57 267 -58q170 12 301 54q20 53 116 260q-84 2 -309 8q-113 2 -186.5 64.5t-73.5 168t144.5 220t351 192.5t413.5 104q102 225 109 238q31 70 59 70q14 0 27.5 -14.5t13.5 -35t-98 -247.5q16 2 51 2q152 0 241 -47.5t89 -145.5 q0 -63 -126 -232t-190 -169q-14 0 -25 12t-11 32.5t45 71t45 74.5q0 18 -64.5 18.5t-249.5 -59.5q-25 -53 -53.5 -119.5t-38.5 -89.5q78 -2 174.5 -15t151.5 -43t80 -69q41 -66 41 -133q0 -115 -125 -232.5t-311.5 -203.5t-387.5 -129q-78 -168 -94 -195.5t-34.5 -27.5 t-30 21.5t-11.5 39.5q0 25 56 144q-80 -12 -154 -13q-180 0 -286.5 66.5t-106.5 204zM702 817q0 -27 134 -33q23 53 71 160q-205 -80 -205 -127zM799 457q90 43 142 91t60 81q-3 37 -81 37h-27q-18 -39 -49 -110t-45 -99z" />
<glyph unicode="%" horiz-adv-x="1812" d="M242 889q0 131 99 263t229 201.5t239 69.5q74 0 113 -57h6q25 16 51.5 16t40.5 -23.5t14 -51.5q0 -94 -94 -261t-243.5 -307.5t-274.5 -140.5q-70 0 -125 80t-55 211zM408 -13q0 22 12 38q952 1354 979 1390q49 70 92 70q23 0 41 -14.5t18 -36.5q0 -41 -472 -712 t-552 -767q-27 -33 -57.5 -33t-45.5 21.5t-15 43.5zM506 760q6 -41 37 -41q51 0 147 103.5t172 234.5t76 203q0 16 -25 24q-139 0 -273 -177t-134 -343v-4zM1042 290q0 130 99.5 262t229.5 201.5t239 69.5q73 0 112 -57h7q25 16 51 16t40.5 -23.5t14.5 -51.5q0 -94 -94 -261 t-243.5 -307.5t-274.5 -140.5q-70 0 -125.5 81t-55.5 211zM1307 160q6 -41 36 -41q51 0 147.5 103.5t172.5 234t76 202.5q0 16 -25 25q-139 0 -273 -177t-134 -343v-4z" />
<glyph unicode="&#x26;" horiz-adv-x="2017" d="M-27 104q0 164 188.5 347.5t467.5 273.5q12 4 12 8q0 16 -25 21q-133 14 -141 16q-113 25 -157 75t-44 103q0 125 178.5 250t426 200t456.5 75q342 0 342 -193q0 -119 -120.5 -239.5t-186.5 -120.5q-14 0 -27.5 13t-13.5 34.5t40 66.5t40 67.5t-51 22.5 q-133 0 -431 -109.5t-300 -164.5q2 -14 54 -14t118.5 10t101.5 10q92 0 92 -49q0 -27 -30.5 -43t-52 -25.5t-60.5 -25.5q-227 -88 -341 -214t-114 -231.5t86 -153.5t243 -48t318.5 66.5t161.5 148.5q-31 -2 -51 -2q-78 0 -134 41.5t-56 119.5q0 61 124.5 127t293.5 107 t304.5 41t219.5 -47t84 -148q0 -51 -147.5 -101t-297 -80t-149.5 -32q-98 -106 -241.5 -190t-283.5 -129q-272 -88 -434 -88q-463 0 -463 204z" />
<glyph unicode="'" horiz-adv-x="509" d="M309 535l187 464q14 35 49 35t86 -23.5t51 -58.5q0 -53 -69.5 -170.5t-139.5 -208.5l-70 -90q-20 -10 -45 -10q-47 1 -49 62z" />
<glyph unicode="(" horiz-adv-x="876" d="M109 381q0 266 114 510q154 326 500 571q98 70 145 70h6q23 -2 70 -48t47 -89v-6q-6 -39 -67.5 -108t-141.5 -159t-159.5 -207.5t-135 -295t-55.5 -374t76 -397.5q0 -47 -39 -75.5t-80 -32.5l-39 -4q-125 88 -183 279.5t-58 365.5z" />
<glyph unicode=")" horiz-adv-x="864" d="M53 -119q6 39 67.5 107.5t141.5 159t160 208t135 294.5t55.5 373.5t-75.5 397.5q0 47 38.5 76t79.5 33l39 4q125 -88 183.5 -279.5t58.5 -365.5q0 -266 -115 -510q-154 -326 -499 -572q-98 -70 -146 -69h-6q-23 2 -70 48t-47 89v6z" />
<glyph unicode="*" horiz-adv-x="978" d="M268 881q0 8 8 16q90 -6 173 -8q-54 63 -54 104q0 10 2 24.5t25.5 38t64.5 23.5q80 0 170 -110q121 174 217 174q29 0 61 -26.5t32 -57.5q0 -51 -82 -137q57 -8 81.5 -26.5t30.5 -64.5q-4 -113 -182 -112q41 -86 41 -128t-27 -42q4 10 -74.5 77.5t-113.5 92.5 q-43 -43 -129 -154l-25 -28q-27 0 -26.5 43t67.5 178q-260 63 -260 123z" />
<glyph unicode="+" horiz-adv-x="1212" d="M84 630.5q0 26.5 10 47.5q27 29 492 33q53 360 57 379q20 86 57 86h11q29 -6 42 -30t13 -40l-59 -395l305 4q98 0 133 -12.5t35 -51.5t-20.5 -59.5t-35.5 -20.5h-438l-61 -413q-8 -66 -58 -66l-24 6q-23 10 -23 54q0 117 45 417h-405q-31 0 -53.5 17.5t-22.5 44z" />
<glyph unicode="," horiz-adv-x="567" d="M180 -182q0 12 17 26q113 123 114 183q0 14 -34.5 62t-34.5 69.5t5 42t35.5 54.5t98.5 34t117 -43t48 -131t-122 -205t-219 -117q-25 0 -25 25z" />
<glyph unicode="-" horiz-adv-x="1241" d="M145 344q0 27 11 47q31 33 594 33l417 -2q27 0 50.5 -14.5t23.5 -48t-20.5 -54t-34.5 -20.5l-965 -2q-31 0 -53.5 17t-22.5 44z" />
<glyph unicode="." horiz-adv-x="569" d="M131 54.5q0 25.5 19.5 55t51 65.5t86 62.5t111.5 26.5q84 0 84 -82q0 -74 -85 -144.5t-153.5 -70.5t-91 31t-22.5 56.5z" />
<glyph unicode="/" horiz-adv-x="1060" d="M-96 -82.5q0 21.5 12 37.5q1122 1423 1149 1460q49 70 92 70q23 0 41.5 -14.5t18.5 -36.5q0 -39 -512 -691.5t-682 -857.5q-27 -33 -58 -32.5t-46 22t-15 43z" />
<glyph unicode="0" horiz-adv-x="1423" d="M12 431q0 226 118 437t292 353.5t368.5 227.5t347 85t232.5 -117h12q47 33 101.5 33t83 -47t28.5 -105q0 -109 -73.5 -285.5t-202.5 -369t-282.5 -365t-333 -283t-325 -110.5t-256 160t-110.5 386zM541 209q12 -82 73 -82q102 0 293 206t342.5 468t151.5 403q0 31 -47 51 q-184 0 -377 -168.5t-314.5 -413.5t-121.5 -458v-6z" />
<glyph unicode="1" horiz-adv-x="819" d="M12 74q0 160 86 409.5t197 465.5t213 379t137 177q18 6 56 6t91.5 -32.5t53.5 -71.5q0 -94 -103.5 -466t-246 -736.5t-224.5 -399.5q-18 -6 -41 -6q-59 0 -120.5 45t-80 100.5t-18.5 129.5z" />
<glyph unicode="2" horiz-adv-x="1351" d="M-102 160q0 88 158.5 211t357 229.5t430 234.5t325.5 201q-14 41 -77 41q-137 0 -289 -51t-252 -101.5t-117 -50.5q-80 2 -158.5 89.5t-78.5 173.5t108.5 183t279.5 159.5t341 62.5q156 0 323 -80q84 -41 138.5 -111.5t54.5 -146.5t-59.5 -148.5t-143.5 -129.5 q-184 -129 -313 -189l-60 -28q-82 -37 -239.5 -142.5t-193.5 -125t-36 -31.5q0 -8 29 -9q37 0 58.5 7.5t23.5 7.5q143 31 250.5 30.5t212 -42.5t168 -102t100.5 -121.5t37 -104.5q0 -53 -92 -53l-152 10q-145 0 -448 -45t-410.5 -45t-191.5 64.5t-84 152.5z" />
<glyph unicode="3" horiz-adv-x="1390" d="M31 162q0 115 71.5 229.5t120.5 114.5q25 -2 40.5 -19.5t15.5 -38t-20.5 -57.5t-20.5 -53q0 -37 59 -37q127 0 387 123t260 184q-6 14 -57 14.5t-115.5 -10t-99.5 -10.5q-104 0 -105 62q0 18 19.5 32.5t73 38t89 42t180 86t220.5 112.5t76 74q-14 41 -78 41 q-137 0 -288.5 -51.5t-252 -101.5t-117.5 -50q-80 2 -158.5 89t-78.5 173t108.5 183.5t279.5 159.5t341 62q156 0 326 -79q82 -41 136 -112t54 -157t-80 -175t-188 -150q-231 -133 -322 -148l-10 -4q0 -2 2 -4q0 -16 29 -20q174 -16 298 -110.5t124 -221.5q0 -70 -74 -153 t-193.5 -153.5t-293 -118.5t-353.5 -48q-406 0 -405 262z" />
<glyph unicode="4" horiz-adv-x="1515" d="M33 494q0 68 89 189.5t196.5 231t196.5 222t89 166.5q14 37 30.5 82t23 60t16.5 35.5t24 24.5q37 10 90 11q111 0 193 -68t82 -197q0 -70 -107.5 -232.5t-216.5 -291.5l-108 -129q2 -33 18 -33q61 0 408.5 299t601.5 600q31 31 63 31q63 0 74 -72q-4 -59 -65 -149 q-23 -33 -57 -80t-46 -66q-463 -684 -612 -956q-47 -84 -92 -186.5t-66.5 -138t-48.5 -35.5q-57 0 -102 73.5t-45 137.5q0 100 149 299q143 193 143 229q0 4 -4 4q-18 0 -140 -83t-280.5 -166t-268 -83t-169 87t-59.5 184z" />
<glyph unicode="5" horiz-adv-x="1519" d="M68 158q14 166 221 250q59 -59 278 -60q309 23 391 127q29 37 36 53.5t16 57.5l8 41q-2 39 -82 39q-270 0 -476 166.5t-206 396.5q0 143 201 209q205 66 399 75q272 14 530 15q154 0 243 -46t89 -141q0 -74 -149.5 -256t-218.5 -182q-14 0 -25.5 13.5t-10.5 34t53 74.5 t54 81q0 16 -43 16q-217 0 -505.5 -26.5t-295.5 -83.5q0 -78 107 -125q115 -51 219 -70q164 -31 275 -47q248 -35 247 -256q0 -152 -143 -296t-367.5 -231t-429.5 -87q-416 0 -415 258z" />
<glyph unicode="6" horiz-adv-x="1546" d="M4 319q0 147 60.5 315.5t174 327t260 287.5t335 207t359.5 78t278.5 -66.5t107.5 -222.5q0 -143 -156 -143q-36 0 -65 4q-225 0 -415.5 -80t-328.5 -207q16 0 237.5 -5t322.5 -19q180 -27 259.5 -122t79.5 -200q0 -147 -159.5 -290.5t-394 -228.5t-471 -85t-360.5 123 t-124 327zM379 414q0 -78 63 -78q137 0 261 38t199 91t119 102t44 76v2q0 84 -381 84l-154 2q-152 -176 -151 -317z" />
<glyph unicode="7" horiz-adv-x="1353" d="M117 1146q0 85 196.5 255t302.5 170q43 0 43 -33q0 -27 -14 -41t-39 -31q-66 -47 -65 -57q0 -14 56 -14t268 44t304.5 44t166 -16.5t133 -64.5t59.5 -120q0 -41 -37 -78t-75 -58.5t-103 -49.5q-80 -35 -445 -617q-133 -215 -268 -392t-190 -179q-98 0 -182.5 64.5 t-84.5 153.5t133.5 249t292 303t291.5 262t133 129q0 6 -10 6t-129 -31q-356 -92 -514 -92q-104 0 -163.5 54.5t-59.5 139.5z" />
<glyph unicode="8" horiz-adv-x="1431" d="M-127 199q0 92 103.5 193.5t239.5 174t251 121.5t137.5 53t32.5 7l-203 30q-72 16 -119 70q-72 84 -71 182q0 125 169 250t404.5 199.5t433.5 74.5q326 0 326 -192q0 -184 -184 -334q-156 -125 -365 -217q104 -8 135 -23q170 -25 226 -114q45 -70 45 -142 q0 -147 -191.5 -296.5t-461 -239.5t-479.5 -90t-319.5 70.5t-109.5 222.5zM182 406q0 -41 62 -41q211 14 396 70.5t278.5 113.5t101.5 96q-8 60 -84 60l-148 20q-49 -12 -63 -12q-543 -252 -543 -307zM578 905q0 -66 264 -82q479 186 479 307q0 23 -47 23 q-129 0 -411.5 -96.5t-284.5 -151.5z" />
<glyph unicode="9" horiz-adv-x="1617" d="M88 133q0 115 67.5 229.5t114.5 114.5q23 -2 37.5 -19.5t14.5 -38t-19.5 -57t-19.5 -53.5q0 -37 57 -37q344 0 600 148.5t379 349.5q-152 -104 -344.5 -171t-372.5 -67t-297 96.5t-117 303.5q0 147 152 290.5t375 228.5t430 85q250 0 389 -172t139 -430 q0 -184 -74.5 -367.5t-217 -341t-379 -256t-529.5 -98.5q-385 0 -385 262zM614 760q0 -92 189 -92q96 0 251.5 51t313.5 149q25 61 25 115q0 119 -117 119q-260 0 -461 -118t-201 -224z" />
<glyph unicode=":" horiz-adv-x="616" d="M131 54.5q0 25.5 19.5 55t51 65.5t86 62.5t111.5 26.5q84 0 84 -82q0 -74 -85 -144.5t-153.5 -70.5t-91 31t-22.5 56.5zM350 511q0 26 25.5 72t87 96t137.5 58q41 0 63.5 -18.5t24.5 -38.5l2 -18q0 -78 -75.5 -153t-155.5 -83q-57 0 -83 29.5t-26 55.5z" />
<glyph unicode=";" horiz-adv-x="567" d="M180 -182q0 12 17 26q113 123 114 183q0 14 -34.5 62t-34.5 69.5t5 42t35.5 54.5t98.5 34t117 -43t48 -131t-122 -205t-219 -117q-25 0 -25 25zM399 476.5q0 23.5 10.5 53t32 69.5t66.5 70.5t102 37.5q41 0 63.5 -19.5t24.5 -38.5l2 -18q0 -82 -58 -156t-134 -82 q-57 0 -83 30t-26 53.5z" />
<glyph unicode="&#x3c;" horiz-adv-x="1130" d="M80 629q0 39 142.5 119.5t315.5 162.5t243.5 114t119.5 52q102 45 143 64l21 8q61 0 61 -100q0 -59 -30 -91l-783 -366l645 -270q31 -23 31 -60q0 -63 -59 -63q-20 0 -33 6q-80 23 -350.5 137.5t-386.5 179.5h-10q-70 0 -70 107z" />
<glyph unicode="=" horiz-adv-x="1130" d="M43 508q0 27 10 47q31 33 594 33q117 0 224.5 -5t123 -5t39 -14.5t23.5 -48.5t-21 -54.5t-35 -20.5l-882 6q-31 0 -53.5 17.5t-22.5 44.5zM147 772q0 27 11 47q31 33 594 33q117 0 224 -5t122.5 -5t39 -14.5t23.5 -48.5t-20.5 -54t-34.5 -20l-883 6q-31 0 -53.5 17 t-22.5 44z" />
<glyph unicode="&#x3e;" horiz-adv-x="1130" d="M92 303q0 57 33 90l782 367l-645 270q-33 25 -33 57q0 66 60 66q18 0 66 -14.5t318.5 -129t387.5 -180.5h8q70 0 70 -106q0 -70 -555 -330q-399 -190 -430 -190q-61 0 -62 100z" />
<glyph unicode="?" horiz-adv-x="1024" d="M256 -3q0 -34 22.5 -64.5t91 -30.5t153.5 70.5t85 144.5q0 82 -84 82q-57 0 -111.5 -27t-84.5 -61q-72 -80 -72 -114zM369 299q0 92 84 183t190 153q344 197 449 297q-10 37 -56 37q-100 0 -209.5 -46t-181.5 -91.5t-82 -45.5q-57 2 -114.5 81t-57.5 147q0 133 169 254 t355 121q182 0 306 -136q68 -76 67 -180q0 -55 -47 -127t-115 -131q-150 -133 -252 -199l-47 -30q-195 -141 -194 -252q-53 -68 -158.5 -68t-105.5 33z" />
<glyph unicode="@" horiz-adv-x="1282" d="M223 293q0 139 59.5 265t157.5 200q201 154 453 153q203 0 347 -98t144 -276.5t-127 -327t-344 -148.5q-20 0 -41.5 16.5t-21.5 39t11 49.5t11 35t-5 8t-13 -8q-156 -115 -231 -115q-41 0 -67 30.5t-30 63.5l-4 31q0 123 161 268.5t361 145.5q55 0 103.5 -30t48.5 -68 t-76 -48q-55 -12 -188 -93t-133 -124q0 -18 24.5 -18t147.5 93t147.5 93t24.5 -28.5t-80 -113.5t-80 -124l12 -10q129 2 220.5 101t91.5 243.5t-69 217t-191.5 72.5t-278.5 -81.5t-263.5 -208.5t-107.5 -244q0 -180 114 -271.5t262.5 -91.5t265 55.5t163.5 147.5 q23 -57 23 -65q0 -78 -144.5 -138.5t-324.5 -60.5q-211 0 -363 96q-78 49 -124 138.5t-46 228.5z" />
<glyph unicode="A" horiz-adv-x="1146" d="M-2 335.5q0 147.5 82 313.5t218 300t302 240.5t346 165t322.5 58.5t217.5 -39t75 -121t-101.5 -182t-144.5 -100t-43 26q0 33 54 85.5t54 64.5q0 6 -10 6q-109 0 -327 -174t-395 -392t-177 -331q0 -35 25 -35q57 0 302.5 225.5t463.5 452.5q20 4 34.5 4t33 -11 t26.5 -23.5t6 -30t-26.5 -74.5t-56.5 -117.5t-78 -138.5t-77.5 -128t-70.5 -110q-41 -68 -41 -79t7 -11t11 2t22.5 15.5t43 30t37 26.5t28 10t27.5 -10t12 -25q0 -66 -151.5 -159t-210 -93t-94 31t-35.5 75t24 110l25 63q0 6 -4 6t-15 -6q-322 -256 -479 -256 q-121 0 -191.5 94t-70.5 241.5z" />
<glyph unicode="B" horiz-adv-x="1384" d="M-47 74q0 72 60.5 140.5t113.5 72.5q2 0 37 -8q96 -23 243.5 -23t347 53t339 128t139.5 136q0 74 -293 74q-111 0 -172 -12q-14 -2 -138 -145.5t-157 -184.5q-35 -31 -64.5 -31t-42 12.5t-12.5 22.5t8.5 24.5t55.5 78.5q129 174 129 185t-17.5 39t-17.5 48.5t31.5 32.5 t78 23.5t59.5 18.5t108.5 123.5t110.5 131t44 14.5q49 0 49 -39q0 -23 -40 -78t-40 -62t2 -9q53 0 252 102t250 143q20 8 21 27q0 41 -125 41q-190 0 -394 -45t-322 -93t-118 -71q1 -6 17 -6l120 18q29 0 31 -14q0 -39 -72.5 -69.5t-185.5 -30.5t-186.5 54t-73.5 151 q0 84 154 219q80 70 189.5 131t278.5 103t341 42t285.5 -40t168.5 -99q104 -113 105 -201q0 -49 -26 -95t-73 -75q-371 -213 -553 -270q-33 -14 -32 -25q0 -4 28 -8q160 0 303 -57q80 -33 129.5 -98.5t49.5 -169t-83 -199.5t-207 -157.5t-274 -104.5q-276 -76 -505 -76 q-123 0 -236 31q-219 59 -219 176z" />
<glyph unicode="C" horiz-adv-x="985" d="M74 379q0 207 86 382t219 290.5t297 197.5q313 158 610 158q356 0 356 -186q0 -117 -122.5 -250t-200.5 -133q-53 0 -53 30q0 37 28 70q100 100 122 129t22 41t-23 12q-74 0 -227.5 -102.5t-307 -245.5t-269 -311t-115.5 -283q0 -39 43 -39q63 0 269 153.5t222 153.5 q49 0 49 -47q0 -29 -66.5 -96t-162.5 -140t-227 -127t-256 -54t-209 95t-84 302z" />
<glyph unicode="D" horiz-adv-x="1658" d="M-20 198q0 83 82.5 159.5t166.5 76.5q16 0 130 -33.5t251.5 -33.5t357.5 66.5t403 159.5t311 196.5t128 171.5q0 96 -287.5 96t-585.5 -71t-368 -167q-2 -2 0 -2h6l140 21q37 0 37 -23q0 -37 -110 -68.5t-181 -31.5q-115 0 -185.5 69.5t-82.5 190.5q0 113 151.5 225.5 t389 182t435 69.5t329.5 -35t241.5 -106.5t172 -199.5t62.5 -300q0 -209 -229 -438q-123 -123 -296 -222.5t-437 -164t-574 -64.5q-78 0 -245 53q-86 29 -149.5 84.5t-63.5 138.5zM664 474.5q0 23.5 16 43.5q315 397 338 420q51 61 83 61t50 -17t18 -42t-36.5 -71 t-197.5 -236.5t-164 -192.5t-11 -10q-20 -20 -43 -20t-38 20.5t-15 44z" />
<glyph unicode="E" horiz-adv-x="1173" d="M-43 199q0 92 102.5 194.5t237.5 177t250 126t155 57.5q12 4 13 8q0 16 -25 20q-133 14 -141 17q-111 25 -156 97.5t-45 133.5q0 125 178.5 250t426 199.5t456.5 74.5q342 0 342 -192q0 -82 -63.5 -183.5t-136 -166t-107.5 -64.5q-14 0 -27.5 13.5t-13.5 35t40 66.5 t40 67.5t-51 22.5q-133 0 -431.5 -109.5t-300.5 -164.5q2 -15 54 -15h5q51 0 115 10q66 10 101 11q92 0 92 -49q0 -27 -30.5 -43.5t-52 -25.5t-60.5 -24.5t-64.5 -28t-75.5 -34.5l-82 -35q-82 -35 -142 -65.5t-102 -51t-71 -37t-55 -32.5q-49 -35 -49 -53q0 -41 65 -41 q139 0 305 51t282 101t132 50q72 -2 120 -71.5t48 -139.5q0 -98 -135 -206.5t-337 -179t-378 -70.5t-290.5 72.5t-137.5 226.5z" />
<glyph unicode="F" horiz-adv-x="606" d="M-219 463q0 45 61 67q219 84 490 150l98 25q158 178 158 190t-19 12q-2 0 -37 -8q-109 -25 -229.5 -25t-219.5 77t-99 168t169 211t222 120t53 -37q0 -18 -44 -56t-61.5 -45t-17.5 -17.5t14.5 -10.5t214 58.5t457.5 117t414 58.5q70 0 176.5 -63.5t106.5 -151.5 q0 -61 -425 -208t-526 -149q-14 0 -14 -14l12 -41q0 -18 -46 -69.5t-46 -60.5t13.5 -9t147.5 19.5t182 19.5t68.5 -30t20.5 -61.5t-63 -62.5q-31 -16 -447 -117l-135 -33l-369 -467l-14 -16q-45 -47 -70.5 -47t-46 11.5t-20.5 36t23.5 65.5t131 178t119 148.5t11.5 18.5 t-8.5 7t-139.5 -34t-166 -34t-51 17.5t-32.5 46t-16.5 45.5z" />
<glyph unicode="G" horiz-adv-x="1415" d="M74 311q0 176 72.5 337t194.5 282t277.5 218t323.5 159q346 127 633 127q174 0 276.5 -49.5t102.5 -143.5q0 -68 -121 -192.5t-191 -124.5q-39 0 -39 40q0 42 71 110q69 69 69 79t-12 10q-70 0 -207.5 -52t-299 -147.5t-309 -213t-246 -266t-98.5 -289.5q0 -59 58 -60 q92 0 223 73t133 103q-31 -2 -51 -2q-78 0 -134.5 42t-56.5 113t96.5 133t239 100t276.5 38t218 -47t84 -147q0 -51 -119 -98.5t-240 -75.5l-122 -29q-188 -205 -391 -293t-361 -88q-90 0 -158.5 33t-103.5 77t-56 99q-33 82 -32 145z" />
<glyph unicode="H" horiz-adv-x="1341" d="M51 213q0 131 215 413.5t458 509t327 226.5q49 0 81.5 -55.5t32.5 -92t-20.5 -83t-72.5 -132.5t-94 -149.5t-130 -198.5q225 47 317 62q219 250 298 333.5t173 178.5q186 184 283 184q18 0 29.5 -12.5t13.5 -36.5q-18 -82 -65.5 -151.5t-165 -212t-211.5 -271.5 q151 -53 151 -122q0 -28 -19.5 -44t-45 -17t-107.5 -4t-139 -8q-25 -2 -115 -132t-193.5 -260t-162 -130t-98 120t-50.5 241l-10 118q-406 -557 -520 -557q-51 0 -90 54q-70 98 -70 229zM817 442l27 -145q45 78 137 195q-4 0 -19.5 -2.5t-27.5 -3.5t-30.5 -4t-32 -6 t-27.5 -9q-27 -11 -27 -25z" />
<glyph unicode="I" horiz-adv-x="792" d="M25 145q0 117 109.5 284t270 325.5t328.5 300t298 227.5t167 86q59 0 118.5 -52t59.5 -101.5t-238.5 -368t-523 -624.5t-387.5 -306q-70 0 -136 74.5t-66 154.5z" />
<glyph unicode="J" horiz-adv-x="1380" d="M-182 -309q0 147 103.5 284.5t263 235.5t347.5 174q373 150 662 150q25 0 70 -5q297 322 297 428q0 49 -70 50q-96 0 -273.5 -62.5t-316.5 -143.5t-139 -126q0 -14 45 -14l160 20q55 0 55 -37q0 -41 -85 -67.5t-161 -26.5q-162 0 -281.5 77t-119.5 212q0 113 171 251 t416.5 233t426.5 95q366 0 366 -301q0 -203 -364 -641q131 -90 131 -158q0 -45 -43 -55q-201 -49 -404 -127q-301 -295 -594 -489.5t-473 -194.5q-76 0 -133 79t-57 159zM141 -412q0 -6 9 -6q47 0 199.5 111.5t350.5 288.5q-246 -117 -402.5 -225t-156.5 -169z" />
<glyph unicode="K" horiz-adv-x="1540" d="M51 264q0 74 151.5 275.5t354.5 408.5t429 366t357 159q78 0 93 -115v-4q0 -63 -127 -243.5t-199 -262.5q-18 -25 -18 -32t9 -7t44 10q152 49 362.5 166t340.5 203t147.5 100.5t17.5 19.5t-7 5t-104.5 -45t-118 -45t-58 21.5t-37.5 53.5q0 55 199.5 131t264.5 76 q145 0 146 -73q0 -90 -153.5 -216t-362.5 -235q-381 -199 -522 -256q-14 -8 -15 -20q285 -649 285 -742q0 -57 -54.5 -90t-154.5 -33t-190.5 63.5t-140.5 153.5t-84 180.5t-55.5 154t-32.5 63.5t-23.5 -11.5t-62.5 -63.5t-110.5 -112.5t-129.5 -124.5q-157 -150 -226 -150 t-142 99q-73 98 -73 172z" />
<glyph unicode="L" horiz-adv-x="1642" d="M-215 29q0 213 224 357t696 144q90 0 202 -8q41 47 119 142q-88 4 -147.5 38.5t-81.5 126.5q0 61 63 62q190 0 406 51q213 236 398 365t378 131q156 -14 156 -135q0 -150 -156 -293.5t-393.5 -235.5t-479.5 -108q-86 -103 -131 -156q240 -29 420 -117q96 -47 152.5 -127 t56.5 -182q0 -61 -47 -68q-18 -4 -113.5 -4t-381 32t-494.5 36q-328 -293 -592 -293q-111 0 -182.5 72.5t-71.5 169.5zM0 -86q0 -10 18 -10q207 0 439 170q-178 -12 -317.5 -50t-139.5 -110zM1456 995q217 72 362.5 162t145.5 162q0 8 -12 8q-188 0 -496 -332z" />
<glyph unicode="M" horiz-adv-x="1683" d="M-221 101.5q0 97.5 107.5 303t179.5 205.5q53 0 53 -53q0 -18 -81 -139t-81 -139.5t12.5 -18.5t69.5 49t197.5 174t265.5 233.5t328.5 323.5t326.5 348.5t141 133.5q61 0 126 -106.5t65 -149.5t-82 -222l-82 -180q0 -8 5 -8t497.5 365.5t548.5 365.5q41 0 79.5 -43 t38.5 -87t-229 -322.5t-459.5 -553t-230.5 -313.5q0 -6 10 -6t47 32t62 32q43 0 43 -40t-100.5 -128t-255 -168t-265 -80t-152.5 48t-42 120q0 115 154.5 315.5t275.5 292.5q10 10 10 15.5t-6 5.5q-20 0 -217 -175q-586 -518 -666 -518q-29 0 -67.5 45t-38.5 70 q0 104 198 420q66 102 66 106l-6 4q-4 0 -11 -6l-198 -194q-465 -455 -580 -455q-57 0 -57 97.5z" />
<glyph unicode="N" horiz-adv-x="1116" d="M-238 176q0 98 80 280.5t148 182.5q45 0 45 -39q0 -31 -60.5 -149.5t-60.5 -134t8 -15.5q18 0 141 113.5t236 228.5l115 113q152 141 479 504q98 109 200.5 192.5t166 83.5t100.5 -82t37 -147.5t-59.5 -217t-118 -277.5t-58.5 -137t6 -11q16 0 35 21.5t219 240.5 q469 512 633 573q53 23 84 23t62.5 -21.5t31.5 -41t-18 -36.5l-35 -26q-332 -256 -668 -617q-55 -61 -148 -163.5t-150.5 -166t-137.5 -147.5t-134 -134t-114 -99q-111 -94 -179 -94l-1 -1q-68 -1 -139 97q-72 98 -72 159.5t119 314.5t227 359q27 27 27 42.5t-17.5 15.5 t-34 -19.5t-91 -106.5t-130 -149.5t-144.5 -162t-161.5 -169t-150.5 -139.5q-160 -143 -246 -143q-72 4 -72 102z" />
<glyph unicode="O" horiz-adv-x="1134" d="M74 334q0 184 93 361t240.5 311.5t323.5 239t349 158.5t314.5 54t202.5 -106h13q52 31 99 31q1 -1 2 -1q48 0 72.5 -32.5t24.5 -89t-69.5 -183.5t-182 -272.5t-266 -296t-311.5 -272t-325 -198.5t-290.5 -77t-206.5 94.5t-83 278.5zM575 256q0 -74 62 -74 q106 0 339.5 199t426 442.5t194.5 360.5q0 18 -16 18q-43 0 -166 -139t-139 -189q-2 -2 -7 -10t-12 -16q-12 -18 -40.5 -18.5t-47 17t-18.5 44.5t58.5 115t58.5 94t-6 6q-45 0 -212 -163t-321 -373t-154 -314z" />
<glyph unicode="P" horiz-adv-x="1015" d="M-14 877q0 156 194.5 304t477 235t544.5 87t423 -100t161 -309q0 -76 -62.5 -165t-175 -174t-296 -151.5t-398.5 -89.5q-205 -246 -304 -363.5t-118.5 -142t-50.5 -24.5t-46.5 21.5t-15.5 43t13 37.5q170 203 346 416h-49q-35 0 -67 18.5t-32 56t27.5 56t60.5 18.5 l113 -6q43 0 68 2q55 68 127 156q137 164 149 180q49 70 92 70q23 0 41.5 -14.5t18.5 -42t-242 -324.5q260 51 467 161.5t207 233.5q0 51 -212 51t-474 -55t-452.5 -135t-190.5 -140q0 -6 15 -6t87 26t96.5 26t30.5 -17q0 -51 -113.5 -107.5t-222 -56.5t-173 53.5 t-64.5 170.5z" />
<glyph unicode="Q" horiz-adv-x="1648" d="M-129 115q0 111 64.5 194.5t179.5 132.5q221 96 523 96q3 1 5 1q299 0 565 -58q205 154 338 297.5t135 216.5q0 35 -94 35q-193 0 -536.5 -103.5t-343.5 -170.5q0 -8 23.5 -8t119.5 23.5t108 23.5q47 0 54 -27q0 -45 -102 -74q-98 -29 -214 -29h-8q-121 1 -214 53 t-93 140q0 145 149.5 272t364.5 197t431 70t356.5 -86t140.5 -262q0 -121 -130 -280t-345 -320q242 -66 390 -164t148 -209q0 -80 -166 -80q-47 0 -423.5 46t-508.5 60q-391 -188 -616 -188q-141 0 -238 76q-63 49 -63 125zM123 18q0 -8 24 -8q191 0 453 113q-111 8 -154 8 t-129 -22.5t-140 -49t-54 -41.5z" />
<glyph unicode="R" horiz-adv-x="1523" d="M-14 928q0 154 168 278.5t413.5 188t479 63.5t396.5 -42t269.5 -138t106.5 -236q0 -94 -112 -185t-258 -147.5t-288 -78.5q-37 -12 -37 -25q0 -16 239 -299.5t239 -337t-62.5 -97.5t-139.5 -44t-138.5 19.5t-120 60.5t-103.5 78t-99 101.5t-81 96.5q-92 119 -135 183 q-238 -293 -257.5 -310.5t-29.5 -27t-16 -15.5q-16 -16 -41 -16t-53 51q10 27 116.5 180.5t161.5 212.5q27 39 27 49.5t-25 26.5q-41 33 -41 71t58 48l161 31q188 244 227.5 282.5t78 38.5t38.5 -37q0 -27 -43 -84l-114 -161q18 0 179 40.5t335 112.5t174 133q0 90 -254 90 q-188 0 -449.5 -47t-451 -113.5t-189.5 -115.5q1 -4 11 -4l270 28q18 0 35.5 -10t17.5 -26.5t-39 -32.5q-172 -68 -303 -68t-226 58.5t-95 175.5z" />
<glyph unicode="S" horiz-adv-x="1333" d="M20 395q68 -59 297 -59q168 10 309.5 48t221.5 84t125 88t51 71q-4 39 -90 39l-432 8q-125 2 -207 67.5t-82 165.5q0 137 201.5 273.5t479 215.5t478.5 79q397 0 397 -203q0 -66 -140 -244t-210 -178q-14 0 -27.5 13.5t-13.5 34t50.5 74.5t50.5 79q0 18 -47 18 q-127 0 -401.5 -95t-274.5 -151q0 -23 45 -27.5t159.5 -8t200.5 -15.5t140.5 -35.5t84 -50.5t48.5 -61q27 -55 26 -111q0 -147 -201.5 -296.5t-485.5 -240t-505 -90.5q-458 0 -458 288q0 134 210 220z" />
<glyph unicode="T" horiz-adv-x="389" d="M-156 -63q0 74 98.5 220t196.5 257l101 108q152 172 354 375q29 27 39 33q-256 -60 -379 -60h-2q-122 0 -220 77q-100 77 -100 168t169 211t222.5 120t53.5 -37q0 -18 -44 -56t-61.5 -45.5t-17.5 -17.5t14.5 -10t214 58.5t457.5 116.5t414 58q70 0 176 -63.5t106 -151.5 q0 -61 -421.5 -206.5t-526.5 -149.5q61 -8 62 -51q0 -27 -56.5 -93.5t-267.5 -322.5q-10 -16 -211 -275t-215 -274q-55 -55 -80.5 -55t-50.5 17.5t-25 48.5z" />
<glyph unicode="U" horiz-adv-x="1351" d="M-33 262q0 86 80 208t204 244t242.5 227.5t231.5 197.5t129 107.5t16 22.5t-17 7t-106.5 -49t-116 -49t-32.5 28q0 59 108.5 121t239.5 98.5t210 36.5t130 -45t51 -112q0 -141 -139 -301q-242 -270 -245 -273.5t-3 -11.5q0 -20 19 -21q10 0 18 7.5t225 168.5 q616 463 662.5 503t86.5 40t62.5 -17.5t22.5 -55t-55 -105.5q-2 -2 -160 -178t-295 -332q-465 -532 -465 -588q0 -12 11.5 -12t21.5 5t111.5 70.5t129 65.5t27.5 -22q0 -51 -92 -121t-211 -120t-192 -50q-147 0 -166 162q6 121 180 348q14 14 14 23.5t-6 9.5 q-25 0 -179.5 -117t-331.5 -233.5t-256 -116.5t-122 71.5t-43 157.5z" />
<glyph unicode="V" horiz-adv-x="897" d="M-20 260q0 176 94 367.5t239.5 345t311.5 280.5t318.5 197t248.5 70q37 0 81 -29t44 -67t-76 -141t-183.5 -234t-216 -270.5t-184 -274.5t-75.5 -219q0 -33 32 -33q61 0 188.5 124t282 301t321.5 354t344 301t312 124q39 0 82 -21.5t43 -47t-22.5 -40t-76.5 -41 t-130 -68.5t-199 -131t-266 -210q-342 -289 -780 -782q-176 -197 -475 -197h-2q-90 0 -171 113.5t-85 228.5z" />
<glyph unicode="W" horiz-adv-x="1384" d="M-88 252q0 139 120 357t280.5 409.5t331.5 331t265 139.5q41 -8 79 -62.5t38 -101.5q0 -117 -342 -594q-18 -27 -18 -34t6 -7l12 4q147 106 446 412q145 150 236 235q57 51 86 56q74 0 134.5 -60.5t60.5 -144.5q0 -39 -50 -137q-70 -137 -217 -367l-59 -88 q-10 -14 -10 -22.5t4 -8.5q8 0 55 47.5t231.5 212t341 302t164.5 145.5q119 119 222 119q43 0 89 -44t46 -79q0 -43 -97.5 -87t-449.5 -321q-72 -57 -360.5 -319t-517 -446.5t-303 -184.5t-120 82t-45.5 165t138 326q20 33 20 43.5t-2 10.5q-8 0 -24.5 -15.5t-145.5 -144.5 q-371 -371 -422 -377q-68 14 -145.5 93t-77.5 155z" />
<glyph unicode="X" horiz-adv-x="1239" d="M-150 119q0 182 209 400t531 431l-232 396q-10 31 -10 54t20.5 49t57.5 26q51 0 92 -91q6 -18 201 -352q227 141 433 240.5t251 99.5q23 0 69 -11t74.5 -25.5t52 -45t23.5 -70.5t-33 -88.5t-102.5 -113t-138 -119.5t-184 -147.5t-195.5 -157.5q162 -281 190.5 -323 t44.5 -70q53 -86 53 -125t-14 -53.5t-41 -18.5q-88 0 -225 277q-41 68 -123 213q-74 -63 -189.5 -171t-184 -168.5t-152.5 -127.5q-164 -129 -273 -129q-70 0 -137.5 78.5t-67.5 142.5z" />
<glyph unicode="Y" horiz-adv-x="1114" d="M-49 270.5q0 73.5 29 135.5q35 80 362.5 383t372.5 387q4 8 4 12t-11.5 4t-19.5 -6t-49 -31t-82 -49q-117 -66 -134 -66t-32.5 15.5t-15.5 38.5q0 53 91 124.5t226 126t248 54.5q231 0 231 -232q0 -41 -18 -86t-39 -69l-18 -23q-123 -150 -318.5 -350.5t-199.5 -206.5 l-3 -14q0 -18 12.5 -18.5t47.5 20t216 144.5t472 354.5t479 429.5q30 30 66 30h2q61 0 61 -71q0 -45 -71 -127q-27 -31 -67 -76t-51 -57.5t-108.5 -123t-206 -233.5t-255 -291t-271.5 -311q-270 -313 -353 -427t-125 -177.5t-65.5 -102t-46.5 -73.5q-41 -61 -79 -62h-1 q-38 0 -73 60q-35 59 -35 104q0 90 108 238q61 84 360.5 416.5t366.5 396.5q12 14 12.5 20t-8 6t-35 -18t-100 -67.5t-128 -84t-143.5 -88t-157 -86.5q-170 -86 -259 -86t-139 70t-50 143.5z" />
<glyph unicode="Z" horiz-adv-x="1212" d="M-143 181q0 89 192.5 222.5t422.5 245t422.5 203.5t192.5 102q0 7 -10 7q-12 0 -129 -31q-356 -92 -514 -92q-104 0 -163.5 54t-59.5 139t196.5 255t303.5 170q43 0 43 -33q0 -27 -14.5 -41t-39.5 -30q-66 -47 -65 -58q0 -14 56.5 -14t268 44t304 44t166 -16.5t133 -64.5 t59.5 -120q0 -41 -37 -77.5t-74.5 -58t-116.5 -56.5t-479.5 -241t-479.5 -249t-79 -55q0 -8 29 -8q37 0 58.5 7t23.5 7q143 31 250.5 31t212 -42t168 -102.5t100.5 -122t37 -104.5q0 -53 -92 -53l-152 10q-145 0 -448 -45t-410.5 -45t-191.5 64.5t-84 153.5z" />
<glyph unicode="[" horiz-adv-x="874" d="M121 -131q0 98 69.5 372.5t140 606.5t70.5 588q0 72 36 111.5t89 39.5q109 0 243 -57t134 -107q0 -37 -33 -37l-184 9h-2l-322 -1549q2 -8 13.5 -8t91.5 44t96 44q27 -12 27 -30q0 -53 -126 -117t-235 -64q-53 0 -80.5 28t-27.5 126z" />
<glyph unicode="\" horiz-adv-x="765" d="M289 1634q0 47 47 47q68 0 78 -114l264 -1839q0 -27 -16.5 -51.5t-45 -24.5t-46 25.5t-19.5 41.5q-47 283 -154.5 1028.5t-107.5 886.5z" />
<glyph unicode="]" horiz-adv-x="874" d="M72 -121q0 37 32 37l185 -8h2l321 1548q-2 8 -13 8t-91 -44t-96 -44q-27 12 -27 31q0 53 126 116.5t234 63.5q51 0 87 -37t36 -111.5t-73 -348.5q-221 -827 -222 -1223q0 -72 -35.5 -112t-88.5 -40q-109 0 -243 57.5t-134 106.5z" />
<glyph unicode="^" d="M92 674q0 43 75 125t202 153.5t245 71.5q31 0 70 -164t39 -261t-42 -97t-71.5 64.5t-52 167t-22.5 104.5q-115 -33 -381 -174q-23 -8 -42.5 -8.5t-19.5 18.5z" />
<glyph unicode="_" horiz-adv-x="1130" d="M10 -102.5q0 26.5 10 47.5q31 32 594 32l418 -2q27 0 50.5 -14t23.5 -48t-20.5 -54.5t-34.5 -20.5l-965 -2q-31 0 -53.5 17.5t-22.5 44z" />
<glyph unicode="`" d="M123 944q0 35 25.5 63.5t64.5 28.5q98 0 227 -129t129 -219q-2 -12 -22 -22q-125 102 -187 122q-72 14 -129 43q-109 57 -108 113z" />
<glyph unicode="a" d="M78 139q0 68 52 157t137 170t209 136t253 55q70 0 130.5 -36.5t60.5 -86t-97 -59.5q-72 -16 -236.5 -117.5t-164.5 -154.5q0 -23 22 -23q41 0 194 117t183.5 117t30.5 -37q0 -27 -19.5 -50.5t-27.5 -33.5q-16 -20 -84 -91t-68 -120q0 -10 15 -14q14 0 99 58t96 64.5 t22 6.5q29 0 28.5 -28t-144.5 -122t-204 -94q-25 0 -52.5 20.5t-27.5 48t14.5 60.5t14.5 44t-6 11t-12 -4q-198 -149 -292 -149h-1q-53 0 -84 38.5t-37 77.5z" />
<glyph unicode="b" horiz-adv-x="720" d="M333 604q265 309 556 560t373 251q23 0 33 -51t10 -102q0 -35 -153 -189.5t-305.5 -312.5t-152.5 -201l86 8q29 0 29 -32q0 -14 -35 -136q48 -23 107 -23h3q60 0 95 56q20 0 20 -20q-2 -41 -51 -65.5t-100 -24.5t-96 10q-2 -94 -188.5 -227.5t-334.5 -133.5 q-161 0 -161 187q0 137 265 446zM332 113q0 -8 8 -9q98 0 207.5 89.5t109.5 173.5q-10 10 -18 16t-13 13t-8 14q-6 18 -6 41v22h-1q-25 0 -151 -169q-128 -171 -128 -191z" />
<glyph unicode="c" horiz-adv-x="675" d="M14 117q0 123 109.5 253t254 211t246 81t152.5 -26t51 -95.5t-89 -160.5t-152 -91q-41 0 -41 24q0 16 20 29q23 12 72 57t49 62q0 6 -12 6q-72 0 -203 -131t-131 -197q0 -33 36 -33t115.5 42t196.5 114t134.5 81t27.5 9q29 1 29 -28q-2 -20 -133.5 -107.5t-303.5 -169.5 t-246.5 -82t-128 46t-53.5 106z" />
<glyph unicode="d" horiz-adv-x="921" d="M90 166q0 133 116 262t261 200.5t254 71.5q68 0 102.5 -16t38.5 -16h4q4 0 4 2q182 221 441.5 478t337.5 257q33 -4 60.5 -53t29.5 -107q-12 -45 -342 -382t-370 -396t-212 -294.5t-192.5 -255t-53 -19.5t-71.5 39.5t-39 78.5t12 82l12 41q0 8 -9 8t-106.5 -54 t-154.5 -54t-90 41t-33 86zM416 248q0 -18 16 -19q55 0 164 105.5t109 132.5q-1 14 -21 14q-45 0 -156.5 -100t-111.5 -133z" />
<glyph unicode="e" horiz-adv-x="733" d="M84 115q0 43 58.5 94t116.5 88t58 46t-28 22q-86 37 -86 98q0 115 191.5 218t355.5 103q90 0 149 -33.5t59 -102t-95 -128t-136 -59.5q-16 0 -29.5 8t-13.5 18.5t56.5 33.5t56.5 44q0 10 -30 10t-193.5 -64.5t-163.5 -90.5q0 -23 59 -23l100 11q70 0 70 -70 q0 -37 -67.5 -82t-136 -83t-68.5 -58q0 -14 32 -19q72 0 272.5 115t215.5 115q29 0 28 -29q-2 -20 -130 -101t-299 -156t-261 -75q-141 0 -141 150z" />
<glyph unicode="f" horiz-adv-x="526" d="M-430 -450.5q0 53.5 24 104.5q63 145 687 815q39 41 376.5 435t354 413.5t43 45.5t70.5 56.5t71 30.5q39 0 39 -64q0 -117 -80 -276q-27 -51 -314.5 -391t-293.5 -347t-6 -16.5t8 -9.5q35 0 186.5 94.5t157.5 94.5q29 0 29 -29q0 -20 -106.5 -89t-213.5 -126l-108 -60 q16 -41 16 -100q0 -121 -99.5 -254t-236.5 -229.5t-278.5 -159.5t-225.5 -63q-47 0 -73.5 35.5t-26.5 89zM-43 -338q0 -18 28.5 -18t94 44t140.5 113.5t133.5 171t58.5 199.5q-1 21 -15 21q-18 0 -229 -248t-211 -283z" />
<glyph unicode="g" horiz-adv-x="729" d="M-188 -610.5q0 28.5 2 35.5q20 74 264 251q100 72 198.5 149t166 164t67.5 163q0 4 -14.5 4t-65.5 -33q-123 -76 -198.5 -76t-114.5 53.5t-39 96.5t26.5 98t83 122.5t130 127t181 99.5t224.5 40q49 0 112.5 -36t63.5 -87q0 -35 -57 -49q-156 -43 -306.5 -132t-150.5 -165 q0 -20 18 -20q66 0 239 141t179 141q29 0 29 -39q0 -90 -92 -282.5t-226.5 -390t-310.5 -347t-323 -149.5q-23 0 -54.5 46t-31.5 74.5z" />
<glyph unicode="h" horiz-adv-x="999" d="M63 119q0 152 237 461t495 551.5t329 242.5q35 0 67 -29.5t32 -80t-123 -222.5t-275 -362q-190 -238 -190 -258q0 -8 8 -8t69.5 33.5t133.5 63.5t99.5 35t65.5 5t75.5 -16.5t37.5 -48t-148.5 -202.5t-148.5 -194.5t21 -23.5q43 0 168 90q47 33 55 37t19 4q29 0 28 -29 q0 -16 -72.5 -71.5t-174 -106.5t-170 -51t-109.5 40.5t-41 100.5q0 98 141 264q12 12 12.5 19.5t-4 7.5t-30 -9.5t-140 -94.5t-223 -180t-155 -95t-68 39t-21.5 88z" />
<glyph unicode="i" horiz-adv-x="466" d="M23 51q0 -45 30.5 -74.5t79.5 -29.5t168 118.5t211 247.5t92 164q0 109 -92 109q-147 -27 -318 -209t-171 -326zM559 748q10 98 88 149t135 51q84 0 84 -84q0 -53 -63.5 -128t-161.5 -85q-35 0 -55.5 24.5t-24.5 49.5z" />
<glyph unicode="j" horiz-adv-x="526" d="M-479 -428q0 55 41 140t110 147q20 16 37 16t27 -8t10 -19.5t-54 -105.5t-54 -123q0 -6 4 -6q33 0 361.5 386t328.5 425q0 16 -17 16q-10 0 -44.5 -16t-49 -16t-31 12t-16.5 29q0 25 105.5 80t209.5 98l105 43q35 0 61.5 -39t26.5 -61.5t-43 -111.5t-113.5 -216 t-168 -270.5t-200 -265.5t-217 -201.5t-210.5 -79.5q-45 0 -86 9t-82 46t-41 92zM629 843q0 42 74 131t174 89q78 0 78 -86q0 -88 -79 -166t-142.5 -78t-84 34t-20.5 76z" />
<glyph unicode="k" horiz-adv-x="905" d="M57 156q0 90 148.5 294.5t342 404.5t392.5 353.5t289 153.5q29 0 47 -44t18 -74.5t-18 -61.5l-502 -572q0 -12 12.5 -12t81 25.5t113.5 25.5q86 0 86 -84q0 -127 -358 -278q0 -16 130 -170t130 -191q0 -82 -136.5 -82t-257 121t-120.5 252q0 20 -7.5 20.5t-18.5 -11 t-48 -51.5t-66 -69q-82 -86 -127 -86t-88 39t-43 97zM549 337q0 -9 20 -9q70 0 203 62.5t133 119.5q0 27 -37 27t-118.5 -47.5t-141 -95.5t-59.5 -57z" />
<glyph unicode="l" horiz-adv-x="675" d="M61 199q0 186 200 430.5t468 417t457 172.5q82 0 118.5 -47.5t36.5 -88.5q0 -82 -101 -190.5t-238.5 -201.5t-269.5 -164t-202 -91q-157 -212 -157 -290q0 -28 26 -27q72 0 272.5 114.5t215.5 114.5q29 0 28 -24v-5q-2 -12 -114.5 -89.5t-280.5 -157.5t-280 -80 q-178 0 -179 207zM668 601.5q0 -9.5 18 -9.5q82 0 291 194.5t209 260.5q0 8 -8 8q-33 0 -157 -106.5t-230 -215.5l-107 -106q-16 -16 -16 -25.5z" />
<glyph unicode="m" horiz-adv-x="1273" d="M27 126q0 50 45 121.5t108 133.5q135 125 240 192l45 31q33 14 68.5 14t64.5 -23.5t29 -54t-10.5 -55t-22.5 -39.5q-33 -47 -39 -54t-6 -14t9 -7t85 59q225 184 324 184q39 0 66.5 -23.5t27.5 -52t-12.5 -50t-34.5 -48.5q-37 -43 -37 -52t15.5 -9t132 94t161.5 94 t70.5 -35.5t25.5 -72.5t-104 -169t-104 -150.5t14 -18.5q12 2 28.5 12t30.5 10q27 0 27 -22q0 -68 -76 -118t-154 -50q-163 0 -163 141q0 31 17 74t36 61q6 12 6 17.5t-7 5.5t-17.5 -5t-88.5 -75q-213 -190 -292 -190q-43 0 -66 31.5t-23 66.5q0 63 62 139q6 10 6 19.5 t-8 9.5t-19 -8q-283 -229 -368 -230q-39 0 -65.5 33t-26.5 83z" />
<glyph unicode="n" horiz-adv-x="933" d="M41 143q0 82 231.5 300.5t313.5 218.5q31 -4 53.5 -35t22.5 -73t-31 -91q-45 -72 -73 -99.5t-28 -34.5t6.5 -7t17.5 7t194.5 126.5t206 133t49 13.5t69.5 -25.5t43 -68.5t-74.5 -127t-150.5 -162t-76 -110q0 -17 23 -17l63 25q29 0 29 -23q0 -53 -87 -101t-166 -48 t-122 33.5t-43 103.5t80 172q10 10 10 17.5t-8 7.5t-14.5 -4.5t-87.5 -55.5q-197 -125 -281 -174q-35 -18 -65.5 -18t-67.5 38.5t-37 77.5z" />
<glyph unicode="o" horiz-adv-x="684" d="M68 156q0 145 95 271t216 189.5t219 63.5q166 -18 166 -100q0 -23 -11.5 -40.5t-18.5 -20.5t-17 -5q-25 -6 -25 -29q0 -55 66 -55q61 0 135 31t80 31t13 -10.5t7 -20.5q0 -23 -95 -58.5t-138 -35.5t-60.5 1t-27.5 -22q-152 -285 -301 -358q-66 -33 -138.5 -33t-118.5 48 t-46 153zM334 142q0 -48 26 -48q41 0 151 126t110 208q0 12 -15.5 12t-81 -49t-128 -125t-62.5 -124z" />
<glyph unicode="p" horiz-adv-x="841" d="M-373 -602q0 98 97.5 280.5t234.5 374.5q295 406 512 660l96 112q31 29 61.5 29t45 -22.5t14.5 -40t-23.5 -77t-56.5 -136t-36 -84t-3 -15.5t13.5 -8t64.5 45q158 135 238 135q145 0 145 -147q-10 -76 -92 -197t-206 -220t-228 -99q-45 0 -78 22.5t-49.5 45t-21.5 22.5 t-12 -10.5t-398 -655.5q-102 -162 -201 -162q-51 0 -84 46.5t-33 101.5zM406 152q0 -4 8 -5q78 0 233.5 146.5t155.5 206.5q-1 12 -17 12q-51 0 -215.5 -159.5t-164.5 -200.5z" />
<glyph unicode="q" horiz-adv-x="772" d="M-176 -641q0 50 62 139q65 92 121 154.5t139 137.5t147 128q160 131 188 150q20 14 20.5 21t-7 7t-117 -59.5t-163.5 -59.5t-107.5 46.5t-53.5 103.5q0 92 72 182t175 150.5t213 97.5t192.5 37t136 -50t53.5 -88t-176 -71q-76 -14 -212 -98t-136 -131q0 -20 20 -21 q74 0 344 176q14 8 31 23q31 27 44 26.5t23.5 -15.5t10.5 -30.5t-19.5 -37t-236.5 -278.5t-236.5 -278.5t-118.5 -150.5q-109 -142 -109 -149v-1q1 -6 11 -6t67.5 36t71.5 38q31 -2 31 -27q0 -55 -139 -145t-200.5 -90t-100.5 40q-41 42 -41 93z" />
<glyph unicode="r" horiz-adv-x="604" d="M150 418q0 76 131 198.5t215 147.5q14 0 26.5 -13.5t12.5 -31t-21 -43.5q-80 -98 -105.5 -124t-25.5 -34t13.5 -8t109.5 36t127 36t63.5 -26t32.5 -65.5t-125 -182t-125 -185.5q0 -8 6 -8q10 0 37 13t33 13q23 0 23 -16q0 -63 -100.5 -127t-169 -64t-111.5 38t-43 101.5 t62.5 142.5t129 111.5t66.5 53.5q0 6 -2 8q-90 -37 -148 -37q-113 0 -112 66z" />
<glyph unicode="s" horiz-adv-x="657" d="M61 119q0 49 129 71q57 8 151.5 38t94.5 57q0 16 -14 16q-86 0 -156.5 39t-70.5 119q0 104 147 180t305 76q97 0 159 -36q61 -35 61 -104q-1 -71 -107 -129q-106 -56 -140 -56.5t-34 14t13 21.5t58 27.5t65.5 34t20.5 21.5t-18 8q-68 0 -212 -48t-144 -79q0 -18 82 -18 q202 0 202 -160q0 -74 -86 -132.5t-176 -83t-144 -24.5t-120 49.5t-66 98.5z" />
<glyph unicode="t" horiz-adv-x="544" d="M70 121q0 180 501 653h-315q-78 0 -78 51q0 33 176 59t377 38q168 152 303 258l45 37q31 0 31 -46l4 -100q-6 -23 -86 -141h100q227 0 263 -44t36 -71q0 -35 -69.5 -37t-435.5 -2q-293 -301 -459 -534q-63 -86 -110.5 -154t-73 -95.5t-48.5 -27.5q-68 0 -114.5 45 t-46.5 111z" />
<glyph unicode="u" horiz-adv-x="927" d="M70 131q0 86 61.5 176t141 151.5t148 100.5t93.5 39t61.5 -35t36.5 -66.5t-22 -50.5q-152 -133 -152 -184q0 -27 25 -26q59 0 169.5 97t180.5 177q55 57 96 57t81 -29.5t40 -53t-10 -41t-82 -108.5t-91.5 -115.5t-19.5 -41t8.5 -16.5t15.5 1t51 31.5t93 67.5q64 47 82 47 q29 0 29 -30.5t-90 -107.5t-214 -142.5t-204 -65.5q-100 0 -100 109q0 27 20.5 58.5t20.5 35.5q0 12 -14.5 12t-19.5 -2t-71 -41q-186 -115 -237.5 -115t-89 34t-37.5 77z" />
<glyph unicode="v" horiz-adv-x="614" d="M-4 27.5q0 33.5 58.5 179t151.5 286t167 140.5q47 0 85 -44q37 -43 37 -71q1 -29 -61 -135q-60 -104 -60.5 -124.5t8.5 -20.5t24.5 13t72 68.5t122 117t140.5 126.5q176 152 242 152q25 0 46.5 -30t21.5 -44t-11 -16q-113 -20 -340 -211q-209 -176 -353 -311.5t-176 -163 t-70 -27.5t-71.5 41t-33.5 74.5z" />
<glyph unicode="w" horiz-adv-x="1126" d="M53 147q0 76 114 219.5t255 258t213 114.5q41 -3 41 -32l-10 -48q0 -4 11 -27.5t10 -44t-70.5 -96t-69.5 -88t4 -12.5q23 0 246 168q51 39 111.5 39t60.5 -57q0 -90 -121 -271q-18 -29 -25.5 -39t-7.5 -19t6 -9t24.5 11t259.5 225t300 257t86 43t44 -11t17 -31.5 t-57 -56.5t-211 -167t-303.5 -264t-169.5 -150q-127 -106 -221 -106q-53 0 -83 31.5t-30 88t51.5 138.5t51.5 90t-7 8q-16 -6 -75 -47q-172 -119 -252 -170t-106.5 -51t-56.5 39t-30 67z" />
<glyph unicode="x" horiz-adv-x="706" d="M-23 61q0 172 361 414q-86 158 -86 211q0 10 11 29.5t18.5 19.5t9.5 -8q23 -59 117 -209q121 76 230.5 130t123.5 54t21.5 -1t26.5 -5t33.5 -12t27 -23.5t12.5 -36t-16.5 -45t-53.5 -58.5t-72 -62q-123 -100 -194 -158q170 -266 170 -299q0 -23 -29 -27q-51 12 -211 265 q-33 -29 -92 -84.5t-92 -84t-76 -63.5q-80 -61 -125 -61t-80 41t-35 73z" />
<glyph unicode="y" horiz-adv-x="749" d="M23 -472q0 42 6 78t38.5 93t86 123.5t95.5 117t96 110t61.5 68.5t7.5 15t-5.5 6t-94.5 -49t-145 -49t-84 55t-28 90q0 86 107.5 201t219.5 189.5t140.5 74.5t44 -41t15.5 -70.5t-3 -40t-6.5 -14.5t-10.5 -10t-14 -13t-68.5 -78t-68.5 -82t-7 -28.5t14 -17.5t24 8 q76 47 347 268q55 39 73.5 39t38 -17t19.5 -28q0 -59 -128 -242.5t-316.5 -428t-250 -336.5t-118.5 -92q-29 0 -57.5 29.5t-28.5 71.5z" />
<glyph unicode="z" horiz-adv-x="673" d="M41 55q0 47 121 136.5t176 119t109.5 68.5t54.5 51t-5 12t-60.5 -16t-98.5 -16t-85 32.5t-42 91t109.5 149.5t177.5 91q25 0 24 -26q0 -14 -26 -33q-100 -59 -101 -70.5t18 -11.5t117.5 29.5t138.5 29.5t76.5 -20.5t36.5 -57t-45 -79.5t-116.5 -100.5t-131 -103.5 t-65.5 -53.5t-6 -17.5t16 -10q92 14 107 14q57 0 120.5 -39t63.5 -94q0 -29 -23.5 -49.5t-86 -24.5t-236.5 -54t-205 -50t-82 37t-51 65z" />
<glyph unicode="{" horiz-adv-x="874" d="M72 -154.5q0 66.5 47 138t102 131t102.5 143.5t47.5 170t-74 123q-104 47 -104 102.5t46 91t100 53t100 74t46 176t-71 320.5q-12 27 -12.5 83t35.5 96t89 40q100 0 225.5 -87t125.5 -142q0 -37 -33 -37q-14 0 -81 37t-77 37h-2q0 -18 22.5 -170t22.5 -250t-21.5 -167 t-54 -96.5t-65.5 -41t-59.5 -20.5t-30.5 -17q0 -10 31.5 -35t64.5 -72t33 -119.5t-51.5 -185t-131 -242t-82.5 -133.5q2 -8 13.5 -8t91.5 44t96 44q27 -12 27 -30q0 -53 -126 -117t-235 -64q-61 0 -109 32t-48 98.5z" />
<glyph unicode="|" horiz-adv-x="407" d="M116.5 -249q0.5 34 43.5 220q186 828 338 1594h10q29 -6 62.5 -33t33.5 -37l-362 -1735q-4 -37 -29 -50t-40 -13t-28 6q-29 14 -28.5 48z" />
<glyph unicode="}" horiz-adv-x="946" d="M94 -8q0 35 37 35q14 0 72.5 -81t70.5 -81q4 0 7 4q0 20 -17.5 170.5t-17.5 253t25.5 173.5t61.5 98.5t71.5 39.5t61.5 18.5t26 14.5t-31 31.5t-61.5 69.5t-30.5 101.5t21.5 120t62.5 138t70.5 122t75.5 118t48 71.5q-4 4 -31 4l-135 -6q-10 0 -20 9t-10 24 q4 49 101 73.5t224 24.5q164 -12 164 -139q-2 -37 -17.5 -70t-41.5 -61q-246 -250 -246 -420q0 -57 73.5 -146.5t73.5 -148.5q0 -74 -141 -74q-68 0 -109 -57q-45 -66 -45 -184.5t38 -238.5t38 -185.5t-43 -103.5t-90 -38q-100 0 -218 122t-118 198z" />
<glyph unicode="~" horiz-adv-x="921" d="M223 340v2q27 53 82 89t106.5 36t208 -57.5t188.5 -57.5t46 22.5t26.5 21.5t27 -16t13.5 -27.5t-5.5 -23t-23 -37t-40.5 -46.5q-61 -51 -154 -51q-53 8 -196.5 66t-168 60.5t-39.5 -11t-29.5 -12.5t-28 13.5t-13.5 28.5z" />
<glyph unicode="&#xa1;" horiz-adv-x="821" d="M-102 -541q0 80 133 336t279.5 477.5t181.5 221.5q41 0 71.5 -30t30.5 -85t-109.5 -300t-258 -478.5t-236.5 -249.5q-92 0 -92 108zM493.5 618.5q0.5 83.5 79 162.5t156.5 79t92 -82v-2q0 -31 -15 -78t-39 -78.5t-75 -58t-121 -26.5q-78 0 -77.5 83.5z" />
<glyph unicode="&#xa2;" horiz-adv-x="675" d="M276 842q0 143 143.5 291.5t315.5 216.5q92 209 94 213q31 70 60 69q14 0 27.5 -14t13.5 -36.5t-72 -197.5q12 2 70.5 2t110 -25.5t51.5 -95t-89.5 -160.5t-152.5 -91q-41 0 -41 24q0 16 20 29q23 12 72 57t49 62q0 6 -12 6q-72 0 -203 -131t-131 -197q0 -33 36 -33 t116 42t196.5 114t134 81t27.5 9q29 0 29 -28q-2 -16 -95.5 -81t-232.5 -140.5t-244 -110.5q-76 -172 -104 -225q-20 -33 -38.5 -33t-30 21.5t-11.5 42t66 167.5h-5q-63 0 -116.5 46t-53.5 106z" />
<glyph unicode="&#xa3;" horiz-adv-x="1607" d="M-250 29q0 213 224.5 357t695.5 144q90 0 202 -8q35 39 101 121q-111 16 -154 33q-37 16 -37 96q6 68 45 68q156 -55 254 -70q80 94 160 184q-94 2 -155.5 36t-84.5 130q0 61 64 62q295 0 408 4q283 250 534 252q156 -14 156 -135q0 -170 -142 -254q-156 -94 -639 -95 q-80 -90 -168 -192q96 4 152 47q14 0 22.5 -22.5t8.5 -45.5l2 -22q-6 -59 -64.5 -75.5t-134.5 -16.5t-96 2q-94 -113 -100 -119q240 -29 419 -117q96 -47 152.5 -127t56.5 -182q0 -61 -47 -68q-18 -4 -113.5 -4t-381 32t-494.5 36q-328 -293 -592 -293q-111 0 -182.5 72.5 t-71.5 169.5zM-35 -86q0 -10 19 -10q207 0 438 170q-178 -12 -317.5 -50t-139.5 -110zM1626 1194q162 10 232.5 39t70.5 86q0 8 -12 8q-125 0 -291 -133z" />
<glyph unicode="&#xa4;" horiz-adv-x="1273" d="M295 238.5q0 23.5 67 132.5q-66 80 -65 204q0 201 147 365q-90 127 -90 172q0 31 47 31q23 0 119 -135q129 96 267.5 96t209.5 -82q131 135 172 135q35 0 35 -36t-153 -189q25 -68 24 -150q0 -199 -121 -354l113 -158q4 0 4 -16q-10 -25 -29 -25h-4q-27 6 -57 37 q-69 63 -96 86v2q-113 -92 -242 -92t-211 49l-88 -92q-4 -4 -14 -4q-35 0 -35 23.5zM600 647q0 -86 38 -132t97 -46q104 0 173 114.5t69 223.5q0 215 -133 215q-86 0 -165 -109.5t-79 -265.5z" />
<glyph unicode="&#xa5;" horiz-adv-x="1114" d="M57 407.5q0 73.5 26 130t118 145.5t192 171q268 221 322 322q4 8 4 12t-11.5 4t-19.5 -6t-49 -31t-82 -49q-117 -66 -134 -66t-32.5 15.5t-15.5 38.5q0 53 91 124.5t226 126t248 54.5q231 0 231 -232q0 -41 -18 -86t-39 -69l-18 -23q-123 -150 -265.5 -283t-146.5 -137 v-14q0 -18 11.5 -18t52 23.5t118.5 69.5t250 156.5t356.5 260t329.5 301.5q31 31 68 30q61 0 61 -71q0 -45 -71 -127q-27 -31 -67 -76t-56.5 -63.5t-159.5 -180.5q-449 -498 -678 -766q111 8 168 47q31 0 37 -67l2 -23q-6 -59 -75.5 -75.5t-207.5 -16.5h-39q-20 -25 -57 -70 q113 8 174 54q16 0 26.5 -27t10.5 -53l2 -27q-8 -78 -92 -94q-76 -16 -151.5 -16t-94.5 2q-55 -78 -116.5 -177.5t-88 -133t-53.5 -33.5q-45 0 -80 59t-35 104q0 88 93 217l-78 19q-43 20 -43 117q6 80 53 80q121 -41 195 -60q8 10 28.5 32.5t30.5 35.5q-90 18 -98 20 q-43 16 -43 96q6 68 53 68q100 -31 205 -53q369 414 440 479q12 16 12 21.5t-8 5.5t-34.5 -18.5t-100.5 -68t-128 -84t-143.5 -88t-156.5 -87.5q-170 -84 -259 -84t-139.5 69.5t-50.5 143z" />
<glyph unicode="&#xa6;" horiz-adv-x="407" d="M117 -246l176 856h10q29 -6 62.5 -32.5t33.5 -36.5l-157 -781q-2 -6 -5.5 -16t-20.5 -27.5t-44 -17.5q-55 0 -55 55zM348 860l150 705h10q29 -6 62.5 -33t33.5 -37l-147 -702q-6 -33 -33 -33t-51.5 30.5t-24.5 69.5z" />
<glyph unicode="&#xa7;" horiz-adv-x="657" d="M61 119q0 49 129 71q125 16 216 64l-58 53q-153 33 -153 152q0 74 78.5 135t193.5 94q31 88 169 150.5t257 62.5q242 0 242 -145q-2 -68 -107.5 -124.5t-140.5 -56.5t-35 14.5t13.5 21.5t58.5 27.5t65.5 34t20.5 21.5t-19 8q-68 0 -212 -48t-144 -79q0 -18 82 -18 q203 0 203 -162q0 -74 -80 -128t-191 -85q-23 -92 -167 -151.5t-236 -59.5q-53 0 -119 49.5t-66 98.5zM369 389q0 -14 51 -18l37 6q57 8 151 37.5t94 56.5q0 16 -14 16q-45 0 -80 9q-90 -25 -164.5 -56t-74.5 -51z" />
<glyph unicode="&#xa8;" horiz-adv-x="466" d="M78 782q10 98 88 149.5t135 51.5q84 0 84 -84q0 -53 -63.5 -128t-161.5 -85q-35 0 -55.5 23.5t-22.5 48.5zM387 766q10 98 88 149.5t135 51.5q84 0 84 -84q0 -53 -63.5 -128t-161.5 -85q-35 0 -55.5 23.5t-24.5 47.5z" />
<glyph unicode="&#xa9;" horiz-adv-x="1570" d="M-6 532q0 193 87 370t224 298t308 192.5t337 71.5q264 0 448.5 -180t184.5 -437t-137 -474t-356.5 -344t-454.5 -127q-283 0 -462 178t-179 452zM152 557q0 -221 143 -364.5t369 -143.5q293 0 527 229.5t234 530.5q0 225 -150.5 366.5t-369.5 141.5q-133 0 -268 -60.5 t-242.5 -161t-175 -243.5t-67.5 -295zM287 465q0 131 55 243.5t140 186.5t190 125q201 100 391 100q227 0 227 -116q0 -76 -77.5 -161t-120.5 -85t-43 19.5t18 43.5q92 92 92 111q0 6 -14 6q-63 0 -205.5 -105.5t-263.5 -254t-121 -244.5q0 -25 34 -25t167 98.5t143 98.5 q31 0 31 -27.5t-67.5 -90t-177.5 -120t-202 -57.5q-197 0 -196 254z" />
<glyph unicode="&#xaa;" d="M129 889q0 68 52 157t137 169.5t209 136t253 55.5q70 0 130.5 -37t60.5 -86t-97 -59q-72 -16 -236.5 -117.5t-164.5 -155.5q0 -23 23 -22q41 0 193.5 116.5t183 116.5t30.5 -37q0 -27 -19.5 -50t-27.5 -34q-16 -20 -83.5 -91t-67.5 -120q0 -10 14 -14q14 0 99 58.5 t96.5 64.5t21.5 6q29 0 29 -27.5t-144.5 -122t-204.5 -94.5q-25 0 -52 20.5t-27 48.5t14 60.5t14 44t-6 11.5t-12 -4q-199 -150 -293 -150q-53 0 -84 39t-35 78zM143 524.5q0 -30.5 11.5 -46t42.5 -23.5q37 -8 137 -9h20q158 0 282 31t136 105v10q0 33 -31 39 q-23 -23 -109.5 -44.5t-189 -21.5t-241.5 25q-20 0 -39 -17.5t-19 -48z" />
<glyph unicode="&#xab;" horiz-adv-x="946" d="M215 334v2q2 31 171 177t200 146q18 0 28.5 -52t10.5 -98t-4.5 -58.5t-52.5 -39t-108 -58.5t-83 -48q102 -72 131 -107.5t29 -86.5q0 -104 -25 -109q-41 0 -163 132t-134 200zM559 305v2q0 29 169 173.5t206 152.5q33 0 33 -207q-8 -12 -113.5 -69.5t-130.5 -77.5 q98 -70 129 -106t31 -81q0 -113 -23 -117q-43 0 -165 131.5t-136 198.5z" />
<glyph unicode="&#xac;" horiz-adv-x="1212" d="M92 628.5q0 26.5 10 47.5q80 37 918 37q98 0 133 -12.5t35 -56.5t-7 -104.5t-14 -95.5q-16 -94 -43 -213q-8 -66 -57 -65q-16 4 -25 6q-23 10 -22 53q0 90 35 344l-887 -2q-31 0 -53.5 17.5t-22.5 44z" />
<glyph unicode="&#xad;" horiz-adv-x="1241" d="M145 344q0 27 11 47q31 33 594 33l417 -2q27 0 50.5 -14.5t23.5 -48t-20.5 -54t-34.5 -20.5l-965 -2q-31 0 -53.5 17t-22.5 44z" />
<glyph unicode="&#xae;" horiz-adv-x="1570" d="M-6 532q0 193 87 370t224 298t308 192.5t337 71.5q264 0 448.5 -180t184.5 -437t-137 -474t-356.5 -344t-454.5 -127q-283 0 -462 178t-179 452zM152 557q0 -221 143 -364.5t369 -143.5q293 0 527 229.5t234 530.5q0 225 -150.5 366.5t-369.5 141.5q-133 0 -268 -60.5 t-242.5 -161t-175 -243.5t-67.5 -295zM291 814q0 -69 49 -99.5t105.5 -30.5t100.5 12.5t64.5 23.5t20.5 15q0 19 -29 19l-139 -15q-4 0 -4 2q0 39 203.5 90.5t344 51.5t140.5 -45q0 -33 -89 -70t-171 -57.5t-92 -20.5l41 55q39 57 38.5 73t-18.5 16t-75.5 -62.5 t-82.5 -101.5l-26 -4q-86 -12 -86 -37q0 -12 17.5 -29.5t17.5 -21.5q0 12 -129 -181l-29 -45q18 -27 31 -26q4 0 41 34q98 98 133 156q37 -55 88 -115.5t73.5 -79t51.5 -38.5q61 -41 116.5 -41t87 21.5t31.5 48t-122 173t-122 153.5t21 13q115 18 225.5 79t110.5 132 q0 106 -108.5 158.5t-258 52.5t-275.5 -31.5t-211 -95t-85 -132.5z" />
<glyph unicode="&#xaf;" horiz-adv-x="1130" d="M199 880.5q0 26.5 10 47.5q14 14 125 14l395 -6l184 -2q27 0 50.5 -14.5t23.5 -48t-20.5 -54t-34.5 -20.5l-658 22q-31 0 -53 17.5t-22 44z" />
<glyph unicode="&#xb0;" d="M268 963q0 115 121 232.5t273 117.5q55 0 87.5 -35t36.5 -70l5 -34q0 -86 -41 -157t-101 -110q-119 -78 -207 -78t-131 37t-43 97zM471 1030q0 -31 16.5 -57.5t34.5 -26.5q59 0 116.5 52.5t57.5 101.5q0 59 -94 59q-43 0 -87 -49t-44 -80z" />
<glyph unicode="&#xb1;" horiz-adv-x="1306" d="M-76 164q0 16 10 37q80 37 918 37q98 0 133 -12.5t35 -51.5t-20.5 -59.5t-34.5 -20.5q-891 -2 -945 -2q-96 0 -96 72zM98 727q0 27 11 47q27 29 491 33q10 66 26.5 186.5t28 151.5t45.5 31h11q29 -6 42 -30t13 -40l-45 -299l305 4q98 0 133 -12.5t35 -51t-20.5 -59 t-34.5 -20.5h-439l-49 -314q-8 -66 -57 -65q-16 4 -25 6q-23 10 -22 53q0 98 33 318h-406q-31 0 -53.5 17t-22.5 44z" />
<glyph unicode="&#xb2;" horiz-adv-x="950" d="M86 666.5q0 60.5 145.5 156t348 204t268.5 159.5q-8 25 -45 24q-143 0 -324 -92q-61 -31 -71 -31q-47 2 -95.5 54.5t-48.5 97.5q0 90 141.5 170t296.5 80q102 0 206 -55.5t104 -155.5q0 -70 -86 -131q-227 -162 -514 -316q-27 -14 -27 -22q0 -4 14 -4l54 8q98 18 143 18 q135 0 226 -84.5t91 -148.5q0 -31 -55 -31l-92 6q-86 0 -268.5 -27.5t-246 -27.5t-114.5 44t-51 104.5z" />
<glyph unicode="&#xb3;" horiz-adv-x="970" d="M137 655q0 70 43 138.5t74 68.5q14 0 32.5 -11t18.5 -24l-24 -65q0 -23 34 -23q74 0 216.5 74t142.5 111q-2 8 -31 8l-121 -12q-63 0 -63 36q0 18 44 38t66.5 32t102.5 47q162 74 162 103q-8 25 -48 24q-139 0 -309 -82q-55 -27 -63 -26q-49 2 -96.5 53t-47.5 98 q0 88 141.5 168t297.5 80t266 -90q63 -49 63 -116.5t-80.5 -137.5t-159.5 -105.5t-114 -42.5l-6 -2q0 -2 2 -4q0 -8 16 -12q104 -10 179 -66.5t75 -132.5q0 -90 -177 -186t-392 -96q-244 0 -244 155z" />
<glyph unicode="&#xb4;" d="M287 729q0 66 137 174.5t225 108t113 -55.5q10 -27 10 -43q0 -49 -65.5 -79.5t-131.5 -36.5l-65 -6q-51 -8 -168 -70l-37 -19q-18 10 -18 27z" />
<glyph unicode="&#xb6;" horiz-adv-x="1347" d="M319 -93.5q0 21.5 13 38.5q731 1186 750.5 1213.5t39.5 47.5q-26 8 -67 8q-137 0 -291 -196.5t-154 -317.5q0 -8 6 -8q10 0 46 29t49.5 29t15.5 -19q0 -59 -58.5 -123.5t-113.5 -64.5t-89 61.5t-34 222t69.5 359t189.5 335t249 136.5t257 -101.5t128 -218.5 q0 -41 -412.5 -714.5t-474.5 -747.5q-27 -33 -57.5 -33t-46 21.5t-15.5 43zM569.5 -78.5q0.5 21.5 12.5 37.5q731 1186 757 1223q49 70 93 69q23 0 41 -14t18 -37q0 -41 -370.5 -639t-432.5 -672q-27 -33 -57.5 -32.5t-46 22t-15 43z" />
<glyph unicode="&#xb7;" horiz-adv-x="569" d="M121 351.5q0 25.5 19.5 55t51 65.5t86 62.5t111.5 26.5q84 0 84 -82q0 -74 -85 -144.5t-153.5 -70.5t-91 31t-22.5 56.5z" />
<glyph unicode="&#xb8;" horiz-adv-x="675" d="M133 -119q0 33 31 33q23 0 65.5 -18.5t78.5 -18.5t36 9.5t-36 42t-36 52t11 39.5l84 -26l-5 -25q0 -25 43.5 -52.5t43.5 -74.5t-30 -74.5t-103.5 -27.5t-133.5 35q-18 8 -33.5 45t-15.5 61z" />
<glyph unicode="&#xb9;" horiz-adv-x="741" d="M233 649q0 125 84 332t175.5 359.5t121.5 164.5q8 4 32 4t55.5 -16t39.5 -37v-8q0 -57 -62.5 -289.5t-154.5 -455t-152.5 -222.5t-99.5 52.5t-39 115.5z" />
<glyph unicode="&#xba;" horiz-adv-x="684" d="M182 524q0 -35 19.5 -51t55.5 -16t121 14t181 39t165 71t69 94t-39 48q-8 -14 -57.5 -42t-102.5 -46q-137 -45 -354 -45q-20 0 -39 -15.5t-19 -50.5zM223 893q0 145 95.5 271t216 189.5t219.5 63.5q166 -18 166 -100q0 -23 -11.5 -40t-18.5 -20.5t-18 -5.5 q-24 -5 -24 -28q0 -55 65 -56q61 0 135 31t80.5 31t13.5 -10.5t7 -20.5q0 -23 -95.5 -58.5t-138.5 -35.5t-60 1t-28 -22q-152 -285 -301 -358q-66 -33 -138.5 -33t-118.5 48t-46 153zM489 879.5q0 -48.5 27 -48.5q41 0 150.5 126t109.5 208q0 12 -15.5 12.5t-81 -49 t-128 -125t-62.5 -124z" />
<glyph unicode="&#xbb;" horiz-adv-x="946" d="M217 209q8 12 113.5 69.5t130.5 77.5q-98 70 -129 106t-31 81q0 113 23 116q43 0 164.5 -131t136.5 -198v-2q0 -29 -169 -173.5t-206 -152.5q-33 0 -33 207zM559 126q0 46 4 58.5t52.5 39t108.5 58.5t83 48q-102 72 -131 107.5t-29 86.5q0 104 25 109q41 0 162.5 -132 t134.5 -200v-2q-2 -31 -171 -177.5t-200 -146.5q-18 0 -28.5 52.5t-10.5 98.5z" />
<glyph unicode="&#xbc;" horiz-adv-x="1869" d="M115 -82.5q0 -21.5 15 -43t46 -21.5t57 32q168 205 681 857.5t513 691.5q0 23 -18 37t-41 14q-43 0 -92 -70l-1149 -1460q-12 -16 -12 -37.5zM233 649q0 125 84 332t175.5 359.5t121.5 164.5q8 4 32 4t55.5 -16t39.5 -37v-8q0 -57 -62.5 -289.5t-154.5 -455 t-152.5 -222.5t-99.5 52.5t-39 115.5zM811 305q0 -53 42 -106.5t106.5 -53.5t155.5 46.5t166 97.5t85 53t10 -6q-6 -23 -64.5 -100.5t-68.5 -96.5q-43 -74 -43 -111.5t44 -83.5t70.5 -46t39 21.5t40 82.5t54.5 113q152 270 395 612q70 96 74 139q-4 23 -31.5 33t-47 10 t-38.5 -18q-152 -180 -358.5 -355.5t-243.5 -175.5q-10 1 -12 21q109 123 182.5 231.5t73.5 149.5q0 76 -54.5 118t-121.5 42q-57 0 -66.5 -16.5t-13.5 -27t-13.5 -37t-17.5 -48.5q0 -39 -86 -135.5t-172 -198t-86 -154.5z" />
<glyph unicode="&#xbd;" horiz-adv-x="1671" d="M115 -82.5q0 -21.5 15 -43t46 -21.5t57 32q168 205 681 857.5t513 691.5q0 23 -18 37t-41 14q-43 0 -92 -70l-1149 -1460q-12 -16 -12 -37.5zM233 649q0 125 84 332t175.5 359.5t121.5 164.5q8 4 32 4t55.5 -16t39.5 -37v-8q0 -57 -62.5 -289.5t-154.5 -455 t-152.5 -222.5t-99.5 52.5t-39 115.5zM774 76.5q0 60.5 145.5 156t348 204t268.5 159.5q-8 25 -45 25q-143 0 -324 -93q-61 -31 -71 -30q-47 2 -95.5 54t-48.5 97q0 90 141.5 170t297.5 80q102 0 205.5 -55.5t103.5 -155.5q0 -70 -86 -131q-227 -162 -514 -315 q-27 -14 -27 -23q0 -4 14 -4l54 8q98 18 143 19q135 0 226.5 -85t91.5 -149q-1 -31 -56 -31l-92 7q-86 0 -268 -28t-245.5 -28t-115 44t-51.5 104.5z" />
<glyph unicode="&#xbe;" horiz-adv-x="2172" d="M137 655q0 70 43 138.5t74 68.5q14 0 32.5 -11t18.5 -24l-24 -65q0 -23 34 -23q74 0 216.5 74t142.5 111q-2 8 -31 8l-121 -12q-63 0 -63 36q0 18 44 38t66.5 32t102.5 47q162 74 162 103q-8 25 -48 24q-139 0 -309 -82q-55 -27 -63 -26q-49 2 -96.5 53t-47.5 98 q0 88 141.5 168t297.5 80t266 -90q63 -49 63 -116.5t-80.5 -137.5t-159.5 -105.5t-114 -42.5l-6 -2q0 -2 2 -4q0 -8 16 -12q104 -10 179 -66.5t75 -132.5q0 -90 -177 -186t-392 -96q-244 0 -244 155zM418 -82.5q0 -21.5 15.5 -43t46 -21.5t57.5 32q170 205 682 857.5 t512 691.5q0 23 -18.5 37t-41.5 14q-43 0 -92 -70l-1149 -1460q-12 -16 -12 -37.5zM1114 305q0 -53 42 -106.5t106.5 -53.5t155.5 46.5t166 97.5t85 53t10 -6q-6 -23 -64.5 -100.5t-68.5 -96.5q-43 -74 -43 -111.5t44 -83.5t71 -46t39 21.5t39.5 82.5t54.5 113 q152 270 395 612q70 96 74 139q-4 23 -31.5 33t-47 10t-38.5 -18q-152 -180 -358.5 -355.5t-243.5 -175.5q-10 1 -12 21q109 123 182.5 231.5t73.5 149.5q0 76 -54.5 118t-121.5 42q-57 0 -66.5 -16.5t-13.5 -27t-13.5 -37t-17.5 -48.5q0 -39 -86 -135.5t-172 -198 t-86 -154.5z" />
<glyph unicode="&#xbf;" horiz-adv-x="976" d="M-135 -401q0 55 47 125.5t115 132.5q125 115 252 196l47 31q90 72 139 135.5t53 91.5l4 27q55 68 158.5 68t103.5 -33q0 -94 -84 -184.5t-190 -151.5q-352 -207 -447 -299q8 -37 56 -37q98 0 207.5 46t181.5 91t84 45q57 -2 114.5 -79.5t57.5 -145.5q0 -133 -169 -254 t-357 -121q-182 0 -304 135q-70 76 -69 181zM545 555q0 74 85 143.5t153.5 69.5t91 -30.5t22.5 -58.5t-29.5 -72t-95 -90t-141.5 -46q-86 0 -86 84z" />
<glyph unicode="&#xc0;" horiz-adv-x="1146" d="M-2 335.5q0 147.5 82 313.5t218 300t302 240.5t346 165t322.5 58.5t217.5 -39t75 -121t-101.5 -182t-144.5 -100t-43 26q0 33 54 85.5t54 64.5q0 6 -10 6q-109 0 -327 -174t-395 -392t-177 -331q0 -35 25 -35q57 0 302.5 225.5t463.5 452.5q20 4 34.5 4t33 -11 t26.5 -23.5t6 -30t-26.5 -74.5t-56.5 -117.5t-78 -138.5t-77.5 -128t-70.5 -110q-41 -68 -41 -79t7 -11t11 2t22.5 15.5t43 30t37 26.5t28 10t27.5 -10t12 -25q0 -66 -151.5 -159t-210 -93t-94 31t-35.5 75t24 110l25 63q0 6 -4 6t-15 -6q-322 -256 -479 -256 q-121 0 -191.5 94t-70.5 241.5zM1157 1724q0 35 25.5 64t64.5 29q98 0 227.5 -129t129.5 -220q-2 -12 -23 -22q-125 102 -186 123q-72 14 -129 43q-109 57 -109 112z" />
<glyph unicode="&#xc1;" horiz-adv-x="1146" d="M-2 335.5q0 147.5 82 313.5t218 300t302 240.5t346 165t322.5 58.5t217.5 -39t75 -121t-101.5 -182t-144.5 -100t-43 26q0 33 54 85.5t54 64.5q0 6 -10 6q-109 0 -327 -174t-395 -392t-177 -331q0 -35 25 -35q57 0 302.5 225.5t463.5 452.5q20 4 34.5 4t33 -11 t26.5 -23.5t6 -30t-26.5 -74.5t-56.5 -117.5t-78 -138.5t-77.5 -128t-70.5 -110q-41 -68 -41 -79t7 -11t11 2t22.5 15.5t43 30t37 26.5t28 10t27.5 -10t12 -25q0 -66 -151.5 -159t-210 -93t-94 31t-35.5 75t24 110l25 63q0 6 -4 6t-15 -6q-322 -256 -479 -256 q-121 0 -191.5 94t-70.5 241.5zM1444 1503q0 66 137 174.5t225 108.5t113 -55q10 -27 10 -43q0 -49 -65.5 -80t-130.5 -37l-66 -6q-51 -8 -168 -70l-37 -18q-18 10 -18 26z" />
<glyph unicode="&#xc2;" horiz-adv-x="1146" d="M-2 335.5q0 147.5 82 313.5t218 300t302 240.5t346 165t322.5 58.5t217.5 -39t75 -121t-101.5 -182t-144.5 -100t-43 26q0 33 54 85.5t54 64.5q0 6 -10 6q-109 0 -327 -174t-395 -392t-177 -331q0 -35 25 -35q57 0 302.5 225.5t463.5 452.5q20 4 34.5 4t33 -11 t26.5 -23.5t6 -30t-26.5 -74.5t-56.5 -117.5t-78 -138.5t-77.5 -128t-70.5 -110q-41 -68 -41 -79t7 -11t11 2t22.5 15.5t43 30t37 26.5t28 10t27.5 -10t12 -25q0 -66 -151.5 -159t-210 -93t-94 31t-35.5 75t24 110l25 63q0 6 -4 6t-15 -6q-322 -256 -479 -256 q-121 0 -191.5 94t-70.5 241.5zM1241 1544q0 74 129 162t303 88q31 0 62.5 -104.5t31.5 -198.5t-43 -94q-86 0 -131 211q-31 -8 -139 -30t-151 -44q-23 -8 -42.5 -8t-19.5 18z" />
<glyph unicode="&#xc3;" horiz-adv-x="1146" d="M-2 335.5q0 147.5 82 313.5t218 300t302 240.5t346 165t322.5 58.5t217.5 -39t75 -121t-101.5 -182t-144.5 -100t-43 26q0 33 54 85.5t54 64.5q0 6 -10 6q-109 0 -327 -174t-395 -392t-177 -331q0 -35 25 -35q57 0 302.5 225.5t463.5 452.5q20 4 34.5 4t33 -11 t26.5 -23.5t6 -30t-26.5 -74.5t-56.5 -117.5t-78 -138.5t-77.5 -128t-70.5 -110q-41 -68 -41 -79t7 -11t11 2t22.5 15.5t43 30t37 26.5t28 10t27.5 -10t12 -25q0 -66 -151.5 -159t-210 -93t-94 31t-35.5 75t24 110l25 63q0 6 -4 6t-15 -6q-322 -256 -479 -256 q-121 0 -191.5 94t-70.5 241.5zM1180 1626v2q27 53 82 89t106 36t139 -57.5t120 -57.5t46.5 22.5t26.5 21.5t26.5 -16t13.5 -27.5t-5 -22.5t-22.5 -37t-41.5 -47q-61 -51 -153 -51q-53 8 -129 66.5t-99.5 60.5t-39 -11.5t-30 -12.5t-27.5 13.5t-13 28.5z" />
<glyph unicode="&#xc4;" horiz-adv-x="1146" d="M-2 335.5q0 147.5 82 313.5t218 300t302 240.5t346 165t322.5 58.5t217.5 -39t75 -121t-101.5 -182t-144.5 -100t-43 26q0 33 54 85.5t54 64.5q0 6 -10 6q-109 0 -327 -174t-395 -392t-177 -331q0 -35 25 -35q57 0 302.5 225.5t463.5 452.5q20 4 34.5 4t33 -11 t26.5 -23.5t6 -30t-26.5 -74.5t-56.5 -117.5t-78 -138.5t-77.5 -128t-70.5 -110q-41 -68 -41 -79t7 -11t11 2t22.5 15.5t43 30t37 26.5t28 10t27.5 -10t12 -25q0 -66 -151.5 -159t-210 -93t-94 31t-35.5 75t24 110l25 63q0 6 -4 6t-15 -6q-322 -256 -479 -256 q-121 0 -191.5 94t-70.5 241.5zM1110 1591q10 98 88 149.5t135 51.5q84 0 84 -84q0 -53 -63.5 -128t-161.5 -85q-35 0 -55.5 24.5t-22.5 49.5zM1419 1575q10 98 88 149.5t135 51.5q84 0 84 -84q0 -53 -63.5 -128t-161.5 -85q-35 0 -55.5 24.5t-24.5 48.5z" />
<glyph unicode="&#xc5;" horiz-adv-x="1146" d="M-2 335.5q0 147.5 82 313.5t218 300t302 240.5t346 165t322.5 58.5t217.5 -39t75 -121t-101.5 -182t-144.5 -100t-43 26q0 33 54 85.5t54 64.5q0 6 -10 6q-109 0 -327 -174t-395 -392t-177 -331q0 -35 25 -35q57 0 302.5 225.5t463.5 452.5q20 4 34.5 4t33 -11 t26.5 -23.5t6 -30t-26.5 -74.5t-56.5 -117.5t-78 -138.5t-77.5 -128t-70.5 -110q-41 -68 -41 -79t7 -11t11 2t22.5 15.5t43 30t37 26.5t28 10t27.5 -10t12 -25q0 -66 -151.5 -159t-210 -93t-94 31t-35.5 75t24 110l25 63q0 6 -4 6t-15 -6q-322 -256 -479 -256 q-121 0 -191.5 94t-70.5 241.5zM1403 1548q0 66 84 134.5t188 68.5q39 0 61.5 -19.5t24.5 -39.5l4 -21q0 -94 -86 -146t-157 -52q-119 0 -119 75zM1544 1581q0 -20 29 -20q84 27 84 79q0 23 -26.5 23t-56.5 -28.5t-30 -53.5z" />
<glyph unicode="&#xc6;" horiz-adv-x="1990" d="M-2 335.5q0 147.5 82 313.5t218 300t302 240.5t346 165t327.5 58.5t219.5 -45q168 84 366.5 135t366.5 51q342 -2 342 -192q0 -82 -63.5 -183.5t-136 -166t-107.5 -64.5q-16 0 -28.5 13.5t-12.5 35t40 66.5t40 67.5t-51 22.5q-133 0 -431 -109.5t-300 -164.5 q2 -14 54 -14.5t118.5 10t101.5 10.5q92 0 92 -49q0 -27 -30.5 -43.5t-52 -25.5t-60.5 -24.5t-64.5 -28t-74.5 -34.5l-82 -35q-82 -35 -142.5 -65.5t-102.5 -51t-70.5 -37t-53.5 -32.5q-51 -35 -51 -53q0 -41 65 -41q139 0 305 51t282 101t132 50q72 -2 120 -71.5t48 -139.5 q0 -98 -135 -206.5t-337 -179t-378 -70.5t-290.5 72.5t-137.5 226.5q0 37 14 71q-369 -270 -528 -270q-121 0 -191.5 94t-70.5 241.5zM471 256q0 -35 25 -35q49 0 200.5 91t387 227.5t436.5 214.5q12 4 12 8q0 16 -25 20q-133 14 -141 17q-111 25 -156 97.5t-45 133.5 q0 14 4 39q-225 -145 -461.5 -412.5t-236.5 -400.5z" />
<glyph unicode="&#xc7;" horiz-adv-x="1007" d="M74 -98q0 39 37 39q29 0 85 -21.5t93 -21.5t37 11t-42 50t-44 66q-143 86 -144 356q0 205 86 380t219.5 290.5t298.5 197.5q311 158 609 158q356 0 356 -186q0 -117 -123 -250t-201 -133q-53 0 -53 30q0 37 29 70q100 100 121.5 129t21.5 41t-22 12q-74 0 -227.5 -102.5 t-307 -245.5t-269.5 -311t-116 -283q0 -39 43 -39q63 0 269.5 153.5t222.5 153.5q49 0 49 -47q0 -29 -66.5 -96t-163 -140t-227.5 -127t-239 -54q-12 0 -54 4q6 -12 47 -41q51 -33 51.5 -89.5t-34.5 -90t-124 -33.5t-161 43q-20 10 -38.5 54t-18.5 73z" />
<glyph unicode="&#xc8;" horiz-adv-x="1173" d="M-43 199q0 92 102.5 194.5t237.5 177t250 126t155 57.5q12 4 13 8q0 16 -25 20q-133 14 -141 17q-111 25 -156 97.5t-45 133.5q0 125 178.5 250t426 199.5t456.5 74.5q342 -2 342 -192q0 -82 -63.5 -183.5t-136 -166t-107.5 -64.5q-14 0 -27.5 13.5t-13.5 35t40 66.5 t40 67.5t-51 22.5q-133 0 -431.5 -109.5t-300.5 -164.5q2 -14 54.5 -14.5t119 10t101.5 10.5q92 0 92 -49q0 -27 -30.5 -43.5t-52 -25.5t-60.5 -24.5t-64.5 -28t-75.5 -34.5l-82 -35q-82 -35 -142 -65.5t-102 -51t-71 -37t-55 -32.5q-49 -35 -49 -53q0 -41 65 -41 q139 0 305 51t282 101t132 50q72 -2 120 -71.5t48 -139.5q0 -98 -135 -206.5t-337 -179t-378 -70.5t-290.5 72.5t-137.5 226.5zM1407 1833q0 35 25.5 63.5t64.5 28.5q98 0 227 -129t129 -219q-2 -12 -22 -23q-125 102 -186 123q-72 14 -129 43q-109 57 -109 113z" />
<glyph unicode="&#xc9;" horiz-adv-x="1173" d="M-43 199q0 92 102.5 194.5t237.5 177t250 126t155 57.5q12 4 13 8q0 16 -25 20q-133 14 -141 17q-111 25 -156 97.5t-45 133.5q0 125 178.5 250t426 199.5t456.5 74.5q342 -2 342 -192q0 -82 -63.5 -183.5t-136 -166t-107.5 -64.5q-14 0 -27.5 13.5t-13.5 35t40 66.5 t40 67.5t-51 22.5q-133 0 -431.5 -109.5t-300.5 -164.5q2 -14 54.5 -14.5t119 10t101.5 10.5q92 0 92 -49q0 -27 -30.5 -43.5t-52 -25.5t-60.5 -24.5t-64.5 -28t-75.5 -34.5l-82 -35q-82 -35 -142 -65.5t-102 -51t-71 -37t-55 -32.5q-49 -35 -49 -53q0 -41 65 -41 q139 0 305 51t282 101t132 50q72 -2 120 -71.5t48 -139.5q0 -98 -135 -206.5t-337 -179t-378 -70.5t-290.5 72.5t-137.5 226.5zM1487 1681q0 66 137 174.5t225 108.5t113 -55q10 -27 10 -43q0 -49 -65.5 -80t-130.5 -37l-66 -6q-51 -8 -168 -68l-37 -20q-18 8 -18 26z" />
<glyph unicode="&#xca;" horiz-adv-x="1173" d="M-43 199q0 92 102.5 194.5t237.5 177t250 126t155 57.5q12 4 13 8q0 16 -25 20q-133 14 -141 17q-111 25 -156 97.5t-45 133.5q0 125 178.5 250t426 199.5t456.5 74.5q342 -2 342 -192q0 -82 -63.5 -183.5t-136 -166t-107.5 -64.5q-14 0 -27.5 13.5t-13.5 35t40 66.5 t40 67.5t-51 22.5q-133 0 -431.5 -109.5t-300.5 -164.5q2 -14 54.5 -14.5t119 10t101.5 10.5q92 0 92 -49q0 -27 -30.5 -43.5t-52 -25.5t-60.5 -24.5t-64.5 -28t-75.5 -34.5l-82 -35q-82 -35 -142 -65.5t-102 -51t-71 -37t-55 -32.5q-49 -35 -49 -53q0 -41 65 -41 q139 0 305 51t282 101t132 50q72 -2 120 -71.5t48 -139.5q0 -98 -135 -206.5t-337 -179t-378 -70.5t-290.5 72.5t-137.5 226.5zM1348 1698q0 74 129 162t303 88q31 0 62.5 -104.5t31.5 -199t-43 -94.5q-86 0 -131 211q-31 -8 -139.5 -29.5t-151.5 -43.5q-23 -8 -42 -8.5 t-19 18.5z" />
<glyph unicode="&#xcb;" horiz-adv-x="1173" d="M-43 199q0 92 102.5 194.5t237.5 177t250 126t155 57.5q12 4 13 8q0 16 -25 20q-133 14 -141 17q-111 25 -156 97.5t-45 133.5q0 125 178.5 250t426 199.5t456.5 74.5q342 -2 342 -192q0 -82 -63.5 -183.5t-136 -166t-107.5 -64.5q-14 0 -27.5 13.5t-13.5 35t40 66.5 t40 67.5t-51 22.5q-133 0 -431.5 -109.5t-300.5 -164.5q2 -14 54.5 -14.5t119 10t101.5 10.5q92 0 92 -49q0 -27 -30.5 -43.5t-52 -25.5t-60.5 -24.5t-64.5 -28t-75.5 -34.5l-82 -35q-82 -35 -142 -65.5t-102 -51t-71 -37t-55 -32.5q-49 -35 -49 -53q0 -41 65 -41 q139 0 305 51t282 101t132 50q72 -2 120 -71.5t48 -139.5q0 -98 -135 -206.5t-337 -179t-378 -70.5t-290.5 72.5t-137.5 226.5zM1399 1729q10 98 88 149t135 51q84 0 84 -84q0 -53 -63.5 -128t-161.5 -85q-35 0 -55.5 23.5t-24.5 48.5zM1708 1712q10 98 88 149.5t135 51.5 q84 0 84 -84q0 -53 -63.5 -128t-161.5 -85q-35 0 -55.5 23.5t-22.5 48.5z" />
<glyph unicode="&#xcc;" horiz-adv-x="792" d="M25 145q0 117 109.5 284t270 325.5t328.5 300t298 227.5t167 86q59 0 118.5 -52t59.5 -101.5t-238.5 -368t-523 -624.5t-387.5 -306q-70 0 -136 74.5t-66 154.5zM1065 1686q0 35 25.5 63.5t64.5 28.5q98 0 227 -129t129 -219q-2 -12 -22 -23q-125 102 -186 123 q-72 14 -129 43q-109 57 -109 113z" />
<glyph unicode="&#xcd;" horiz-adv-x="792" d="M25 145q0 117 109.5 284t270 325.5t328.5 300t298 227.5t167 86q59 0 118.5 -52t59.5 -101.5t-238.5 -368t-523 -624.5t-387.5 -306q-70 0 -136 74.5t-66 154.5zM1384 1458q0 66 137.5 174.5t225.5 108.5t113 -55q10 -27 10 -44q0 -49 -65.5 -79.5t-131.5 -36.5l-65 -6 q-51 -8 -168 -70l-37 -18q-18 10 -19 26z" />
<glyph unicode="&#xce;" horiz-adv-x="792" d="M25 145q0 117 109.5 284t270 325.5t328.5 300t298 227.5t167 86q59 0 118.5 -52t59.5 -101.5t-238.5 -368t-523 -624.5t-387.5 -306q-70 0 -136 74.5t-66 154.5zM1112 1509q0 74 129 162t303 88q31 0 62.5 -104.5t31.5 -198.5t-43 -94q-86 0 -131 211q-31 -8 -139 -29.5 t-151 -44.5q-23 -8 -42.5 -8t-19.5 18z" />
<glyph unicode="&#xcf;" horiz-adv-x="792" d="M25 145q0 117 109.5 284t270 325.5t328.5 300t298 227.5t167 86q59 0 118.5 -52t59.5 -101.5t-238.5 -368t-523 -624.5t-387.5 -306q-70 0 -136 74.5t-66 154.5zM1167 1546q10 98 88 149.5t136 51.5q84 0 84 -84q0 -53 -64 -128t-162 -85q-35 0 -55 24.5t-23 49.5z M1477 1530q10 98 87.5 149.5t135.5 51.5q84 0 84 -84q0 -53 -63.5 -128t-161.5 -85q-35 0 -55.5 24.5t-24.5 48.5z" />
<glyph unicode="&#xd0;" horiz-adv-x="1658" d="M-20 198q0 83 82.5 159.5t166.5 76.5q16 0 130 -33.5t251.5 -33.5t357.5 66.5t403 159.5t311 196.5t128 171.5q0 96 -287.5 96t-585.5 -71t-368 -167q-2 -2 0 -2h6l140 21q37 0 37 -23q0 -37 -110 -68.5t-181 -31.5q-115 0 -185.5 69.5t-82.5 190.5q0 113 151.5 225.5 t389 182t435 69.5t329.5 -35t241.5 -106.5t172 -199.5t62.5 -300q0 -209 -229 -438q-123 -123 -296 -222.5t-437 -164t-574 -64.5q-78 0 -245 53q-86 29 -149.5 84.5t-63.5 138.5zM571.5 621.5q-0.5 37.5 61 37.5t164.5 5q201 254 221 274q51 61 83 61t50 -17t18 -42 t-36.5 -71t-151.5 -183q104 20 162 51q39 0 39 -24q0 -63 -267 -105q-70 -80 -124 -145l-21 -25q-2 0 -10 -8q-20 -20 -43 -20t-38 20.5t-15 44t19 48t52 65.5q-86 -4 -100 -4q-63 0 -63.5 37.5z" />
<glyph unicode="&#xd1;" horiz-adv-x="1116" d="M-238 176q0 -98 72 -102q86 0 246 143q182 162 291.5 285t165.5 186q66 72 217 250q20 25 37.5 25t17.5 -13q0 -18 -27 -45q-109 -106 -227.5 -359t-118.5 -314.5t72 -159t139 -97.5q70 0 180 95q168 141 385 381q57 63 150.5 165.5t163 178t160 165t161 154t140.5 123.5 q104 90 192 160l35 26q18 16 18 36t-31.5 41.5t-62.5 21.5t-84 -23q-164 -61 -633 -573q-201 -219 -219.5 -240.5t-34.5 -21.5q-6 0 -6 11t60 136q176 383 176 502q0 59 -37 141t-100.5 82t-166 -84t-200.5 -192q-328 -362 -479 -504q-449 -455 -492 -455q-8 0 -8 15.5 t60.5 134t60.5 149.5q0 39 -45 39q-68 0 -148 -182.5t-80 -280.5zM1569 1763v2q27 53 82 89t106 36t139.5 -57t120 -57t46 22.5t26.5 21.5t26.5 -16.5t13.5 -28t-5 -22.5t-22.5 -36.5t-41.5 -45.5q-61 -53 -153 -53q-53 8 -129 66.5t-99.5 60.5t-39 -11.5t-30 -12.5 t-27.5 13.5t-13 28.5z" />
<glyph unicode="&#xd2;" horiz-adv-x="1134" d="M74 334q0 184 93 361t240.5 311.5t323.5 239t349 158.5t314.5 54t202.5 -106h13q53 31 101 30.5t72.5 -33t24.5 -89t-69.5 -183.5t-182 -272.5t-266 -296t-311.5 -272t-325 -198.5t-290.5 -77t-206.5 94.5t-83 278.5zM575 256q0 -74 62 -74q106 0 339.5 199t426 442.5 t194.5 360.5q0 18 -16 18q-43 0 -166 -139t-139 -189q-2 -2 -7 -10t-12 -16q-12 -18 -40.5 -18.5t-47 17t-18.5 44.5t58.5 115t58.5 94t-6 6q-45 0 -212 -163t-321 -373t-154 -314zM1401 1741q0 35 25.5 63.5t64.5 28.5q98 0 227 -129t129 -219q-2 -12 -22 -23 q-125 102 -187 123q-72 14 -129 43q-109 57 -108 113z" />
<glyph unicode="&#xd3;" horiz-adv-x="1134" d="M74 334q0 184 93 361t240.5 311.5t323.5 239t349 158.5t314.5 54t202.5 -106h13q53 31 101 30.5t72.5 -33t24.5 -89t-69.5 -183.5t-182 -272.5t-266 -296t-311.5 -272t-325 -198.5t-290.5 -77t-206.5 94.5t-83 278.5zM575 256q0 -74 62 -74q106 0 339.5 199t426 442.5 t194.5 360.5q0 18 -16 18q-43 0 -166 -139t-139 -189q-2 -2 -7 -10t-12 -16q-12 -18 -40.5 -18.5t-47 17t-18.5 44.5t58.5 115t58.5 94t-6 6q-45 0 -212 -163t-321 -373t-154 -314zM1597 1518q0 66 137.5 174t225.5 108t113 -55q10 -27 10 -43q0 -49 -65.5 -80t-131.5 -37 l-65 -6q-51 -8 -168 -68l-37 -20q-18 8 -19 27z" />
<glyph unicode="&#xd4;" horiz-adv-x="1134" d="M74 334q0 184 93 361t240.5 311.5t323.5 239t349 158.5t314.5 54t202.5 -106h13q53 31 101 30.5t72.5 -33t24.5 -89t-69.5 -183.5t-182 -272.5t-266 -296t-311.5 -272t-325 -198.5t-290.5 -77t-206.5 94.5t-83 278.5zM575 256q0 -74 62 -74q106 0 339.5 199t426 442.5 t194.5 360.5q0 18 -16 18q-43 0 -166 -139t-139 -189q-2 -2 -7 -10t-12 -16q-12 -18 -40.5 -18.5t-47 17t-18.5 44.5t58.5 115t58.5 94t-6 6q-45 0 -212 -163t-321 -373t-154 -314zM1446 1579q0 74 129 162t303 88q31 0 62.5 -104.5t31.5 -198.5t-43 -94q-86 0 -131 210 q-31 -8 -139.5 -29.5t-151.5 -43.5q-23 -8 -42 -8t-19 18z" />
<glyph unicode="&#xd5;" horiz-adv-x="1134" d="M74 334q0 184 93 361t240.5 311.5t323.5 239t349 158.5t314.5 54t202.5 -106h13q53 31 101 30.5t72.5 -33t24.5 -89t-69.5 -183.5t-182 -272.5t-266 -296t-311.5 -272t-325 -198.5t-290.5 -77t-206.5 94.5t-83 278.5zM575 256q0 -74 62 -74q106 0 339.5 199t426 442.5 t194.5 360.5q0 18 -16 18q-43 0 -166 -139t-139 -189q-2 -2 -7 -10t-12 -16q-12 -18 -40.5 -18.5t-47 17t-18.5 44.5t58.5 115t58.5 94t-6 6q-45 0 -212 -163t-321 -373t-154 -314zM1423 1649v2q27 53 82.5 89t106.5 36t139 -57.5t120 -57.5t46 22.5t26.5 21.5t27 -16.5 t13 -27.5t-5.5 -22.5t-22.5 -37t-40.5 -45.5q-61 -53 -154 -53q-53 8 -129 66.5t-99.5 60.5t-38.5 -11t-29.5 -12t-28 13t-13.5 29z" />
<glyph unicode="&#xd6;" horiz-adv-x="1134" d="M74 334q0 184 93 361t240.5 311.5t323.5 239t349 158.5t314.5 54t202.5 -106h13q53 31 101 30.5t72.5 -33t24.5 -89t-69.5 -183.5t-182 -272.5t-266 -296t-311.5 -272t-325 -198.5t-290.5 -77t-206.5 94.5t-83 278.5zM575 256q0 -74 62 -74q106 0 339.5 199t426 442.5 t194.5 360.5q0 18 -16 18q-43 0 -166 -139t-139 -189q-2 -2 -7 -10t-12 -16q-12 -18 -40.5 -18.5t-47 17t-18.5 44.5t58.5 115t58.5 94t-6 6q-45 0 -212 -163t-321 -373t-154 -314zM1274 1671q10 98 88 149.5t135 51.5q84 0 84 -84q0 -53 -63.5 -128t-161.5 -85 q-35 0 -55.5 23.5t-22.5 48.5zM1583 1655q10 98 88 149t135 51q84 0 84 -83q0 -53 -63.5 -128t-161.5 -85q-35 0 -55.5 23.5t-24.5 47.5z" />
<glyph unicode="&#xd7;" horiz-adv-x="1003" d="M25 408l409 323q-129 207 -129 275q0 10 35 47t42 37t9 -9l148 -274q322 236 341 235.5t19 -26t-14.5 -49t-47 -54t-63.5 -57.5q-121 -96 -178 -143q213 -352 213 -365q0 -25 -64 -53q-102 117 -245 334q-104 -90 -252 -193.5t-172 -103.5q-51 0 -51 76z" />
<glyph unicode="&#xd8;" horiz-adv-x="1134" d="M74 334q0 184 93 361t240.5 311.5t323.5 239t349 158.5t275.5 54t149.5 -20q25 35 48.5 67.5t35.5 50.5q57 88 105 89q23 0 41 -14.5t18 -34t-149 -244.5h6q53 31 101 30.5t72.5 -33t24.5 -73.5q0 -117 -163.5 -353.5t-427 -484.5t-508.5 -375q-182 -254 -212 -290.5 t-60.5 -36.5t-46 21.5t-15.5 43t24.5 56t83.5 120.5q-72 -16 -131 -16q-113 0 -195.5 94.5t-82.5 278.5zM575 256q0 -70 52 -74q330 469 641 916v2q0 6 -6 6q-45 0 -212 -163t-321 -373t-154 -314zM877 303q238 176 478 462t242 419q0 18 -16 18q-47 0 -201 -178 q-209 -305 -503 -721z" />
<glyph unicode="&#xd9;" horiz-adv-x="1351" d="M-33 262q0 86 80 208t204 244t242.5 227.5t231.5 197.5t129 107.5t16 22.5t-17 7t-106.5 -49t-116 -49t-32.5 28q0 59 108.5 121t239.5 98.5t210 36.5t130 -45t51 -112q0 -141 -139 -301q-242 -270 -245 -273.5t-3 -11.5q0 -20 19 -21q10 0 18 7.5t225 168.5 q616 463 662.5 503t86.5 40t62.5 -17.5t22.5 -55t-55 -105.5q-2 -2 -160 -178t-295 -332q-465 -532 -465 -588q0 -12 11.5 -12t21.5 5t111.5 70.5t129 65.5t27.5 -22q0 -51 -92 -121t-211 -120t-192 -50q-147 0 -166 162q6 121 180 348q14 14 14 23.5t-6 9.5 q-25 0 -179.5 -117t-331.5 -233.5t-256 -116.5t-122 71.5t-43 157.5zM1477 1798q0 35 25.5 63.5t64.5 28.5q98 0 227 -129t129 -219q-2 -12 -22 -22q-125 102 -187 122q-72 14 -129 44q-109 57 -108 112z" />
<glyph unicode="&#xda;" horiz-adv-x="1351" d="M-33 262q0 -86 43 -157.5t122 -71.5t256 116.5t331.5 233.5t179.5 117q6 0 6 -9.5t-14 -23.5q-174 -227 -180 -348q18 -162 166 -162q74 0 192.5 50t210.5 120t92 121q0 23 -27.5 22.5t-129 -66t-111.5 -70.5t-21.5 -5t-11.5 11.5t21.5 50t165 210.5t279.5 328t294 332 t160 178q55 68 55 104q0 74 -78 74q-47 0 -80 -28.5t-247 -190.5t-430 -323.5t-224 -169t-18 -7.5q-18 0 -19 21q0 8 3 11t245 274q139 160 139 301q0 67 -51 112t-130 45t-210 -36.5t-239.5 -98t-108.5 -121.5q6 -29 32.5 -28.5t116 49.5t106.5 49t17 -7t-16 -22.5 t-129 -107.5t-231.5 -197.5t-242.5 -227.5t-204 -244t-80 -208zM1655 1548q0 66 137 174.5t225 108.5t113 -55q10 -27 10 -43q0 -49 -65.5 -80t-130.5 -37l-66 -6q-51 -8 -168 -70l-37 -18q-18 10 -18 26z" />
<glyph unicode="&#xdb;" horiz-adv-x="1351" d="M-33 262q0 -86 43 -157.5t122 -71.5t256 116.5t331.5 233.5t179.5 117q6 0 6 -9.5t-14 -23.5q-174 -227 -180 -348q18 -162 166 -162q74 0 192.5 50t210.5 120t92 121q0 23 -27.5 22.5t-129 -66t-111.5 -70.5t-21.5 -5t-11.5 11.5t21.5 50t165 210.5t279.5 328t294 332 t160 178q55 68 55 104q0 74 -78 74q-47 0 -80 -28.5t-247 -190.5t-430 -323.5t-224 -169t-18 -7.5q-18 0 -19 21q0 8 3 11t245 274q139 160 139 301q0 67 -51 112t-130 45t-210 -36.5t-239.5 -98t-108.5 -121.5q6 -29 32.5 -28.5t116 49.5t106.5 49t17 -7t-16 -22.5 t-129 -107.5t-231.5 -197.5t-242.5 -227.5t-204 -244t-80 -208zM1516 1634q0 74 129 162t303 88q31 0 62.5 -104.5t31.5 -198.5t-43 -94q-86 0 -131 211q-31 -8 -139.5 -29.5t-151.5 -44.5q-23 -8 -42 -8t-19 18z" />
<glyph unicode="&#xdc;" horiz-adv-x="1351" d="M-33 262q0 -86 43 -157.5t122 -71.5t256 116.5t331.5 233.5t179.5 117q6 0 6 -9.5t-14 -23.5q-174 -227 -180 -348q18 -162 166 -162q74 0 192.5 50t210.5 120t92 121q0 23 -27.5 22.5t-129 -66t-111.5 -70.5t-21.5 -5t-11.5 11.5t21.5 50t165 210.5t279.5 328t294 332 t160 178q55 68 55 104q0 74 -78 74q-47 0 -80 -28.5t-247 -190.5t-430 -323.5t-224 -169t-18 -7.5q-18 0 -19 21q0 8 3 11t245 274q139 160 139 301q0 67 -51 112t-130 45t-210 -36.5t-239.5 -98t-108.5 -121.5q6 -29 32.5 -28.5t116 49.5t106.5 49t17 -7t-16 -22.5 t-129 -107.5t-231.5 -197.5t-242.5 -227.5t-204 -244t-80 -208zM1372 1647q10 98 88 149t135 51q84 0 84 -84q0 -53 -63.5 -128t-161.5 -85q-35 0 -55.5 23.5t-22.5 48.5zM1681 1630q10 98 88 149.5t136 51.5q84 0 84 -84q0 -53 -64 -128t-162 -85q-35 0 -55 23.5t-25 48.5z " />
<glyph unicode="&#xdd;" horiz-adv-x="1114" d="M-49 271q0 -74 50 -144t140 -70q170 0 686 344q74 49 100.5 67.5t35 18.5t8.5 -4q0 -8 -13 -22q-68 -63 -366.5 -396t-360.5 -417q-109 -147 -108 -238q0 -45 35 -104.5t80 -59.5q27 0 54 36t90.5 138.5t120 179t166 211t233.5 277.5t270.5 311t255 291t206 233.5 t108.5 123t51 57.5t67 76q72 82 71 127q0 72 -61 71q-37 0 -68 -30q-188 -199 -479 -429.5t-472 -354.5t-216 -144.5t-47.5 -20.5t-12.5 19l3 14q4 6 199.5 206.5t318.5 350.5q76 86 75 178q0 231 -231 232q-113 0 -248 -54.5t-226 -126t-91 -124.5q0 -23 15.5 -38.5 t30.5 -15.5t55 21.5t81 44.5q119 70 129 78t21.5 8t11.5 -4q0 -51 -352.5 -377t-386.5 -405q-29 -61 -29 -135zM1460 1499q0 66 137.5 174.5t225 108t112.5 -55.5q10 -27 11 -43q0 -49 -65.5 -79.5t-131.5 -36.5l-66 -6q-51 -8 -167 -70l-37 -18q-18 10 -19 26z" />
<glyph unicode="&#xde;" horiz-adv-x="1284" d="M-14 676q0 156 194.5 304t477 235.5t544.5 87.5q82 0 182 -15q14 18 31 39l25 31q8 10 10 12q49 70 92 70q23 0 41.5 -14.5t18.5 -33t-89 -137.5q272 -98 273 -362q0 -80 -69.5 -174t-193.5 -182t-327 -153t-438 -79q-174 -213 -238 -289q-27 -33 -57.5 -32.5t-46 22 t-15.5 43t13 37.5q74 90 178 219q-61 20 -61.5 64.5t27 63t60.5 18.5l87 -7q268 330 348 433q-276 -51 -499.5 -137.5t-223.5 -151.5q0 -6 15 -6t87 25.5t96.5 25.5t30.5 -17q0 -51 -113.5 -107t-222 -56t-173 53t-64.5 170zM879 455q279 35 529.5 155.5t250.5 255.5 q0 51 -236 52q-84 0 -180 -13q-82 -104 -364 -450z" />
<glyph unicode="&#xdf;" horiz-adv-x="1101" d="M-43 -188q0 115 139.5 381t314.5 524t336.5 457.5t202.5 199.5q80 0 138.5 -29.5t87.5 -74.5q53 -84 53 -164q0 -129 -63.5 -213t-196.5 -164q-18 -14 -19 -24q0 -4 15 -9q80 0 155 -57q90 -72 90 -254q0 -117 -42 -213t-105.5 -157.5t-140.5 -104.5q-139 -76 -256 -76 q-109 0 -187 80q-47 51 -47 125t30.5 142.5t59.5 72.5q70 -31 135 -31q147 0 255 106.5t108 205.5q0 80 -82 79q-57 0 -88 -12h-8q-25 0 -44.5 15.5t-19.5 35.5q0 33 53 56q16 8 83 51t106 71q98 76 98 115t-72.5 39t-194.5 -123t-237 -297q-246 -373 -385 -647l-63 -123 q-100 -111 -138 -110.5t-54.5 39t-16.5 88.5z" />
<glyph unicode="&#xe0;" d="M78 139q0 68 52 157t137 170t209 136t253 55q70 0 130.5 -36.5t60.5 -86t-97 -59.5q-72 -16 -236.5 -117.5t-164.5 -154.5q0 -23 22 -23q41 0 194 117t183.5 117t30.5 -37q0 -27 -19.5 -50.5t-27.5 -33.5q-16 -20 -84 -91t-68 -120q0 -10 15 -14q14 0 99 58t96 64.5 t22 6.5q29 0 28.5 -28t-144.5 -122t-204 -94q-25 0 -52.5 20.5t-27.5 48t14.5 60.5t14.5 44t-6 11t-12 -4q-199 -150 -293 -149q-53 0 -84 38.5t-37 77.5zM481 967q0 35 25.5 63.5t64.5 28.5q98 0 227.5 -129t129.5 -219q-2 -12 -23 -23q-125 102 -186 123q-72 14 -129 43 q-109 57 -109 113z" />
<glyph unicode="&#xe1;" d="M78 139q0 68 52 157t137 170t209 136t253 55q70 0 130.5 -36.5t60.5 -86t-97 -59.5q-72 -16 -236.5 -117.5t-164.5 -154.5q0 -23 22 -23q41 0 194 117t183.5 117t30.5 -37q0 -27 -19.5 -50.5t-27.5 -33.5q-16 -20 -84 -91t-68 -120q0 -10 15 -14q14 0 99 58t96 64.5 t22 6.5q29 0 28.5 -28t-144.5 -122t-204 -94q-25 0 -52.5 20.5t-27.5 48t14.5 60.5t14.5 44t-6 11t-12 -4q-199 -150 -293 -149q-53 0 -84 38.5t-37 77.5zM844 729q0 66 137 174.5t225 108t113 -55.5q10 -27 10 -43q0 -49 -65.5 -79.5t-130.5 -36.5l-66 -6q-51 -8 -168 -70 l-37 -19q-18 10 -18 27z" />
<glyph unicode="&#xe2;" d="M78 139q0 68 52 157t137 170t209 136t253 55q70 0 130.5 -36.5t60.5 -86t-97 -59.5q-72 -16 -236.5 -117.5t-164.5 -154.5q0 -23 22 -23q41 0 194 117t183.5 117t30.5 -37q0 -27 -19.5 -50.5t-27.5 -33.5q-16 -20 -84 -91t-68 -120q0 -10 15 -14q14 0 99 58t96 64.5 t22 6.5q29 0 28.5 -28t-144.5 -122t-204 -94q-25 0 -52.5 20.5t-27.5 48t14.5 60.5t14.5 44t-6 11t-12 -4q-199 -150 -293 -149q-53 0 -84 38.5t-37 77.5zM578 774q0 74 129 162t303 88q31 0 62.5 -104.5t31.5 -198.5t-43 -94q-86 0 -131 211q-31 -8 -139.5 -30t-151.5 -44 q-23 -8 -42 -8t-19 18z" />
<glyph unicode="&#xe3;" d="M78 139q0 68 52 157t137 170t209 136t253 55q70 0 130.5 -36.5t60.5 -86t-97 -59.5q-72 -16 -236.5 -117.5t-164.5 -154.5q0 -23 22 -23q41 0 194 117t183.5 117t30.5 -37q0 -27 -19.5 -50.5t-27.5 -33.5q-16 -20 -84 -91t-68 -120q0 -10 15 -14q14 0 99 58t96 64.5 t22 6.5q29 0 28.5 -28t-144.5 -122t-204 -94q-25 0 -52.5 20.5t-27.5 48t14.5 60.5t14.5 44t-6 11t-12 -4q-199 -150 -293 -149q-53 0 -84 38.5t-37 77.5zM602 868v2q27 53 82 89t106.5 36t139.5 -57t119.5 -57t46 22.5t27 21.5t26.5 -16.5t13 -28t-5 -22.5t-22.5 -36.5 t-40.5 -47.5q-61 -51 -154 -51q-53 8 -129 66.5t-99.5 60.5t-39 -11.5t-29.5 -12.5t-27.5 13.5t-13.5 28.5z" />
<glyph unicode="&#xe4;" d="M78 139q0 68 52 157t137 170t209 136t253 55q70 0 130.5 -36.5t60.5 -86t-97 -59.5q-72 -16 -236.5 -117.5t-164.5 -154.5q0 -23 22 -23q41 0 194 117t183.5 117t30.5 -37q0 -27 -19.5 -50.5t-27.5 -33.5q-16 -20 -84 -91t-68 -120q0 -10 15 -14q14 0 99 58t96 64.5 t22 6.5q29 0 28.5 -28t-144.5 -122t-204 -94q-25 0 -52.5 20.5t-27.5 48t14.5 60.5t14.5 44t-6 11t-12 -4q-199 -150 -293 -149q-53 0 -84 38.5t-37 77.5zM600 823q10 98 88 149.5t135 51.5q84 0 84 -84q0 -53 -63.5 -128t-161.5 -85q-35 0 -55.5 23.5t-24.5 48.5zM909 807 q10 98 88 149.5t136 51.5q84 0 84 -84q0 -53 -64 -128t-162 -85q-35 0 -55.5 23.5t-22.5 47.5z" />
<glyph unicode="&#xe5;" d="M78 139q0 68 52 157t137 170t209 136t253 55q70 0 130.5 -36.5t60.5 -86t-97 -59.5q-72 -16 -236.5 -117.5t-164.5 -154.5q0 -23 22 -23q41 0 194 117t183.5 117t30.5 -37q0 -27 -19.5 -50.5t-27.5 -33.5q-16 -20 -84 -91t-68 -120q0 -10 15 -14q14 0 99 58t96 64.5 t22 6.5q29 0 28.5 -28t-144.5 -122t-204 -94q-25 0 -52.5 20.5t-27.5 48t14.5 60.5t14.5 44t-6 11t-12 -4q-199 -150 -293 -149q-53 0 -84 38.5t-37 77.5zM748 813q0 66 84 134.5t188 68.5q39 0 61.5 -20.5t24.5 -41.5l4 -18q0 -94 -86 -146.5t-158 -52.5q-119 0 -118 76z M889 846q0 -21 29 -21q84 27 83 80q0 23 -26.5 23t-56 -29t-29.5 -53z" />
<glyph unicode="&#xe6;" horiz-adv-x="1292" d="M78 139q0 68 52 157t137 170t209 136t253 55q74 0 131 -39q86 72 216 119t226.5 47t156 -33.5t59.5 -102t-95.5 -128t-136.5 -59.5q-16 0 -29.5 8t-13.5 18.5t56.5 34t56.5 43.5q0 10 -30 10t-193.5 -64.5t-163.5 -90.5q0 -23 59 -23l100 11q70 0 70 -70q0 -37 -68.5 -82 t-136 -83t-67.5 -58q0 -14 32 -19q72 0 273 115t215 115q29 0 29 -29q-2 -20 -130 -101t-299.5 -156t-248 -75t-113.5 33q-86 -45 -114.5 -45t-56.5 20.5t-28 48t14.5 60.5t14.5 44t-6 11t-12 -4q-199 -150 -293 -149q-53 0 -84 38.5t-37 77.5zM422 203q0 -23 30.5 -23 t192.5 87t197 102q-74 35 -80 84q-111 -49 -225.5 -127t-114.5 -123z" />
<glyph unicode="&#xe7;" horiz-adv-x="735" d="M14 -119q0 33 31 33q23 0 66 -18.5t78.5 -18.5t35.5 9.5t-35.5 42t-35.5 57.5v6q-80 45 -80 125q0 123 109.5 253t254 211t245.5 81t152.5 -26t51.5 -95.5t-89 -160.5t-153 -91q-41 0 -41 24q0 16 21 29q23 12 71.5 57t48.5 62q0 6 -12 6q-72 0 -203 -131t-131 -197 q0 -33 36 -33t116 42t196.5 114t134 81t27.5 9q29 1 29 -28q-2 -20 -133 -107.5t-303 -169.5t-258 -82q0 -20 43 -48t43 -75t-30 -74.5t-103.5 -27.5t-133.5 35q-18 8 -33.5 45t-15.5 61z" />
<glyph unicode="&#xe8;" horiz-adv-x="733" d="M84 115q0 43 58.5 94t116.5 88t58 46t-28 22q-86 37 -86 98q0 115 191.5 218t355.5 103q90 0 149 -33.5t59 -102t-95 -128t-136 -59.5q-16 0 -29.5 8t-13.5 18.5t56.5 34t56.5 43.5q0 10 -30 10t-193.5 -64.5t-163.5 -90.5q0 -23 59 -23l100 11q70 0 70 -70 q0 -37 -67.5 -82t-136 -83t-68.5 -58q0 -14 32 -19q72 0 272.5 115t215.5 115q29 0 28 -29q-2 -20 -130 -101t-299 -156t-261 -75q-141 0 -141 150zM494 1110q0 35 25.5 63.5t64.5 28.5q98 0 227 -129t129 -219q-2 -12 -22 -23q-125 102 -187 123q-72 14 -129 43 q-109 57 -108 113z" />
<glyph unicode="&#xe9;" horiz-adv-x="733" d="M84 115q0 43 58.5 94t116.5 88t58 46t-28 22q-86 37 -86 98q0 115 191.5 218t355.5 103q90 0 149 -33.5t59 -102t-95 -128t-136 -59.5q-16 0 -29.5 8t-13.5 18.5t56.5 34t56.5 43.5q0 10 -30 10t-193.5 -64.5t-163.5 -90.5q0 -23 59 -23l100 11q70 0 70 -70 q0 -37 -67.5 -82t-136 -83t-68.5 -58q0 -14 32 -19q72 0 272.5 115t215.5 115q29 0 28 -29q-2 -20 -130 -101t-299 -156t-261 -75q-141 0 -141 150zM776 895q0 66 137.5 174.5t225 108t112.5 -55.5q10 -27 11 -43q0 -49 -66 -79.5t-131 -36.5l-66 -7q-51 -8 -168 -67 l-36 -21q-18 8 -19 27z" />
<glyph unicode="&#xea;" horiz-adv-x="733" d="M84 115q0 43 58.5 94t116.5 88t58 46t-28 22q-86 37 -86 98q0 115 191.5 218t355.5 103q90 0 149 -33.5t59 -102t-95 -128t-136 -59.5q-16 0 -29.5 8t-13.5 18.5t56.5 34t56.5 43.5q0 10 -30 10t-193.5 -64.5t-163.5 -90.5q0 -23 59 -23l100 11q70 0 70 -70 q0 -37 -67.5 -82t-136 -83t-68.5 -58q0 -14 32 -19q72 0 272.5 115t215.5 115q29 0 28 -29q-2 -20 -130 -101t-299 -156t-261 -75q-141 0 -141 150zM545 899q0 74 129 162t303 88q31 0 62.5 -104.5t31.5 -198.5t-43 -94q-86 0 -131 211q-31 -8 -139.5 -30t-151.5 -44 q-23 -8 -42 -8t-19 18z" />
<glyph unicode="&#xeb;" horiz-adv-x="733" d="M84 115q0 43 58.5 94t116.5 88t58 46t-28 22q-86 37 -86 98q0 115 191.5 218t355.5 103q90 0 149 -33.5t59 -102t-95 -128t-136 -59.5q-16 0 -29.5 8t-13.5 18.5t56.5 34t56.5 43.5q0 10 -30 10t-193.5 -64.5t-163.5 -90.5q0 -23 59 -23l100 11q70 0 70 -70 q0 -37 -67.5 -82t-136 -83t-68.5 -58q0 -14 32 -19q72 0 272.5 115t215.5 115q29 0 28 -29q-2 -20 -130 -101t-299 -156t-261 -75q-141 0 -141 150zM481 948q10 98 88 149.5t136 51.5q84 0 83 -84q0 -53 -63.5 -128t-161.5 -85q-35 0 -55.5 24.5t-24.5 49.5zM791 932 q10 98 87.5 149.5t135.5 51.5q84 0 84 -84q0 -53 -64 -128t-162 -85q-35 0 -55 24.5t-22 48.5z" />
<glyph unicode="&#xec;" horiz-adv-x="512" d="M23 51q0 143 171 325.5t318 209.5q92 0 92 -109q0 -35 -92 -164t-211 -247.5t-168 -118.5t-79.5 29.5t-30.5 74.5zM272 944q0 35 25.5 63.5t64.5 28.5q98 0 227.5 -129t129.5 -219q-2 -12 -23 -22q-125 102 -186 122q-72 14 -129 43q-109 57 -109 113z" />
<glyph unicode="&#xed;" horiz-adv-x="466" d="M23 51q0 -45 30.5 -74.5t79.5 -29.5t168 118.5t211 247.5t92 164q0 109 -92 109q-147 -27 -318 -209t-171 -326zM623 717q0 66 137 174t225 108t113 -55q10 -27 10 -43q0 -49 -65.5 -79.5t-131.5 -37.5l-65 -6q-51 -8 -168 -69l-37 -19q-18 10 -18 27z" />
<glyph unicode="&#xee;" horiz-adv-x="512" d="M23 51q0 -45 30.5 -74.5t79.5 -29.5t168 118.5t211 247.5t92 164q0 109 -92 109q-147 -27 -318 -209t-171 -326zM305 741q0 74 129 162t303 88q31 0 62.5 -104.5t31.5 -198.5t-43 -94q-86 0 -131 211q-31 -8 -139 -29.5t-151 -44.5q-23 -8 -42.5 -8t-19.5 18z" />
<glyph unicode="&#xef;" horiz-adv-x="466" d="M23 51q0 -45 30.5 -74.5t79.5 -29.5t168 118.5t211 247.5t92 164q0 109 -92 109q-147 -27 -318 -209t-171 -326zM391 782q10 98 88 149.5t135 51.5q84 0 84 -84q0 -53 -63.5 -128t-161.5 -85q-35 0 -55.5 23.5t-24.5 48.5zM700 766q10 98 88 149.5t136 51.5q84 0 84 -84 q0 -53 -64 -128t-162 -85q-35 0 -55 23.5t-22 47.5z" />
<glyph unicode="&#xf0;" horiz-adv-x="690" d="M111 157.5q0 106.5 73.5 209t179 171t213 112.5t185.5 48q18 55 18 152v102q-82 -12 -133 -12t-51 38t51 38t125 4q-12 127 -44 215t-62.5 119.5t-54 53.5t-23.5 30q0 90 141 104q98 -41 149.5 -173t51.5 -316q43 16 59 41q31 0 31 -25q0 -43 -90 -80q-10 -240 -88 -472 t-229.5 -397t-338.5 -165q-72 0 -117.5 48t-45.5 154.5zM377 133q0 -39 26 -39q162 0 295 383q-86 -47 -203.5 -158.5t-117.5 -185.5z" />
<glyph unicode="&#xf1;" horiz-adv-x="933" d="M41 143q0 82 231.5 300.5t313.5 218.5q31 -4 53.5 -35t22.5 -73t-31 -91q-45 -72 -73 -99.5t-28 -34.5t6.5 -7t17.5 7t194.5 126.5t206 133t49 13.5t69.5 -25.5t43 -68.5t-74.5 -127t-150.5 -162t-76 -110q0 -17 23 -17l63 25q29 0 29 -23q0 -53 -87 -101t-166 -48 t-122 33.5t-43 103.5t80 172q10 10 10 17.5t-8 7.5t-14.5 -4.5t-87.5 -55.5q-197 -125 -281 -174q-35 -18 -65.5 -18t-67.5 38.5t-37 77.5zM690 840v2q27 53 82 89t106.5 36t139.5 -57.5t119.5 -57.5t46 22.5t27 21.5t26.5 -16.5t13 -27.5t-5 -22.5t-22.5 -37t-40.5 -47.5 q-61 -51 -154 -51q-53 8 -129 66.5t-99.5 60.5t-39 -11t-29.5 -12t-27.5 13t-13.5 29z" />
<glyph unicode="&#xf2;" horiz-adv-x="684" d="M68 156q0 145 95 271t216 189.5t219 63.5q166 -18 166 -100q0 -23 -11.5 -40.5t-18.5 -20.5t-17 -5q-25 -6 -25 -29q0 -55 66 -55q61 0 135 31t80 31t13 -10.5t7 -20.5q0 -23 -95 -58.5t-138 -35.5t-60.5 1t-27.5 -22q-152 -285 -301 -358q-66 -33 -138.5 -33t-118.5 48 t-46 153zM334 142q0 -48 26 -48q41 0 151 126t110 208q0 12 -15.5 12t-81 -49t-128 -125t-62.5 -124zM352 1012q0 35 25.5 63.5t64.5 28.5q98 0 227.5 -129t129.5 -219q-2 -12 -23 -23q-125 102 -186 123q-72 14 -129 43q-109 57 -109 113z" />
<glyph unicode="&#xf3;" horiz-adv-x="684" d="M68 156q0 145 95 271t216 189.5t219 63.5q166 -18 166 -100q0 -23 -11.5 -40.5t-18.5 -20.5t-17 -5q-25 -6 -25 -29q0 -55 66 -55q61 0 135 31t80 31t13 -10.5t7 -20.5q0 -23 -95 -58.5t-138 -35.5t-60.5 1t-27.5 -22q-152 -285 -301 -358q-66 -33 -138.5 -33t-118.5 48 t-46 153zM334 142q0 -48 26 -48q41 0 151 126t110 208q0 12 -15.5 12t-81 -49t-128 -125t-62.5 -124zM682 760q0 66 137 174t225 108t113 -55q10 -27 10 -43q0 -49 -65.5 -79.5t-130.5 -37.5l-66 -6q-51 -8 -168 -67l-37 -21q-18 8 -18 27z" />
<glyph unicode="&#xf4;" horiz-adv-x="684" d="M68 156q0 145 95 271t216 189.5t219 63.5q166 -18 166 -100q0 -23 -11.5 -40.5t-18.5 -20.5t-17 -5q-25 -6 -25 -29q0 -55 66 -55q61 0 135 31t80 31t13 -10.5t7 -20.5q0 -23 -95 -58.5t-138 -35.5t-60.5 1t-27.5 -22q-152 -285 -301 -358q-66 -33 -138.5 -33t-118.5 48 t-46 153zM334 142q0 -48 26 -48q41 0 151 126t110 208q0 12 -15.5 12t-81 -49t-128 -125t-62.5 -124zM371 811q0 74 129 162t303 88q31 0 62.5 -104.5t31.5 -198.5t-43 -94q-86 0 -131 210q-31 -8 -139.5 -29.5t-151.5 -43.5q-23 -8 -42 -8t-19 18z" />
<glyph unicode="&#xf5;" horiz-adv-x="684" d="M68 156q0 145 95 271t216 189.5t219 63.5q166 -18 166 -100q0 -23 -11.5 -40.5t-18.5 -20.5t-17 -5q-25 -6 -25 -29q0 -55 66 -55q61 0 135 31t80 31t13 -10.5t7 -20.5q0 -23 -95 -58.5t-138 -35.5t-60.5 1t-27.5 -22q-152 -285 -301 -358q-66 -33 -138.5 -33t-118.5 48 t-46 153zM334 142q0 -48 26 -48q41 0 151 126t110 208q0 12 -15.5 12t-81 -49t-128 -125t-62.5 -124zM446 874v3q27 53 82.5 88.5t106.5 35.5t139 -57t120 -57t46 22.5t26.5 21.5t27 -16.5t13.5 -28t-5.5 -22.5t-22.5 -36.5t-41 -45.5q-61 -53 -154 -53q-53 8 -128.5 66.5 t-99.5 60.5t-39 -11.5t-29.5 -12t-28 13.5t-13.5 28z" />
<glyph unicode="&#xf6;" horiz-adv-x="684" d="M68 156q0 145 95 271t216 189.5t219 63.5q166 -18 166 -100q0 -23 -11.5 -40.5t-18.5 -20.5t-17 -5q-25 -6 -25 -29q0 -55 66 -55q61 0 135 31t80 31t13 -10.5t7 -20.5q0 -23 -95 -58.5t-138 -35.5t-60.5 1t-27.5 -22q-152 -285 -301 -358q-66 -33 -138.5 -33t-118.5 48 t-46 153zM334 142q0 -48 26 -48q41 0 151 126t110 208q0 12 -15.5 12t-81 -49t-128 -125t-62.5 -124zM422 868q10 98 88 149.5t135 51.5q84 0 84 -84q0 -53 -63.5 -128t-161.5 -85q-35 0 -55.5 23.5t-22.5 48.5zM731 852q10 98 88 149.5t135 51.5q84 0 84 -84 q0 -53 -63.5 -128t-161.5 -85q-35 0 -55.5 23.5t-24.5 47.5z" />
<glyph unicode="&#xf7;" horiz-adv-x="1222" d="M84 630.5q0 26.5 10 47.5q20 37 918 37q98 0 133 -12.5t35 -51.5t-21 -59.5t-35 -20.5l-964 -2q-31 0 -53.5 17.5t-22.5 44zM365 275.5q0 25.5 19 55t51 65.5t86.5 62.5t111.5 26.5q84 0 84 -82q0 -74 -85 -144.5t-153.5 -70.5t-91 31t-22.5 56.5zM594 900q0 26 25.5 72 t87 96t137.5 58q41 0 63.5 -18t24.5 -39l2 -18q0 -78 -76 -153t-156 -83q-57 0 -82.5 29.5t-25.5 55.5z" />
<glyph unicode="&#xf8;" horiz-adv-x="714" d="M68 -88q0 16 14 36.5t51 69.5q-35 51 -35 138q0 203 166 352t332 170q25 37 50.5 71.5t38.5 53t15 20.5q0 4 17 21q25 25 41 24.5t27.5 -9.5t11.5 -25.5t-103 -165.5q100 -23 101 -88q0 -23 -11.5 -40.5t-18.5 -20.5t-15 -5q-27 -6 -27 -29q0 -55 65 -55q61 0 135 31 t80.5 31t13.5 -10.5t7 -20.5q0 -23 -95 -58.5t-138 -35.5t-60.5 1t-28.5 -22q-152 -285 -301 -358q-66 -33 -121 -33t-81 12q-14 -18 -27 -37q-27 -37 -31 -41q-14 -20 -34.5 -20t-29.5 13.5t-9 29.5zM365 142q0 -48 26 -48q41 0 150.5 126t109.5 208q0 12 -15 12t-81 -49 t-128 -125t-62 -124z" />
<glyph unicode="&#xf9;" horiz-adv-x="927" d="M70 131q0 86 61.5 176t141 151.5t148 100.5t93.5 39t61.5 -35t36.5 -66.5t-22 -50.5q-152 -133 -152 -184q0 -27 25 -26q59 0 169.5 97t180.5 177q55 57 96 57t81 -29.5t40 -53t-10 -41t-82 -108.5t-91.5 -115.5t-19.5 -41t8.5 -16.5t15.5 1t51 31.5t93 67.5q64 47 82 47 q29 0 29 -30.5t-90 -107.5t-214 -142.5t-204 -65.5q-100 0 -100 109q0 27 20.5 58.5t20.5 35.5q0 12 -14.5 12t-19.5 -2t-71 -41q-186 -115 -237.5 -115t-89 34t-37.5 77zM391 909q0 35 25.5 63.5t64.5 28.5q98 0 227.5 -129t129.5 -219q-2 -12 -23 -22q-125 102 -186 123 q-72 14 -129 43q-109 57 -109 112z" />
<glyph unicode="&#xfa;" horiz-adv-x="927" d="M70 131q0 86 61.5 176t141 151.5t148 100.5t93.5 39t61.5 -35t36.5 -66.5t-22 -50.5q-152 -133 -152 -184q0 -27 25 -26q59 0 169.5 97t180.5 177q55 57 96 57t81 -29.5t40 -53t-10 -41t-82 -108.5t-91.5 -115.5t-19.5 -41t8.5 -16.5t15.5 1t51 31.5t93 67.5q64 47 82 47 q29 0 29 -30.5t-90 -107.5t-214 -142.5t-204 -65.5q-100 0 -100 109q0 27 20.5 58.5t20.5 35.5q0 12 -14.5 12t-19.5 -2t-71 -41q-186 -115 -237.5 -115t-89 34t-37.5 77zM748 696q0 66 137 174.5t225 108.5t113 -55q10 -27 10 -43q0 -49 -65.5 -80t-131.5 -37l-65 -6 q-51 -8 -168 -70l-37 -18q-18 10 -18 26z" />
<glyph unicode="&#xfb;" horiz-adv-x="927" d="M70 131q0 86 61.5 176t141 151.5t148 100.5t93.5 39t61.5 -35t36.5 -66.5t-22 -50.5q-152 -133 -152 -184q0 -27 25 -26q59 0 169.5 97t180.5 177q55 57 96 57t81 -29.5t40 -53t-10 -41t-82 -108.5t-91.5 -115.5t-19.5 -41t8.5 -16.5t15.5 1t51 31.5t93 67.5q64 47 82 47 q29 0 29 -30.5t-90 -107.5t-214 -142.5t-204 -65.5q-100 0 -100 109q0 27 20.5 58.5t20.5 35.5q0 12 -14.5 12t-19.5 -2t-71 -41q-186 -115 -237.5 -115t-89 34t-37.5 77zM602 774q0 74 129 162t303 88q31 0 62.5 -104.5t31.5 -198.5t-43 -94q-86 0 -131 211 q-31 -8 -139 -30t-151 -44q-23 -8 -42.5 -8t-19.5 18z" />
<glyph unicode="&#xfc;" horiz-adv-x="927" d="M70 131q0 86 61.5 176t141 151.5t148 100.5t93.5 39t61.5 -35t36.5 -66.5t-22 -50.5q-152 -133 -152 -184q0 -27 25 -26q59 0 169.5 97t180.5 177q55 57 96 57t81 -29.5t40 -53t-10 -41t-82 -108.5t-91.5 -115.5t-19.5 -41t8.5 -16.5t15.5 1t51 31.5t93 67.5q64 47 82 47 q29 0 29 -30.5t-90 -107.5t-214 -142.5t-204 -65.5q-100 0 -100 109q0 27 20.5 58.5t20.5 35.5q0 12 -14.5 12t-19.5 -2t-71 -41q-186 -115 -237.5 -115t-89 34t-37.5 77zM596 782q10 98 88 149.5t135 51.5q84 0 84 -84q0 -53 -63.5 -128t-161.5 -85q-35 0 -55.5 23.5 t-24.5 48.5zM905 766q10 98 88 149.5t135 51.5q84 0 84 -84q0 -53 -63.5 -128t-161.5 -85q-35 0 -55.5 23.5t-22.5 47.5z" />
<glyph unicode="&#xfd;" horiz-adv-x="749" d="M23 -472q0 42 6 78t38.5 93t86 123.5t95.5 117t96 110t61.5 68.5t7.5 15t-5.5 6t-94.5 -49t-145 -49t-84 55t-28 90q0 86 107.5 201t219.5 189.5t140.5 74.5t44 -41t15.5 -70.5t-3 -40t-6.5 -14.5t-10.5 -10t-14 -13t-68.5 -78t-68.5 -82t-7 -28.5t14 -17.5t24 8 q76 47 347 268q55 39 73.5 39t38 -17t19.5 -28q0 -59 -128 -242.5t-316.5 -428t-250 -336.5t-118.5 -92q-29 0 -57.5 29.5t-28.5 71.5zM745 729q0 66 137.5 174.5t225.5 108t113 -55.5q10 -27 10 -43q0 -49 -65.5 -79.5t-131.5 -36.5l-65 -6q-51 -8 -168 -70l-37 -19 q-18 10 -19 27z" />
<glyph unicode="&#xfe;" horiz-adv-x="868" d="M-373 -602q0 98 131 334.5t320 505.5q406 578 694 946l131 166q31 29 61.5 28.5t45 -23t13.5 -42t-221 -410.5t-226.5 -403.5t-6.5 -20.5t13.5 -8t64.5 45q158 135 238 135q145 0 145 -147q-10 -76 -92 -197t-206 -220t-228 -99q-45 0 -78 22.5t-49.5 45t-21.5 22.5 t-12 -10.5t-398 -655.5q-102 -162 -201 -162q-51 0 -84 46.5t-33 101.5zM406 152q0 -4 8 -5q78 0 233.5 146.5t155.5 206.5q-1 12 -17 12q-51 0 -215.5 -159.5t-164.5 -200.5z" />
<glyph unicode="&#xff;" horiz-adv-x="749" d="M23 -472q0 42 6 78t38.5 93t86 123.5t95.5 117t96 110t61.5 68.5t7.5 15t-5.5 6t-94.5 -49t-145 -49t-84 55t-28 90q0 86 107.5 201t219.5 189.5t140.5 74.5t44 -41t15.5 -70.5t-3 -40t-6.5 -14.5t-10.5 -10t-14 -13t-68.5 -78t-68.5 -82t-7 -28.5t14 -17.5t24 8 q76 47 347 268q55 39 73.5 39t38 -17t19.5 -28q0 -59 -128 -242.5t-316.5 -428t-250 -336.5t-118.5 -92q-29 0 -57.5 29.5t-28.5 71.5zM565 819q10 98 88 149.5t135 51.5q84 0 84 -84q0 -53 -63.5 -128t-161.5 -85q-35 0 -55.5 23.5t-22.5 48.5zM874 803q10 98 88 149.5 t136 51.5q84 0 84 -84q0 -53 -64 -128t-162 -85q-35 0 -55 23.5t-24 47.5z" />
<glyph unicode="&#x152;" horiz-adv-x="2244" d="M74 334q0 184 93 361t240.5 311.5t323.5 239t349 158.5t309 54q61 0 128.5 -46t96.5 -120q166 113 413.5 187.5t452.5 74.5q342 -2 342 -192q0 -82 -63.5 -183.5t-136 -166t-107.5 -64.5q-16 0 -28.5 13.5t-12.5 35t40 66.5t40 67.5t-51 22.5q-133 0 -431 -109.5 t-300 -164.5q2 -14 54 -14.5t118.5 10t101.5 10.5q92 0 92 -49q0 -27 -30.5 -43.5t-52 -25.5t-60.5 -24.5t-64.5 -28t-75.5 -34.5l-81 -35q-82 -35 -142.5 -65.5t-102.5 -51t-70.5 -37t-53.5 -32.5q-51 -35 -51 -53q0 -41 65 -41q139 0 305 51t282 101t132 50 q72 -2 120 -71.5t48 -139.5q0 -98 -135 -206.5t-337 -179t-378 -70.5t-290.5 72.5t-137.5 226.5q0 47 29 98q-414 -336 -705 -336q-113 0 -195.5 94.5t-82.5 278.5zM575 256q0 -74 62 -74q117 0 382 236.5t441 482.5q-41 61 -41 129q0 20 6 45q-129 -143 -149 -201 q-2 -2 -7 -10t-12 -16q-12 -18 -40.5 -18.5t-47 17t-18.5 44.5t58.5 115t58.5 94t-6 6q-45 0 -212 -163t-321 -373t-154 -314zM1327 545q125 78 262 139t185 70q12 4 12 8q0 16 -25 20q-133 14 -149 17.5t-47 15.5q-113 -143 -238 -270z" />
<glyph unicode="&#x153;" horiz-adv-x="1073" d="M68 156q0 145 95 271t216 189.5t219 63.5q59 -8 96 -23q88 57 197.5 92t199 35t148.5 -33.5t59 -102t-95 -128t-136 -59.5q-16 0 -29.5 8t-13.5 18.5t56.5 34t56.5 43.5q0 10 -30 10t-193.5 -64.5t-163.5 -90.5q0 -23 59 -23l100 11q70 0 70 -70q0 -37 -67.5 -82 t-136 -83t-68.5 -58q0 -14 32 -19q72 0 272.5 115t215.5 115q29 0 28 -29q-2 -20 -130 -101t-299 -156t-260 -75t-126 66q-102 -76 -190 -76q-182 0 -182 201zM334 133q-1 -39 26 -39q37 0 64 31q10 66 178 174q55 35 55 44t-18 17q-66 29 -82 54q-78 -53 -150.5 -134 t-72.5 -147z" />
<glyph unicode="&#x178;" horiz-adv-x="1114" d="M-49 271q0 -74 50 -144t140 -70q170 0 686 344q74 49 100.5 67.5t35 18.5t8.5 -4q0 -8 -13 -22q-68 -63 -366.5 -396t-360.5 -417q-109 -147 -108 -238q0 -45 35 -104.5t80 -59.5q27 0 54 36t90.5 138.5t120 179t166 211t233.5 277.5t270.5 311t255 291t206 233.5 t108.5 123t51 57.5t67 76q72 82 71 127q0 72 -61 71q-37 0 -68 -30q-188 -199 -479 -429.5t-472 -354.5t-216 -144.5t-47.5 -20.5t-12.5 19l3 14q4 6 199.5 206.5t318.5 350.5q76 86 75 178q0 231 -231 232q-113 0 -248 -54.5t-226 -126t-91 -124.5q0 -23 15.5 -38.5 t30.5 -15.5t55 21.5t81 44.5q119 70 129 78t21.5 8t11.5 -4q0 -51 -352.5 -377t-386.5 -405q-29 -61 -29 -135zM1315 1608q10 98 88 149t135 51q84 0 84 -84q0 -53 -63.5 -128t-161.5 -85q-35 0 -55.5 25t-22.5 49zM1624 1591q10 98 88 149.5t135 51.5q84 0 84 -84 q0 -53 -63.5 -128t-161.5 -85q-35 0 -55.5 24.5t-24.5 49.5z" />
<glyph unicode="&#x2c6;" d="M182 774q0 74 129 162t303 88q31 0 63 -104.5t32 -198.5t-43 -94q-86 0 -131 211q-31 -8 -139.5 -30t-151.5 -44q-23 -8 -42.5 -8t-19.5 18z" />
<glyph unicode="&#x2dc;" d="M127 868v2q27 53 82 89t106.5 36t139.5 -57t119.5 -57t46 22.5t26.5 21.5t26.5 -16.5t13.5 -28t-5 -22.5t-22.5 -36.5t-41.5 -47.5q-61 -51 -153 -51q-53 8 -129 66.5t-99.5 60.5t-39 -11.5t-29.5 -12.5t-27.5 13.5t-13.5 28.5z" />
<glyph unicode="&#x2000;" horiz-adv-x="982" />
<glyph unicode="&#x2001;" horiz-adv-x="1964" />
<glyph unicode="&#x2002;" horiz-adv-x="982" />
<glyph unicode="&#x2003;" horiz-adv-x="1964" />
<glyph unicode="&#x2004;" horiz-adv-x="654" />
<glyph unicode="&#x2005;" horiz-adv-x="491" />
<glyph unicode="&#x2006;" horiz-adv-x="327" />
<glyph unicode="&#x2007;" horiz-adv-x="327" />
<glyph unicode="&#x2008;" horiz-adv-x="245" />
<glyph unicode="&#x2009;" horiz-adv-x="392" />
<glyph unicode="&#x200a;" horiz-adv-x="109" />
<glyph unicode="&#x2010;" horiz-adv-x="1241" d="M145 344q0 27 11 47q31 33 594 33l417 -2q27 0 50.5 -14.5t23.5 -48t-20.5 -54t-34.5 -20.5l-965 -2q-31 0 -53.5 17t-22.5 44z" />
<glyph unicode="&#x2011;" horiz-adv-x="1241" d="M145 344q0 27 11 47q31 33 594 33l417 -2q27 0 50.5 -14.5t23.5 -48t-20.5 -54t-34.5 -20.5l-965 -2q-31 0 -53.5 17t-22.5 44z" />
<glyph unicode="&#x2012;" horiz-adv-x="1241" d="M145 344q0 27 11 47q31 33 594 33l417 -2q27 0 50.5 -14.5t23.5 -48t-20.5 -54t-34.5 -20.5l-965 -2q-31 0 -53.5 17t-22.5 44z" />
<glyph unicode="&#x2013;" horiz-adv-x="765" d="M59 641q0 18 7 37q14 33 405 33l209 -2q37 0 37 -60q0 -51 -11.5 -64.5t-15.5 -13.5l-592 -2q-39 0 -39 72z" />
<glyph unicode="&#x2014;" horiz-adv-x="1468" d="M84 630.5q0 26.5 10 47.5q31 33 811 33l418 -2q27 0 50.5 -14.5t23.5 -48.5t-20.5 -54.5t-35.5 -20.5l-1181 -2q-31 0 -53.5 17.5t-22.5 44z" />
<glyph unicode="&#x2018;" horiz-adv-x="514" d="M142 778q1 88 122 205t219 117q25 0 25 -25q0 -12 -16 -26q-147 -162 -150 -215q0 -15 52 -46.5t52 -53t-5 -42t-35.5 -54.5t-98 -34t-117 43t-48.5 131z" />
<glyph unicode="&#x2019;" horiz-adv-x="567" d="M319 584q0 12 17 26q147 162 149 215q0 15 -52 46.5t-52 53t5 42t36 54.5t98.5 34t116.5 -43t48 -131t-122 -205t-219 -117q-25 0 -25 25z" />
<glyph unicode="&#x201a;" horiz-adv-x="567" d="M113 -301q0 12 16 27q147 162 150 215q0 14 -52.5 45.5t-52.5 53t5 42t36 54.5t98.5 34t116.5 -43t48 -131t-121.5 -205t-219.5 -117q-25 0 -24 25z" />
<glyph unicode="&#x201c;" horiz-adv-x="954" d="M230 733q1 88 122 205t219 117q25 0 25 -25q0 -12 -16 -26q-147 -162 -150 -216q0 -14 52.5 -45.5t52.5 -53t-5.5 -42t-36 -54.5t-98 -34t-117 43t-48.5 131zM583 778q1 88 121.5 205t219.5 117q25 0 24 -25q0 -12 -16 -26q-147 -162 -150 -215q0 -15 52.5 -46.5 t52.5 -53t-5 -42t-36 -54.5t-98.5 -34t-116.5 43t-48 131z" />
<glyph unicode="&#x201d;" horiz-adv-x="954" d="M319 584q0 12 17 26q147 162 149 215q0 15 -52 46.5t-52 53t5 42t36 54.5t98.5 34t116.5 -43t48 -131t-122 -205t-219 -117q-25 0 -25 25zM672 629q0 12 16 26q147 162 150 215q0 15 -52.5 46.5t-52.5 53t5 42t36 54.5t98.5 34t116.5 -43t48 -131t-121.5 -205 t-219.5 -117q-25 0 -24 25z" />
<glyph unicode="&#x201e;" horiz-adv-x="954" d="M96 -301q0 12 17 27q147 162 149 215q0 14 -52 45.5t-52 53t5 42t35.5 54.5t98.5 34t117 -43t48 -131t-122 -205t-219 -117q-25 0 -25 25zM449 -256q0 12 16 27q147 162 149 215q0 14 -52 45.5t-52 53t5 42t36 54.5t98.5 34t116.5 -43t48 -131t-122 -205t-219 -117 q-25 0 -24 25z" />
<glyph unicode="&#x2022;" horiz-adv-x="843" d="M338 317q0 41 102 154q47 53 125 92t152 39t103.5 -33.5t29.5 -85.5q0 -106 -123 -208.5t-242 -102.5q-80 0 -113.5 45t-33.5 100z" />
<glyph unicode="&#x2026;" horiz-adv-x="1501" d="M131 48.5q0 25.5 19.5 55t51 65.5t86 62.5t111.5 26.5q84 0 84 -82q0 -74 -85 -144.5t-153.5 -70.5t-91 31t-22.5 56.5zM590 64.5q0 27.5 28.5 72.5t92 91t135.5 46q80 0 80 -81q0 -76 -81 -148t-145.5 -72t-87 32t-22.5 59.5zM1028 59.5q0 26.5 32 68.5t100.5 85 t152.5 43t84 -78q0 -70 -88 -136.5t-161 -66.5t-96.5 29t-23.5 55.5z" />
<glyph unicode="&#x202f;" horiz-adv-x="392" />
<glyph unicode="&#x2039;" horiz-adv-x="657" d="M215 334v2q2 31 171 177t200 146q18 0 28.5 -52t10.5 -98t-4.5 -58.5t-52.5 -39t-108 -58.5t-83 -48q102 -72 131 -107.5t29 -86.5q0 -104 -25 -109q-41 0 -163 132t-134 200z" />
<glyph unicode="&#x203a;" horiz-adv-x="645" d="M217 209q8 12 113.5 69.5t130.5 77.5q-98 70 -129 106t-31 81q0 113 23 116q43 0 164.5 -131t136.5 -198v-2q0 -29 -169 -173.5t-206 -152.5q-33 0 -33 207z" />
<glyph unicode="&#x205f;" horiz-adv-x="491" />
<glyph unicode="&#x20ac;" horiz-adv-x="1615" d="M47 616q0 61 62 62q399 -92 654 -92t298 28q16 0 39.5 -30.5t23.5 -44.5q0 -66 -71.5 -88.5t-216.5 -26.5q-37 -45 -45 -162l-5 -39q0 -84 49.5 -84t148.5 77t186 153.5t106 76.5q43 0 57 -47v-4q0 -33 -55 -99.5t-139 -137t-203 -123.5t-225 -53q-150 0 -259.5 112.5 t-129.5 358.5q-166 14 -187.5 25t-38 21.5t-22.5 24.5q-20 35 -27 92zM215 834v10q0 57 66 57q77 -16 118 -22q66 129 183.5 234.5t253.5 166.5q279 127 528 127q391 0 391 -221q0 -113 -94 -230.5t-166 -117.5q-51 0 -57 30q0 35 17.5 64t51 70.5t56.5 80.5q6 14 6 25 q-4 12 -27 12q-66 0 -179.5 -81t-234.5 -208l166 25q25 0 42.5 -22.5t23.5 -45.5l4 -22v-2q0 -47 -93 -61.5t-267 -14.5q-416 0 -711 49q-66 16 -78 97z" />
<glyph unicode="&#x2122;" horiz-adv-x="1929" d="M340 420q0 37 50 111.5t102 132.5l51 55q94 106 180 192q4 2 10 8.5t10 8.5q-135 -31 -195.5 -31t-111.5 40t-51 86t87 107.5t113.5 61.5t26.5 -16.5t-30 -38.5l-31 -23q0 -6 7 -6t110 31q303 88 446 88q35 0 89 -33t54 -78q0 -31 -211.5 -104.5t-271.5 -77.5 q8 -4 12.5 -5t8.5 -4t7 -7.5t3 -10.5t-13.5 -24.5t-81 -99.5t-75.5 -91t-106.5 -139t-108.5 -139q-31 -27 -41 -27q-39 0 -39 33zM690 504q0 49 54.5 154.5t91.5 105.5q27 0 26 -27q0 -10 -41 -71.5t-41 -70.5t7.5 -9t37 25.5t98 88t135 120t171 167t167 177t72.5 67.5 q31 0 64 -55.5t33 -77t-41 -111.5l-43 -92l2 -4q2 0 255 186.5t277.5 186.5t44 -21.5t19.5 -47.5t-235.5 -304.5t-235.5 -300.5q0 -4 6 -4t24.5 16t30.5 16q23 0 23 -20q0 -35 -116 -113.5t-209 -78.5t-93 88q0 57 80 159.5t141 149.5l6 10h-6q-8 0 -212 -176t-239 -176 q-14 0 -33.5 22.5t-19.5 45t33 87t66.5 117.5t33.5 55h-2q-4 0 -6 -2l-100 -98q-236 -233 -297 -233q-29 0 -29 49z" />
<glyph unicode="&#x25fc;" horiz-adv-x="737" d="M0 0v737h737v-737h-737z" />
<glyph unicode="&#xfb01;" horiz-adv-x="1013" d="M-430 -450.5q0 53.5 24 104.5q63 145 687 815q39 41 376.5 435t354 413.5t43 45.5t70.5 56.5t71 30.5q39 0 39 -64q0 -117 -80 -276q-27 -51 -314.5 -391t-293.5 -347t-6 -16.5t8 -9.5q47 0 140 60.5t196.5 120t173.5 59.5q92 0 92 -109q0 -35 -92 -164t-211 -247.5 t-168 -118.5t-80 29.5t-31 74.5q0 137 160 311l-235 -131q16 -41 16 -100q0 -121 -99.5 -254t-236.5 -229.5t-278.5 -159.5t-225.5 -63q-47 0 -73.5 35.5t-26.5 89zM-43 -338q0 -18 28.5 -18t94 44t140.5 113.5t133.5 171t58.5 199.5q-1 21 -15 21q-18 0 -229 -248 t-211 -283zM1106 748q10 98 88 149t135 51q84 0 84 -84q0 -53 -63.5 -128t-161.5 -85q-35 0 -55.5 24.5t-22.5 49.5z" />
<glyph unicode="&#xfb02;" horiz-adv-x="1368" d="M-430 -450.5q0 53.5 24 104.5q63 145 687 815q39 41 376.5 435t354 413.5t43 45.5t70.5 56.5t71 30.5q39 0 39 -64q0 -117 -80 -276q-27 -51 -314.5 -391t-293.5 -347t-6 -16.5t8 -9.5q41 0 262 64q88 182 280.5 371.5t411.5 313.5t375 124q82 0 119 -47.5t37 -88.5 q0 -82 -101.5 -190.5t-239 -201.5t-269 -164t-201.5 -91q-158 -213 -158 -291q0 -27 27 -26q72 0 272.5 114.5t214.5 114.5q29 0 29 -24v-5q-2 -12 -115 -89.5t-281 -157.5t-280 -80q-178 0 -178 207q0 53 22 125q-135 -49 -239 -80l-43 -13q16 -41 16 -100 q0 -121 -99.5 -254t-236.5 -229.5t-278.5 -159.5t-225.5 -63q-47 0 -73.5 35.5t-26.5 89zM-43 -338q0 -18 28.5 -18t94 44t140.5 113.5t133.5 171t58.5 199.5q-1 21 -15 21q-18 0 -229 -248t-211 -283zM1360 601.5q0 -9.5 18 -9.5q82 0 291 194.5t209 260.5q0 8 -8 8 q-33 0 -157 -106.5t-230 -215.5l-107 -106q-16 -16 -16 -25.5z" />
</font>
</defs>
</svg>
