<?xml version="1.0" encoding="UTF-8" standalone="no"?>
<!-- Created with Inkscape (http://www.inkscape.org/) -->

<svg
   xmlns:dc="http://purl.org/dc/elements/1.1/"
   xmlns:cc="http://creativecommons.org/ns#"
   xmlns:rdf="http://www.w3.org/1999/02/22-rdf-syntax-ns#"
   xmlns:svg="http://www.w3.org/2000/svg"
   xmlns="http://www.w3.org/2000/svg"
   xmlns:sodipodi="http://sodipodi.sourceforge.net/DTD/sodipodi-0.dtd"
   xmlns:inkscape="http://www.inkscape.org/namespaces/inkscape"
   version="1.1"
   width="673"
   height="354"
   id="svg2987"
   inkscape:version="0.48.4 r9939"
   sodipodi:docname="gamearea.svg"
   inkscape:export-filename="C:\Users\paalaves.CSE-PC36\Desktop\SAG-promo\gamearea.png"
   inkscape:export-xdpi="66.007767"
   inkscape:export-ydpi="66.007767">
  <sodipodi:namedview
     pagecolor="#ffffff"
     bordercolor="#666666"
     borderopacity="1"
     objecttolerance="10"
     gridtolerance="10"
     guidetolerance="10"
     inkscape:pageopacity="0"
     inkscape:pageshadow="2"
     inkscape:window-width="1064"
     inkscape:window-height="895"
     id="namedview45"
     showgrid="false"
     inkscape:zoom="1.2"
     inkscape:cx="341.86281"
     inkscape:cy="259.23964"
     inkscape:window-x="127"
     inkscape:window-y="90"
     inkscape:window-maximized="0"
     inkscape:current-layer="svg2987" />
  <metadata
     id="metadata2993">
    <rdf:RDF>
      <cc:Work
         rdf:about="">
        <dc:format>image/svg+xml</dc:format>
        <dc:type
           rdf:resource="http://purl.org/dc/dcmitype/StillImage" />
        <dc:title></dc:title>
      </cc:Work>
    </rdf:RDF>
  </metadata>
  <defs
     id="defs2991" />
  <path
     style="fill:#0df7ea;fill-opacity:1;stroke:none"
     d="M 238.64378,-7.911765 C 206.53866,14.251923 172.92609,31.139497 137.33659,41.107843 l 2.02614,117.393787 -20.41666,0.76797 -4.32189,-54.31372 -96.241824,0.53104 -3.26798,143.87255 97.875814,-3.24755 2.7451,-66.64624 20.29412,0.69444 -2.67157,174.49347 -137.1977133,-0.47385 1.3071899,-364.052289 z"
     id="path4016"
     inkscape:connector-curvature="0"
     sodipodi:nodetypes="cccccccccccccc" />
  <path
     style="opacity:0.73893804;fill:#f6ecb4;fill-opacity:1;stroke:none"
     d="m 238.69791,-7.510417 c -30.06389,19.949791 -72.29589,41.859044 -101.4375,47.96875 l 1.90625,118.499997 -19.96875,0.40625 -4.28125,-54.53125 -96.781244,-0.5 -3.375,145.34375 98.593744,-3 2.21875,-66.84375 20.54453,-0.19016 -3.01328,176.31516 549.0625,9.125 -6.875,-365.937497 z"
     id="path3850-7"
     inkscape:connector-curvature="0"
     sodipodi:nodetypes="cccccccccccccc" />
  <path
     d="m 592.50103,278.50664 0.54439,70.54482 72.94782,0.50752 -1.08877,-70.03731 z"
     id="path3787-1"
     style="opacity:0.73893804;fill:#f4b55c;fill-opacity:1;stroke:none"
     inkscape:connector-curvature="0"
     sodipodi:nodetypes="ccccc" />
  <g
     transform="matrix(0.83427441,0,0,0.79665481,380.48984,0.802809)"
     id="g3884"
     style="opacity:0.73893804">
    <path
       d="m 253.58463,79.544884 0.73716,45.207256 84.03677,2.26036 0.73716,-48.22107 z"
       id="path3837"
       style="fill:#dace8d;fill-opacity:1;stroke:none"
       inkscape:connector-curvature="0" />
    <path
       d="m -160.34341,319.69011 10.4297,2.20199 56.951998,2.76523 16.339221,-3.15206 86.899313,0.70567 8.852152,1.81516 86.193006,1.0755 -0.79888,-96.27622 49.82201,4.12439 0.44874,47.15779 -18.26845,-0.18061 2.21452,46.41813 83.79322,0.55905 -0.0427,22.84201 -87.41797,-1.1289 1.72568,96.10668 -21.51839,-0.0388 -1.59304,-96.17096 -191.103227,-2.68447 -20.176415,1.01386 -56.198178,-3.0543 -5.34393,1.38369 z"
       id="path3835"
       style="fill:#dace8d;fill-opacity:1;stroke:none"
       inkscape:connector-curvature="0"
       sodipodi:nodetypes="ccccccccccccccccccccccc" />
    <path
       d="M 16.599282,84.235632 17.463848,5.588655 105.64988,8.239673 104.78531,86.886656 z"
       id="path2997"
       style="fill:#0d913a;fill-opacity:1;stroke:none"
       inkscape:connector-curvature="0" />
    <path
       d="M 32.161521,86.00298 C 35.619796,57.725412 34.755224,22.378462 34.755224,22.378462 L 82.306519,23.262133 81.441948,86.00298 z"
       id="path2999"
       style="fill:#84e18b;fill-opacity:1;stroke:none"
       inkscape:connector-curvature="0" />
    <path
       d="m 67.608846,80.700938 0,-10.604089 6.051982,0 2.593709,-31.812256 -6.051983,-0.883677 0,-8.836742 -31.124484,-0.88367 -0.864566,53.904105 z"
       id="path3001"
       style="fill:#f4b55c;fill-opacity:1;stroke:none"
       inkscape:connector-curvature="0" />
    <path
       d="m 164.23138,63.902037 -27.58442,-6.911311 -0.73717,67.010234 84.72775,-0.88367 0.86457,-50.369418 c 0,0 -58.21241,-8.384842 -57.27073,-8.845835 z"
       id="path3005"
       style="fill:#0d913a;fill-opacity:1;stroke:none"
       inkscape:connector-curvature="0" />
    <path
       d="m 147.14919,37.400916 1.0766,-28.494294 73.27632,1.100404 0,64.508194 -41.4993,-0.883677 -0.86457,8.836742 -18.15595,-0.883676 0.86457,-44.183693 z"
       id="path3003"
       style="fill:#f4b55c;fill-opacity:1;stroke:none"
       inkscape:connector-curvature="0" />
    <path
       d="m 17.463848,15.309067 c 0,0 71.926099,-9.456142 88.414472,21.441666 l -0.0164,-5.26851 C 98.474756,1.230227 14.870128,6.472326 14.870128,6.472326 z"
       id="path3007"
       style="fill:#0df7ea;fill-opacity:1;stroke:none"
       inkscape:connector-curvature="0" />
    <path
       d="m 135.57126,66.663947 c 22.55248,58.362173 75.84127,56.571573 84.49932,57.456773 l 0.6361,-6.6024 c -8.03967,-2.24024 -53.55119,5.72699 -85.11902,-61.691955 z"
       id="path3777"
       style="fill:#0df7ea;fill-opacity:1;stroke:none"
       inkscape:connector-curvature="0" />
    <path
       d="m 17.058534,116.18789 87.438636,2.66779 -0.65252,82.03442 -85.481062,-0.66694 z"
       id="path3779"
       style="fill:#f4b55c;fill-opacity:1;stroke:none"
       inkscape:connector-curvature="0" />
    <path
       d="m 135.81848,154.87079 0.65252,47.35321 85.48106,0 -0.65252,-46.68627 z"
       id="path3781"
       style="fill:#f4b55c;fill-opacity:1;stroke:none"
       inkscape:connector-curvature="0" />
    <path
       d="m 17.711058,232.90354 1.305059,91.37168 86.786113,1.3339 -0.65253,-92.70558 z"
       id="path3783"
       style="fill:#f4b55c;fill-opacity:1;stroke:none"
       inkscape:connector-curvature="0" />
    <path
       d="m 154.08923,236.90522 0.65254,42.01764 -18.92329,0.66694 1.95758,47.35321 83.52348,0 0,-91.37168 z"
       id="path3785"
       style="fill:#f4b55c;fill-opacity:1;stroke:none"
       inkscape:connector-curvature="0" />
    <path
       d="m 253.27337,235.57133 0.65253,92.70557 87.43863,0.66695 -1.30505,-92.03863 z"
       id="path3787"
       style="fill:#f4b55c;fill-opacity:1;stroke:none"
       inkscape:connector-curvature="0" />
    <path
       d="m 253.27337,88.843083 28.71119,0 0,-6.002523 29.36373,0 0,5.335573 28.71119,0.66695 -0.65253,-77.365798 -86.13358,-0.666949 z"
       id="path3789"
       style="fill:#f4b55c;fill-opacity:1;stroke:none"
       inkscape:connector-curvature="0" />
    <path
       d="m 254.57842,120.85651 84.17601,2.00084 0.65252,82.70138 -84.82853,-2.00084 z"
       id="path3820"
       style="fill:#0d913a;fill-opacity:1;stroke:none"
       inkscape:connector-curvature="0" />
    <path
       d="m 254.98373,134.02555 83.8468,60.79151 1.28862,-7.26934 c 1.74824,2.42838 -85.11903,-61.69196 -85.11903,-61.69196 z"
       id="path3818"
       style="fill:#0df7ea;fill-opacity:1;stroke:none"
       inkscape:connector-curvature="0" />
    <g
       transform="matrix(0.54550181,0,0,0.55755621,-56.024509,-58.035874)"
       id="g3866">
      <path
         d="m 236.96912,680.90753 -27.13082,1.02108 -0.1701,45.77374 5.44317,0.0292 0.0567,-20.10077 6.52047,-1.07943 12.95589,19.02134 7.59776,0.0292 -15.13883,-20.15911 9.78071,0.0292 0.085,-24.56436 z m -20.8655,5.28046 13.49453,0.0292 -0.0567,12.89483 -13.49453,0.93356 z"
         id="path3791"
         style="fill:#000010;fill-opacity:1;stroke:none"
         inkscape:connector-curvature="0"
         sodipodi:nodetypes="ccccccccccccccccc" />
      <path
         d="m 245.82021,689.52931 -1.41396,36.71875 31.46875,-1.04911 -3.6171,-35.57972 z m 22.6233,5.81505 1.15089,24.09949 -17.62513,-0.0599 -3.68286,-22.96046 20.1571,-1.07908 z"
         id="path3795"
         style="fill:#000010;fill-opacity:1;stroke:none"
         inkscape:connector-curvature="0"
         sodipodi:nodetypes="ccccccccccc" />
      <path
         d="m 286.8007,727.91897 -0.92538,-32.30153 -9.26242,1.15613 -0.9981,-9.57395 28.79686,2.51699 -0.0345,10.7657 -10.27967,-2.43688 0.9292,31.10533 z"
         id="path3799"
         style="fill:#000010;fill-opacity:1;stroke:none"
         inkscape:connector-curvature="0"
         sodipodi:nodetypes="ccccccccc" />
      <path
         d="m 307.26759,687.39512 1.0404,41.87103 22.72757,0.0846 2.54816,-41.85768 -9.57841,2.35677 1.08492,29.90915 -11.96188,-0.0445 0.12018,-32.29707 z"
         id="path3801"
         style="fill:#000010;fill-opacity:1;stroke:none"
         inkscape:connector-curvature="0"
         sodipodi:nodetypes="ccccccccc" />
      <path
         d="m 370.34375,689.24806 -34.6875,1.0625 3.4375,35.90625 9.5625,2.4375 -3.21875,-18.21875 19.15625,1.28125 -0.375,17 7.15625,2.40625 z m -26.03125,7.09375 20.15625,0 -1.09375,8.0625 -17.96875,-0.375 z"
         id="path3803"
         style="fill:#000010;fill-opacity:1;stroke:none"
         inkscape:connector-curvature="0"
         sodipodi:nodetypes="cccccccccccccc" />
      <path
         d="m 445.21727,729.29982 -0.62949,-41.87103 5.78734,1.23179 2.06891,45.46849 z"
         id="path3805"
         style="fill:#000010;fill-opacity:1;stroke:none"
         inkscape:connector-curvature="0"
         sodipodi:nodetypes="ccccc" />
      <path
         d="m 438.11953,686.59663 -27.13082,1.02108 -0.1701,45.77374 5.44317,0.0292 0.0567,-20.10077 6.52047,-1.07943 12.95589,19.02134 7.59776,0.0292 -15.13883,-20.15911 9.78071,0.0292 0.085,-24.56436 z m -20.8655,5.28046 13.49453,0.0292 -0.0567,12.89483 -13.49453,0.93356 z"
         id="path3812"
         style="fill:#000010;fill-opacity:1;stroke:none"
         inkscape:connector-curvature="0"
         sodipodi:nodetypes="ccccccccccccccccc" />
      <path
         d="m 406.60749,692.17846 -34.6875,1.0625 3.4375,35.90625 9.5625,2.4375 -3.21875,-18.21875 19.15625,1.28125 -0.375,17 7.15625,2.40625 z m -26.03125,7.09375 20.15625,0 -1.09375,8.0625 -17.96875,-0.375 z"
         id="path3817"
         style="fill:#000010;fill-opacity:1;stroke:none"
         inkscape:connector-curvature="0"
         sodipodi:nodetypes="cccccccccccccc" />
    </g>
    <g
       transform="matrix(0.54550181,0,0,0.55755621,-56.024509,-58.035874)"
       id="g3845">
      <path
         d="m 197.1047,218.81913 -0.62949,-41.87103 5.78734,1.23179 2.06891,45.46849 z"
         id="path3821"
         style="fill:#000010;fill-opacity:1;stroke:none"
         inkscape:connector-curvature="0" />
      <path
         d="m 215.80628,221.07911 -0.75276,-32.30153 -7.53456,1.15613 -0.81191,-9.57395 23.42496,2.51699 -0.0281,10.7657 -8.36205,-2.43688 0.75587,31.10533 z"
         id="path3823"
         style="fill:#000010;fill-opacity:1;stroke:none"
         inkscape:connector-curvature="0" />
      <path
         d="m 241.35241,222.84667 -0.26269,-23.05945 -8.10021,-15.38916 6.77922,-4.71496 4.93969,13.61129 6.57943,-10.7618 7.62191,5.22895 -12.81586,13.094 2.45234,23.10825 z"
         id="path3825"
         style="fill:#000010;fill-opacity:1;stroke:none"
         inkscape:connector-curvature="0" />
      <path
         d="m 226.31874,232.02847 -26.42304,1.47573 4.26395,37.14592 7.08316,1.19783 -3.21875,-18.21875 12.54468,0.86802 -0.375,17 7.15625,2.40625 z m -19.41968,7.50698 13.54468,-0.41323 -1.09375,8.0625 -11.35718,0.0382 z"
         id="path3829"
         style="fill:#000010;fill-opacity:1;stroke:none"
         inkscape:connector-curvature="0" />
      <path
         d="m 239.384,233.12605 -0.52707,33.43477 15.79233,-0.85966 -1.75957,7.43472 -19.51888,-0.85922 c 0,0 -1.93595,-39.87505 -2.26996,-39.908 z"
         id="path3831"
         style="fill:#000010;fill-opacity:1;stroke:none"
         inkscape:connector-curvature="0" />
      <path
         d="m 189.82438,183.28512 -22.5,0.625 1.25,34.375 23.125,-1.25 -0.625,-8.125 -16.875,5 -0.625,-25 16.875,2.5 z"
         id="path3839"
         style="fill:#000010;fill-opacity:1;stroke:none"
         inkscape:connector-curvature="0" />
      <path
         d="m 173.62365,232.5 5.30158,0.625 -1.44589,11.25 14.45884,0.625 -1.92785,-13.75 5.78354,-0.625 0.48196,44.375 -5.30157,-1.25 0,-20.625 -13.49492,-3.125 -0.96392,23.125 -5.30157,-0.625 z"
         id="path3841"
         style="fill:#000010;fill-opacity:1;stroke:none"
         inkscape:connector-curvature="0" />
      <path
         d="m 262.93772,233.12605 -0.52707,33.43477 15.79233,-0.85966 -1.75957,7.43472 -19.51888,-0.85922 c 0,0 -1.93595,-39.87505 -2.26996,-39.908 z"
         id="path3843"
         style="fill:#000010;fill-opacity:1;stroke:none"
         inkscape:connector-curvature="0" />
    </g>
    <path
       d="m 284.23648,382.39792 2.54216,-14.32467 21.60856,5.37175 -14.58448,0.91599 17.17074,24.21426 5.09174,-8.92186 0,16.11524 -22.87968,-7.16232 15.84827,-0.031 -17.17078,-23.30864 z"
       id="path3878"
       style="fill:#9539a4;fill-opacity:1;stroke:none"
       inkscape:connector-curvature="0"
       sodipodi:nodetypes="ccccccccccc" />
    <path
       d="m 259.88001,361.37151 c 5.46406,-7.29581 -12.33766,-6.7807 -3.4753,1.33517 0,0 5.02818,8.01636 13.90118,5.78576 8.87299,-2.2306 13.9012,-26.70348 13.9012,-26.70348 l 2.52749,24.47819 c -4.40383,-8.56968 20.31276,-35.86053 18.64021,-21.14025 l 4.10717,-6.45334 c -10.64293,-4.20777 -19.22879,6.0789 -22.11551,16.9122 L 283.5752,335.1131 c 1.20535,7.03111 -11.65467,42.70721 -23.69519,26.25841 z"
       id="path3880"
       style="fill:#9539a4;fill-opacity:1;stroke:#0000b3;stroke-width:0.58486569px;stroke-linecap:butt;stroke-linejoin:miter;stroke-opacity:1"
       inkscape:connector-curvature="0"
       sodipodi:nodetypes="ccsccccccc" />
    <path
       d="m 331.59747,416.55871 1.89563,-3.56047 c -11.76184,-1.67132 -20.30254,-6.17018 -26.53862,4.89564 17.85432,7.09679 28.07731,10.09634 22.74738,18.69244 -13.86017,5.70321 -24.76372,-3.78967 -18.32429,-11.34898 -20.82793,1.6363 -0.92554,18.91952 18.95617,13.12921 5.34864,-7.34802 2.50684,-13.8065 -14.53305,-21.80784 2.88886,-2.7704 5.45831,-6.79644 15.79678,0 z"
       id="path3882"
       style="fill:#9539a4;fill-opacity:1;stroke:#000088;stroke-width:0.58486569px;stroke-linecap:butt;stroke-linejoin:miter;stroke-opacity:1"
       inkscape:connector-curvature="0"
       sodipodi:nodetypes="cccccccc" />
  </g>
  <path
     d="m 493.26275,278.50664 0.54439,70.54482 72.94781,0.50752 -1.08877,-70.03731 z"
     id="path3787-7"
     style="opacity:0.73893804;fill:#f4b55c;fill-opacity:1;stroke:none"
     inkscape:connector-curvature="0"
     sodipodi:nodetypes="ccccc" />
  <path
     d="m 403.28671,277.18346 0.54439,69.71744 72.94781,0.50156 -1.08877,-69.21587 z"
     id="path3787-4"
     style="opacity:0.73893804;fill:#f4b55c;fill-opacity:1;stroke:none"
     inkscape:connector-curvature="0"
     sodipodi:nodetypes="ccccc" />
  <path
     d="m 315.95702,275.86029 0.54439,73.85434 72.94782,0.53133 -1.08877,-73.32302 z"
     id="path3787-1-0"
     style="opacity:0.73893804;fill:#f4b55c;fill-opacity:1;stroke:none"
     inkscape:connector-curvature="0"
     sodipodi:nodetypes="ccccc" />
  <path
     d="m 315.95701,183.23789 0.54439,73.85434 72.94782,0.53133 -1.08877,-73.32302 z"
     id="path3787-1-9"
     style="opacity:0.73893804;fill:#f4b55c;fill-opacity:1;stroke:none"
     inkscape:connector-curvature="0"
     sodipodi:nodetypes="ccccc" />
  <path
     d="m 311.98748,93.26185 0.54439,63.26892 72.94782,0.53133 -1.08877,-62.7376 z"
     id="path3787-1-4"
     style="opacity:0.73893804;fill:#f4b55c;fill-opacity:1;stroke:none"
     inkscape:connector-curvature="0"
     sodipodi:nodetypes="ccccc" />
  <path
     d="m 252.44451,274.53711 0.54439,73.85434 47.80746,1.85451 -1.08877,-73.32302 z"
     id="path3787-1-8"
     style="opacity:0.73893804;fill:#f4b55c;fill-opacity:1;stroke:none"
     inkscape:connector-curvature="0"
     sodipodi:nodetypes="ccccc" />
  <path
     d="m 254.42928,183.89948 0.54439,73.85434 47.80746,1.85451 -1.08877,-73.32302 z"
     id="path3787-1-8-8"
     style="opacity:0.73893804;fill:#f4b55c;fill-opacity:1;stroke:none"
     inkscape:connector-curvature="0"
     sodipodi:nodetypes="ccccc" />
  <path
     d="m 250.45974,93.92343 0.54439,73.85434 47.80747,1.85451 -1.08877,-73.32302 z"
     id="path3787-1-8-2"
     style="opacity:0.73893804;fill:#f4b55c;fill-opacity:1;stroke:none"
     inkscape:connector-curvature="0"
     sodipodi:nodetypes="ccccc" />
  <path
     d="m 250.45974,50.258593 1.86757,31.51267 47.80746,1.85451 -2.41194,-30.98135 z"
     id="path3787-1-8-4"
     style="opacity:0.73893804;fill:#f4b55c;fill-opacity:1;stroke:none"
     inkscape:connector-curvature="0"
     sodipodi:nodetypes="ccccc" />
  <path
     d="m 310.6643,51.581773 1.86757,31.51267 70.30147,0.53133 -2.41194,-30.98135 z"
     id="path3787-1-8-4-5"
     style="opacity:0.73893804;fill:#f4b55c;fill-opacity:1;stroke:none"
     inkscape:connector-curvature="0"
     sodipodi:nodetypes="ccccc" />
  <path
     d="m 308.78153,3.5941177 70.22589,1.0034277 0.54438,41.4750016 -70.77027,-1.003429 z"
     id="path3820-8"
     style="opacity:0.73893804;fill:#0d913a;fill-opacity:1;stroke:none"
     inkscape:connector-curvature="0"
     sodipodi:nodetypes="ccccc" />
  <path
     style="fill:#0df7ea;fill-opacity:1;stroke:none"
     d="m 389.62418,8.428104 0,9.150327 -82.35294,-2.614379 -0.6536,-7.843137 z"
     id="path4012"
     inkscape:connector-curvature="0" />
  <path
     d="m 242.11486,-1.405881 52.72589,2.6700947 0.54438,41.4750033 -112.43694,-4.336763 z"
     id="path3820-8-2"
     style="opacity:0.73893804;fill:#0d913a;fill-opacity:1;stroke:none"
     inkscape:connector-curvature="0"
     sodipodi:nodetypes="ccccc" />
  <path
     style="fill:#0df7ea;fill-opacity:1;stroke:none"
     d="m 300.0817,6.46732 -1.30719,8.496732 c -30.56477,5.020889 -58.58352,0.06276 -87.58171,-5.882353 l 11.11111,-7.189542 c 24.95515,7.330508 51.13038,10.782653 77.77779,4.575163 z"
     id="path4014"
     inkscape:connector-curvature="0"
     sodipodi:nodetypes="ccccc" />
  <path
     d="m 160.99581,48.149743 -2.64991,25.21653 81.49161,1.48399 0.88864,-23.95804 z"
     id="path3787-1-8-4-1"
     style="opacity:0.73893804;fill:#f4b55c;fill-opacity:1;stroke:none"
     inkscape:connector-curvature="0"
     sodipodi:nodetypes="ccccc" />
  <path
     d="m 206.65741,287.81223 -3.62228,58.02101 37.80745,1.02118 -1.08877,-59.15635 z"
     id="path3787-1-8-1"
     style="opacity:0.73893804;fill:#f4b55c;fill-opacity:1;stroke:none"
     inkscape:connector-curvature="0"
     sodipodi:nodetypes="ccccc" />
  <path
     d="m 63.051886,112.03598 -1.12227,42.18768 41.974104,1.02118 -1.9221,-42.48968 z"
     id="path3787-1-8-1-5"
     style="opacity:0.73893804;fill:#f4b55c;fill-opacity:1;stroke:none"
     inkscape:connector-curvature="0"
     sodipodi:nodetypes="ccccc" />
  <path
     d="m 52.247496,189.89557 -1.56789,43.81495 58.640774,1.06057 -2.68531,-44.1286 z"
     id="path3787-1-8-1-5-2"
     style="opacity:0.73893804;fill:#f4b55c;fill-opacity:1;stroke:none"
     inkscape:connector-curvature="0"
     sodipodi:nodetypes="ccccc" />
  <path
     d="m 210.9411,177.84037 -2.34483,43.3089 24.47412,0.76224 -0.7048,-44.15636 z"
     id="path3787-1-8-1-7"
     style="opacity:0.73893804;fill:#f4b55c;fill-opacity:1;stroke:none"
     inkscape:connector-curvature="0"
     sodipodi:nodetypes="ccccc" />
  <path
     d="m 149.54889,287.03599 -1.78595,58.021 18.64078,1.02118 -0.53681,-59.15635 z"
     id="path3787-1-8-1-6"
     style="opacity:0.73893804;fill:#f4b55c;fill-opacity:1;stroke:none"
     inkscape:connector-curvature="0"
     sodipodi:nodetypes="ccccc" />
</svg>
