<?xml version="1.0" encoding="UTF-8" standalone="no"?>
<!-- Created with Inkscape (http://www.inkscape.org/) -->

<svg
   xmlns:dc="http://purl.org/dc/elements/1.1/"
   xmlns:cc="http://creativecommons.org/ns#"
   xmlns:rdf="http://www.w3.org/1999/02/22-rdf-syntax-ns#"
   xmlns:svg="http://www.w3.org/2000/svg"
   xmlns="http://www.w3.org/2000/svg"
   version="1.1"
   width="300"
   height="270"
   id="svg2987">
  <metadata
     id="metadata2993">
    <rdf:RDF>
      <cc:Work
         rdf:about="">
        <dc:format>image/svg+xml</dc:format>
        <dc:type
           rdf:resource="http://purl.org/dc/dcmitype/StillImage" />
        <dc:title></dc:title>
      </cc:Work>
    </rdf:RDF>
  </metadata>
  <defs
     id="defs2991" />
  <g
     transform="matrix(0.83427441,0,0,0.79665481,0,-0.47510375)"
     id="g3884">
    <path
       d="M 1.2020853,0 0.37483068,341.88222 360.61358,341.7884 360.06864,0 z"
       id="path3850"
       style="fill:#f6ecb4;fill-opacity:0.56852794;stroke:none" />
    <path
       d="m 253.58463,79.544884 0.73716,45.207256 84.03677,2.26036 0.73716,-48.22107 z"
       id="path3837"
       style="fill:#dace8d;fill-opacity:0.66497462;stroke:none" />
    <path
       d="m 0.73716388,315.80356 102.46588612,-0.6874 -2.2115,-81.11314 59.71034,4.12439 60.06548,80.2706 2.0762,23.42667 L 0,341.66953 z"
       id="path3835"
       style="fill:#dace8d;fill-opacity:0.66497462;stroke:none" />
    <path
       d="M 16.599282,84.235632 17.463848,5.588655 105.64988,8.239673 104.78531,86.886656 z"
       id="path2997"
       style="fill:#0d913a;fill-opacity:1;stroke:none" />
    <path
       d="M 32.161521,86.00298 C 35.619796,57.725412 34.755224,22.378462 34.755224,22.378462 L 82.306519,23.262133 81.441948,86.00298 z"
       id="path2999"
       style="fill:#84e18b;fill-opacity:1;stroke:none" />
    <path
       d="m 67.608846,80.700938 0,-10.604089 6.051982,0 2.593709,-31.812256 -6.051983,-0.883677 0,-8.836742 -31.124484,-0.88367 -0.864566,53.904105 z"
       id="path3001"
       style="fill:#f4b55c;fill-opacity:1;stroke:none" />
    <path
       d="m 164.23138,63.902037 -27.58442,-6.911311 -0.73717,67.010234 84.72775,-0.88367 0.86457,-50.369418 c 0,0 -58.21241,-8.384842 -57.27073,-8.845835 z"
       id="path3005"
       style="fill:#0d913a;fill-opacity:1;stroke:none" />
    <path
       d="m 147.14919,37.400916 1.0766,-28.494294 73.27632,1.100404 0,64.508194 -41.4993,-0.883677 -0.86457,8.836742 -18.15595,-0.883676 0.86457,-44.183693 z"
       id="path3003"
       style="fill:#f4b55c;fill-opacity:1;stroke:none" />
    <path
       d="m 17.463848,15.309067 c 0,0 71.926099,-9.456142 88.414472,21.441666 l -0.0164,-5.26851 C 98.474756,1.230227 14.870128,6.472326 14.870128,6.472326 z"
       id="path3007"
       style="fill:#0df7ea;fill-opacity:1;stroke:none" />
    <path
       d="m 135.57126,66.663947 c 22.55248,58.362173 75.84127,56.571573 84.49932,57.456773 l 0.6361,-6.6024 c -8.03967,-2.24024 -53.55119,5.72699 -85.11902,-61.691955 z"
       id="path3777"
       style="fill:#0df7ea;fill-opacity:1;stroke:none" />
    <path
       d="m 17.058534,116.18789 87.438636,2.66779 -0.65252,82.03442 -85.481062,-0.66694 z"
       id="path3779"
       style="fill:#f4b55c;fill-opacity:1;stroke:none" />
    <path
       d="m 135.81848,154.87079 0.65252,47.35321 85.48106,0 -0.65252,-46.68627 z"
       id="path3781"
       style="fill:#f4b55c;fill-opacity:1;stroke:none" />
    <path
       d="m 17.711058,232.90354 1.305059,91.37168 86.786113,1.3339 -0.65253,-92.70558 z"
       id="path3783"
       style="fill:#f4b55c;fill-opacity:1;stroke:none" />
    <path
       d="m 154.08923,236.90522 0.65254,42.01764 -18.92329,0.66694 1.95758,47.35321 83.52348,0 0,-91.37168 z"
       id="path3785"
       style="fill:#f4b55c;fill-opacity:1;stroke:none" />
    <path
       d="m 253.27337,235.57133 0.65253,92.70557 87.43863,0.66695 -1.30505,-92.03863 z"
       id="path3787"
       style="fill:#f4b55c;fill-opacity:1;stroke:none" />
    <path
       d="m 253.27337,88.843083 28.71119,0 0,-6.002523 29.36373,0 0,5.335573 28.71119,0.66695 -0.65253,-77.365798 -86.13358,-0.666949 z"
       id="path3789"
       style="fill:#f4b55c;fill-opacity:1;stroke:none" />
    <path
       d="m 254.57842,120.85651 84.17601,2.00084 0.65252,82.70138 -84.82853,-2.00084 z"
       id="path3820"
       style="fill:#0d913a;fill-opacity:1;stroke:none" />
    <path
       d="m 254.98373,134.02555 83.8468,60.79151 1.28862,-7.26934 c 1.74824,2.42838 -85.11903,-61.69196 -85.11903,-61.69196 z"
       id="path3818"
       style="fill:#0df7ea;fill-opacity:1;stroke:none" />
    <g
       transform="matrix(0.54550181,0,0,0.55755621,-56.024509,-58.035874)"
       id="g3866">
      <path
         d="m 236.96912,631.15947 -27.13082,1.02108 -0.1701,45.77374 5.44317,0.0292 0.0567,-20.10077 6.52047,-1.07943 12.95589,19.02134 7.59776,0.0292 -15.13883,-20.15911 9.78071,0.0292 0.085,-24.56436 z m -20.8655,5.28046 13.49453,0.0292 -0.0567,12.89483 -13.49453,0.93356 0.0567,-13.85757 z"
         id="path3791"
         style="fill:#000010;fill-opacity:1;stroke:none" />
      <path
         d="m 245.82021,639.78125 -1.41396,36.71875 31.46875,-1.04911 -3.6171,-35.57972 -26.43769,-0.0899 z m 22.6233,5.81505 1.15089,24.09949 -17.62513,-0.0599 -3.68286,-22.96046 20.1571,-1.07908 z"
         id="path3795"
         style="fill:#000010;fill-opacity:1;stroke:none" />
      <path
         d="m 286.8007,678.17091 -0.92538,-32.30153 -9.26242,1.15613 -0.9981,-9.57395 28.79686,2.51699 -0.0345,10.7657 -10.27967,-2.43688 0.9292,31.10533 z"
         id="path3799"
         style="fill:#000010;fill-opacity:1;stroke:none" />
      <path
         d="m 307.26759,637.64706 1.0404,41.87103 22.72757,0.0846 2.54816,-41.85768 -9.57841,2.35677 1.08492,29.90915 -11.96188,-0.0445 0.12018,-32.29707 z"
         id="path3801"
         style="fill:#000010;fill-opacity:1;stroke:none" />
      <path
         d="m 370.34375,639.5 -34.6875,1.0625 3.4375,35.90625 9.5625,2.4375 -3.21875,-18.21875 19.15625,1.28125 -0.375,17 7.15625,2.40625 -1.03125,-41.875 z m -26.03125,7.09375 20.15625,0 -1.09375,8.0625 -17.96875,-0.375 -1.09375,-7.6875 z"
         id="path3803"
         style="fill:#000010;fill-opacity:1;stroke:none" />
      <path
         d="m 445.21727,679.55176 -0.62949,-41.87103 5.78734,1.23179 2.06891,45.46849 z"
         id="path3805"
         style="fill:#000010;fill-opacity:1;stroke:none" />
      <path
         d="m 438.11953,636.84857 -27.13082,1.02108 -0.1701,45.77374 5.44317,0.0292 0.0567,-20.10077 6.52047,-1.07943 12.95589,19.02134 7.59776,0.0292 -15.13883,-20.15911 9.78071,0.0292 0.085,-24.56436 z m -20.8655,5.28046 13.49453,0.0292 -0.0567,12.89483 -13.49453,0.93356 0.0567,-13.85757 z"
         id="path3812"
         style="fill:#000010;fill-opacity:1;stroke:none" />
      <path
         d="m 406.60749,642.4304 -34.6875,1.0625 3.4375,35.90625 9.5625,2.4375 -3.21875,-18.21875 19.15625,1.28125 -0.375,17 7.15625,2.40625 -1.03125,-41.875 z m -26.03125,7.09375 20.15625,0 -1.09375,8.0625 -17.96875,-0.375 -1.09375,-7.6875 z"
         id="path3817"
         style="fill:#000010;fill-opacity:1;stroke:none" />
    </g>
    <g
       transform="matrix(0.54550181,0,0,0.55755621,-56.024509,-58.035874)"
       id="g3845">
      <path
         d="m 197.1047,218.81913 -0.62949,-41.87103 5.78734,1.23179 2.06891,45.46849 z"
         id="path3821"
         style="fill:#000010;fill-opacity:1;stroke:none" />
      <path
         d="m 215.80628,221.07911 -0.75276,-32.30153 -7.53456,1.15613 -0.81191,-9.57395 23.42496,2.51699 -0.0281,10.7657 -8.36205,-2.43688 0.75587,31.10533 z"
         id="path3823"
         style="fill:#000010;fill-opacity:1;stroke:none" />
      <path
         d="m 241.35241,222.84667 -0.26269,-23.05945 -8.10021,-15.38916 6.77922,-4.71496 4.93969,13.61129 6.57943,-10.7618 7.62191,5.22895 -12.81586,13.094 2.45234,23.10825 z"
         id="path3825"
         style="fill:#000010;fill-opacity:1;stroke:none" />
      <path
         d="m 226.31874,232.02847 -26.42304,1.47573 4.26395,37.14592 7.08316,1.19783 -3.21875,-18.21875 12.54468,0.86802 -0.375,17 7.15625,2.40625 z m -19.41968,7.50698 13.54468,-0.41323 -1.09375,8.0625 -11.35718,0.0382 z"
         id="path3829"
         style="fill:#000010;fill-opacity:1;stroke:none" />
      <path
         d="m 239.384,233.12605 -0.52707,33.43477 15.79233,-0.85966 -1.75957,7.43472 -19.51888,-0.85922 c 0,0 -1.93595,-39.87505 -2.26996,-39.908 z"
         id="path3831"
         style="fill:#000010;fill-opacity:1;stroke:none" />
      <path
         d="m 189.82438,183.28512 -22.5,0.625 1.25,34.375 23.125,-1.25 -0.625,-8.125 -16.875,5 -0.625,-25 16.875,2.5 z"
         id="path3839"
         style="fill:#000010;fill-opacity:1;stroke:none" />
      <path
         d="m 173.62365,232.5 5.30158,0.625 -1.44589,11.25 14.45884,0.625 -1.92785,-13.75 5.78354,-0.625 0.48196,44.375 -5.30157,-1.25 0,-20.625 -13.49492,-3.125 -0.96392,23.125 -5.30157,-0.625 z"
         id="path3841"
         style="fill:#000010;fill-opacity:1;stroke:none" />
      <path
         d="m 262.93772,233.12605 -0.52707,33.43477 15.79233,-0.85966 -1.75957,7.43472 -19.51888,-0.85922 c 0,0 -1.93595,-39.87505 -2.26996,-39.908 z"
         id="path3843"
         style="fill:#000010;fill-opacity:1;stroke:none" />
    </g>
    <path
       d="m 289.95476,279.50452 1.4222,-10.40642 12.08881,3.90241 -8.15922,0.66544 9.60609,17.59089 2.84855,-6.48145 0,11.70721 -12.79993,-5.2032 8.86624,-0.0225 -9.60611,-16.93298 z"
       id="path3878"
       style="fill:#9539a4;fill-opacity:1;stroke:none" />
    <path
       d="m 276.32865,264.2295 c 3.05684,-5.30017 -6.90225,-4.92596 -1.94424,0.96996 0,0 2.81299,5.82363 7.77695,4.20317 4.96395,-1.62046 7.77696,-19.39923 7.77696,-19.39923 l 1.41399,17.78263 c -2.4637,-6.2256 11.36388,-26.05154 10.42818,-15.35772 l 2.29774,-4.68815 c -5.95414,-3.05681 -10.75746,4.41613 -12.37242,12.28618 l -2.121,-14.87274 c 0.67433,5.10788 -6.52015,31.02543 -13.25616,19.0759 z"
       id="path3880"
       style="fill:#9539a4;fill-opacity:1;stroke:#0000b3;stroke-width:0.58486569px;stroke-linecap:butt;stroke-linejoin:miter;stroke-opacity:1" />
    <path
       d="m 316.45065,304.32125 1.0605,-2.58657 c -6.58011,-1.21416 -11.35816,-4.48244 -14.84691,3.55653 9.98852,5.15559 15.70772,7.33467 12.72592,13.57946 -7.75401,4.1432 -13.85395,-2.75307 -10.25144,-8.24467 -11.65209,1.18872 -0.51779,13.74443 10.60494,9.53795 2.99227,-5.3381 1.40244,-10.02998 -8.13045,-15.8427 1.61616,-2.01261 3.05363,-4.9374 8.83744,0 z"
       id="path3882"
       style="fill:#9539a4;fill-opacity:1;stroke:#000088;stroke-width:0.58486569px;stroke-linecap:butt;stroke-linejoin:miter;stroke-opacity:1" />
  </g>
</svg>
