<?xml version="1.0" encoding="utf-8"?>
<!-- Generator: Adobe Illustrator 16.0.0, SVG Export Plug-In . SVG Version: 6.00 Build 0)  -->
<!DOCTYPE svg PUBLIC "-//W3C//DTD SVG 1.1//EN" "http://www.w3.org/Graphics/SVG/1.1/DTD/svg11.dtd">
<svg version="1.1" id="Layer_1" xmlns="http://www.w3.org/2000/svg" xmlns:xlink="http://www.w3.org/1999/xlink" x="0px" y="0px"
	 width="574px" height="484px" viewBox="0 0 574 484" enable-background="new 0 0 574 484" xml:space="preserve">
<path fill="#FF7B5B" d="M572.638,439.756c0,0,0,43.946-43.946,43.946s-271.674,0-307.622,0c-43.945,0-43.945-43.946-43.945-43.946
	s-23.357-168.488,124.125-210.369c-22.104-24.126-36.233-58.58-36.233-97.252c0-72.796,49.197-131.838,109.865-131.838
	s109.864,59.041,109.864,131.838c0,38.672-14.173,73.126-36.255,97.252C595.994,271.268,572.638,439.756,572.638,439.756z
	 M374.881,44.243c0,0-65.919,0-65.919,87.892c0,87.892,65.919,87.892,65.919,87.892s65.919,0,65.919-87.892
	C440.8,44.243,374.881,44.243,374.881,44.243z M374.881,263.973c-175.784,0-153.812,175.784-153.812,175.784h307.622
	C528.692,439.756,550.664,263.973,374.881,263.973z M195.801,271.729c-6.592,8.285-12.239,17.228-17.38,26.522
	c-12.503-5.032-27.4-8.306-45.924-8.306c-116.984,0-102.372,119.862-102.372,119.862h121.62c0.132,10.174,1.165,20.171,2.791,29.948
	c-51.681,0-110.282,0-124.411,0c-29.246,0-29.246-29.949-29.246-29.949S-14.788,292.559,86.991,265.62
	c-13.118-16.414-21.425-39.617-21.425-65.567c0-49.637,29.972-89.891,66.908-89.891c36.938,0,66.908,40.254,66.908,89.891
	c0,25.972-8.306,49.176-21.424,65.567C184.375,267.312,190.308,269.378,195.801,271.729z M132.475,140.133
	c0,0-39.067,0-39.067,59.92c0,59.942,39.067,59.942,39.067,59.942s39.068,0,39.068-59.942
	C171.565,140.133,132.475,140.133,132.475,140.133z"/>
</svg>
