<?xml version="1.0" encoding="utf-8"?>
<!-- Generator: Adobe Illustrator 16.0.0, SVG Export Plug-In . SVG Version: 6.00 Build 0)  -->
<!DOCTYPE svg PUBLIC "-//W3C//DTD SVG 1.1//EN" "http://www.w3.org/Graphics/SVG/1.1/DTD/svg11.dtd">
<svg version="1.1" id="Layer_1" xmlns="http://www.w3.org/2000/svg" xmlns:xlink="http://www.w3.org/1999/xlink" x="0px" y="0px"
	 width="484px" height="484px" viewBox="0 0 484 484" enable-background="new 0 0 484 484" xml:space="preserve">
<path fill="#FF7B5B" d="M440,418H44c-24.288,0-44-19.712-44-44V110c0-24.288,19.712-44,44-44h396c24.287,0,44,19.712,44,44v264
	C484,398.288,464.287,418,440,418z M418,374L291.896,263.648L242,308l-49.896-44.352L66,374H418z M44,352l123.75-110L44,132V352z
	 M66,110l176,154l176-154H66z M440,132L316.25,242L440,352V132z"/>
</svg>
