<?xml version="1.0" encoding="utf-8"?>
<!-- Generator: Adobe Illustrator 16.0.0, SVG Export Plug-In . SVG Version: 6.00 Build 0)  -->
<!DOCTYPE svg PUBLIC "-//W3C//DTD SVG 1.1//EN" "http://www.w3.org/Graphics/SVG/1.1/DTD/svg11.dtd">
<svg version="1.1" id="Layer_1" xmlns="http://www.w3.org/2000/svg" xmlns:xlink="http://www.w3.org/1999/xlink" x="0px" y="0px"
	 width="512px" height="512px" viewBox="0 0 512 512" enable-background="new 0 0 512 512" xml:space="preserve">
<path fill="#FF7B5B" d="M424,512H88c-13.255,0-24-10.745-24-24c0-34.431,14.534-76.102,38.879-111.471
	c20.346-29.559,45.342-51.812,72.339-64.805c-11.899-10.822-22.147-24.015-30.254-39.062c-13-24.131-19.873-52.024-19.873-80.664
	c0-39.803,13.102-77.411,36.893-105.895C186.816,56.374,220.205,40,256,40s69.184,16.374,94.017,46.105
	c23.79,28.484,36.893,66.091,36.893,105.895c0,28.64-6.872,56.533-19.872,80.664c-8.105,15.048-18.354,28.238-30.255,39.061
	c26.997,12.996,51.993,35.246,72.339,64.805C433.466,411.898,448,453.569,448,488C448,501.255,437.255,512,424,512z M115.037,464
	h281.926c-4.613-19.67-14.262-41.192-27.383-60.255c-20.727-30.113-46.588-49.812-72.817-55.463
	c-11.053-2.382-18.944-12.155-18.944-23.462v-17.146c0-8.63,4.635-16.595,12.137-20.861c29.737-16.916,48.954-54.131,48.954-94.812
	c0-57.346-37.19-104-82.907-104c-45.716,0-82.909,46.654-82.909,104c0,40.68,19.217,77.896,48.957,94.812
	c7.501,4.269,12.134,12.231,12.134,20.861v17.146c0,11.307-7.892,21.08-18.943,23.462c-26.23,5.651-52.093,25.35-72.819,55.463
	C129.296,422.808,119.651,444.33,115.037,464z"/>
</svg>
